<?xml version="1.0" encoding="UTF-8" standalone="no"?>
<svg
   width="1280"
   height="640"
   version="1.1"
   id="svg1"
   sodipodi:docname="logo_preview.svg"
   inkscape:version="1.4.2 (ebf0e940, 2025-05-08)"
   inkscape:export-filename="logo.png"
   inkscape:export-xdpi="96"
   inkscape:export-ydpi="96"
   xml:space="preserve"
   xmlns:inkscape="http://www.inkscape.org/namespaces/inkscape"
   xmlns:sodipodi="http://sodipodi.sourceforge.net/DTD/sodipodi-0.dtd"
   xmlns:xlink="http://www.w3.org/1999/xlink"
   xmlns="http://www.w3.org/2000/svg"
   xmlns:svg="http://www.w3.org/2000/svg"><sodipodi:namedview
     id="namedview1"
     pagecolor="#ffffff"
     bordercolor="#999999"
     borderopacity="1"
     inkscape:showpageshadow="2"
     inkscape:pageopacity="0"
     inkscape:pagecheckerboard="0"
     inkscape:deskcolor="#d1d1d1"
     inkscape:zoom="0.44488896"
     inkscape:cx="786.71317"
     inkscape:cy="325.92403"
     inkscape:window-width="1512"
     inkscape:window-height="949"
     inkscape:window-x="0"
     inkscape:window-y="33"
     inkscape:window-maximized="0"
     inkscape:current-layer="svg1"
     showgrid="false" /><defs
     id="defs1"><linearGradient
       id="linearGradient221"
       inkscape:collect="always"><stop
         style="stop-color:#edf7c8;stop-opacity:1;"
         offset="0"
         id="stop222" /><stop
         style="stop-color:#f5aed8;stop-opacity:1;"
         offset="1"
         id="stop223" /></linearGradient><linearGradient
       id="linearGradient29"
       inkscape:collect="always"><stop
         style="stop-color:#0014ff;stop-opacity:1;"
         offset="0.15789473"
         id="stop30" /><stop
         style="stop-color:#b500b5;stop-opacity:1;"
         offset="0.66808146"
         id="stop32" /><stop
         style="stop-color:#340a00;stop-opacity:1;"
         offset="1"
         id="stop31" /></linearGradient><linearGradient
       x1="-9.9999997e-06"
       y1="0.5"
       x2="1.00001"
       y2="0.5"
       spreadMethod="pad"
       id="linearGradient3"><stop
         stop-color="#1a2243"
         offset="0"
         id="stop1"
         style="stop-color:#0f7c0d;stop-opacity:1;" /><stop
         stop-color="#1a2243"
         offset="0.5"
         id="stop2"
         style="stop-color:#632a26;stop-opacity:1;" /><stop
         stop-color="#46c1b9"
         offset="1"
         id="stop3"
         style="stop-color:#483f4a;stop-opacity:1;" /></linearGradient><linearGradient
       x1="0.14647"
       y1="0.14645"
       x2="0.85355002"
       y2="0.85354"
       spreadMethod="pad"
       id="linearGradient56-3"><stop
         stop-color="#1a2243"
         offset="0"
         id="stop20"
         style="stop-color:#2c2a29;stop-opacity:1;" /><stop
         stop-color="#46c1b9"
         offset="0.55390835"
         id="stop21"
         style="stop-color:#a56d68;stop-opacity:1;" /><stop
         stop-color="#c5115b"
         offset="1"
         id="stop22"
         style="stop-color:#745106;stop-opacity:1;" /></linearGradient><linearGradient
       x1="0.14647"
       y1="0.14645"
       x2="0.85355002"
       y2="0.85354"
       spreadMethod="pad"
       id="linearGradient56-2"><stop
         stop-color="#1a2243"
         offset="0"
         id="stop17"
         style="stop-color:#2c2a29;stop-opacity:1;" /><stop
         stop-color="#46c1b9"
         offset="0.55390835"
         id="stop18"
         style="stop-color:#a56d68;stop-opacity:1;" /><stop
         stop-color="#c5115b"
         offset="1"
         id="stop19"
         style="stop-color:#745106;stop-opacity:1;" /></linearGradient><linearGradient
       x1="0.14647"
       y1="0.14645"
       x2="0.85355002"
       y2="0.85354"
       spreadMethod="pad"
       id="linearGradient56-1"><stop
         stop-color="#1a2243"
         offset="0"
         id="stop14"
         style="stop-color:#2c2a29;stop-opacity:1;" /><stop
         stop-color="#46c1b9"
         offset="0.55390835"
         id="stop15"
         style="stop-color:#a56d68;stop-opacity:1;" /><stop
         stop-color="#c5115b"
         offset="1"
         id="stop16"
         style="stop-color:#745106;stop-opacity:1;" /></linearGradient><linearGradient
       x1="0.14647"
       y1="0.14645"
       x2="0.85355002"
       y2="0.85354"
       spreadMethod="pad"
       id="linearGradient56"><stop
         stop-color="#1a2243"
         offset="0"
         id="stop11"
         style="stop-color:#2c2a29;stop-opacity:1;" /><stop
         stop-color="#46c1b9"
         offset="0.55390835"
         id="stop12"
         style="stop-color:#a56d68;stop-opacity:1;" /><stop
         stop-color="#c5115b"
         offset="1"
         id="stop13"
         style="stop-color:#745106;stop-opacity:1;" /></linearGradient><linearGradient
       x1="0.14647"
       y1="0.14645"
       x2="0.85355002"
       y2="0.85354"
       spreadMethod="pad"
       id="linearGradient56-4"><stop
         stop-color="#1a2243"
         offset="0"
         id="stop50"
         style="stop-color:#2c2a29;stop-opacity:1;" /><stop
         stop-color="#46c1b9"
         offset="0.55390835"
         id="stop52"
         style="stop-color:#a56d68;stop-opacity:1;" /><stop
         stop-color="#c5115b"
         offset="1"
         id="stop54"
         style="stop-color:#745106;stop-opacity:1;" /></linearGradient><linearGradient
       x1="-9.9999997e-06"
       y1="0.5"
       x2="1.00001"
       y2="0.5"
       spreadMethod="pad"
       id="linearGradient100"><stop
         stop-color="#1a2243"
         offset="0"
         id="stop96"
         style="stop-color:#370d7c;stop-opacity:1;" /><stop
         stop-color="#1a2243"
         offset="0.5"
         id="stop23"
         style="stop-color:#265763;stop-opacity:1;" /><stop
         stop-color="#46c1b9"
         offset="1"
         id="stop98"
         style="stop-color:#483f4a;stop-opacity:1;" /></linearGradient><linearGradient
       x1="4.9999999e-05"
       y1="0.50018001"
       x2="1.0001301"
       y2="0.50018001"
       spreadMethod="pad"
       id="linearGradient164"><stop
         stop-color="#46c1b9"
         offset="0"
         id="stop160"
         style="stop-color:#070707;stop-opacity:1;" /><stop
         stop-color="#c5115b"
         offset="1"
         id="stop162"
         style="stop-color:#723248;stop-opacity:1;" /></linearGradient><radialGradient
       inkscape:collect="always"
       xlink:href="#linearGradient29"
       id="radialGradient31"
       cx="124.39527"
       cy="124.6094"
       fx="124.39527"
       fy="124.6094"
       r="116.42322"
       gradientTransform="matrix(1,0,0,0.99998264,0,0.00216262)"
       gradientUnits="userSpaceOnUse" /><clipPath
       clipPathUnits="userSpaceOnUse"
       id="clipPath1127"><path
         id="path1128"
         style="fill:#ff0000;fill-opacity:1;fill-rule:nonzero;stroke:none;stroke-width:0.170522"
         d="m 131.91087,172.85538 -10e-4,-3.3e-4 -9.1526,-3.4e-4 c 0.50254,-0.71166 0.73657,-1.64673 1.0228,-2.53818 1.38113,0.11236 2.76758,0.14859 4.15116,0.0936 0.79563,-0.0316 1.59033,-0.0934 2.38232,-0.18818 0.44025,1.24386 0.99526,2.12159 1.59731,2.63311 z m -16.53735,-6.7e-4 c 0.4779,-0.56619 0.55643,-1.58766 0.50491,-2.63543 0.002,-0.009 0.004,-0.0186 0.006,-0.028 0.0547,0.13673 0.11528,0.27082 0.18717,0.39933 0.31932,0.57084 0.98567,0.72144 1.78316,0.64146 0.008,0.017 0.0168,0.0349 0.0256,0.0536 0.0969,0.16207 0.1845,0.33019 0.2761,0.49591 -0.29227,0.60516 -0.38221,0.94044 -0.32007,1.07309 z m 2.78299,-1.07309 c 0.0373,-0.0771 0.0776,-0.15842 0.12156,-0.24446 0.0666,-0.13044 0.12813,-0.26539 0.18617,-0.40332 0.1372,-0.0294 0.27664,-0.0633 0.41699,-0.10158 0.1521,0.10907 0.31791,0.19664 0.49757,0.25911 0.25473,0.0886 0.49681,0.0988 0.72839,0.0476 -0.5337,0.47736 -1.02631,0.90139 -1.4168,1.19032 -0.0742,-0.0737 -0.14088,-0.14782 -0.19883,-0.22181 -0.12829,-0.16377 -0.23415,-0.34331 -0.33505,-0.52589 z m 0.53388,0.7477 c 0.11167,0.11092 0.24007,0.22037 0.38101,0.32539 h -0.89025 c 0.13785,-0.0661 0.31025,-0.17815 0.50924,-0.32539 z M 8.1066386e-5,172.85372 V 132.57877 C 1.0726377,132.73444 2.2581702,132.58636 3.3948773,132.29335 c 0.45875,0.48658 0.8654109,0.75185 1.2469454,0.76801 0.4324063,0.0183 0.8327425,-0.28335 1.241284,-0.9452 0.4184642,0.0233 0.8269612,0.008 1.2153057,-0.057 0.5537383,2.47107 1.3582258,4.87762 2.5648311,7.15861 0.3725905,0.70436 2.1224265,3.15214 3.1206945,3.49838 1.16525,0.40416 2.447904,0.30375 3.671896,0.45561 0.381515,-0.53274 0.737313,-1.08552 1.110727,-1.62462 0.04058,0.0947 0.082,0.18754 0.121564,0.27743 -0.02898,0.0909 -0.05449,0.18295 -0.0756,0.27643 -0.15382,0.68115 -0.0021,0.50713 0.221145,0.0623 0.07872,0.18109 0.162153,0.36023 0.249123,0.53755 0.127493,0.99162 0.265471,1.98158 0.441961,2.96549 0.208717,1.16359 0.573061,2.29386 0.859607,3.44076 0.825576,3.30439 2.132943,4.95647 3.440424,4.95647 0.01487,0 0.02977,1.7e-4 0.04463,-6.8e-4 0.840193,5.94622 1.73809,11.88735 2.460587,17.84391 0.110457,0.30932 0.220427,0.62505 0.330054,0.94687 z m 55.711225933614,0 c -0.103725,-1.59966 0.01756,-3.09048 0.454615,-4.43659 0.0043,0.0174 0.0094,0.0347 0.01533,0.0516 -0.05488,1.4691 -0.01741,2.93985 0.171521,4.38496 z m 65.053663,-1.82979 c 0.31781,-0.23256 0.61647,-0.5643 0.90257,-0.93754 0.28374,0.0385 0.56777,0.0744 0.85228,0.10691 -0.0142,0.0487 -0.0291,0.0965 -0.045,0.14354 -0.21502,0.6388 -0.91773,0.7147 -1.70988,0.68709 z m -0.29276,-0.014 c -0.47402,-0.027 -0.96229,-0.0702 -1.38416,-0.037 0.80625,-0.23956 1.63455,-0.59701 2.31504,-0.92322 0.0357,0.005 0.0715,0.0103 0.10725,0.0153 -0.34684,0.31529 -0.69779,0.63674 -1.03813,0.94487 z m -80.267124,-6.9398 c 0.5761,-1.05149 1.333128,-2.02961 1.841776,-3.10937 0.12936,0.0849 0.259016,0.16926 0.389002,0.25312 -0.0038,0.0129 -0.0079,0.0258 -0.01233,0.0386 -0.389146,1.1293 -1.47902,1.87916 -2.218457,2.81761 z m -3.392132,-0.39167 c -0.0034,-0.001 -0.02469,-0.0161 -0.05362,-0.0413 0.03459,0.0242 0.05065,0.0369 0.05362,0.0403 l 3.41e-4,3.4e-4 v 3.3e-4 h 3.41e-4 v 3.2e-4 h -3.41e-4 z m 42.416135,-0.47126 c 0.05084,-0.10322 0.101373,-0.20628 0.151203,-0.30941 8.53e-4,0.0146 0.0015,0.0294 0.0023,0.044 0.0037,0.0644 0.0076,0.12877 0.01132,0.19317 -0.05527,0.0232 -0.110348,0.0473 -0.164859,0.0723 z m 44.252581,-2.14419 c 0.0175,-0.1318 0.034,-0.2606 0.0493,-0.38701 0.0123,0.12503 0.0251,0.25005 0.0383,0.37502 -0.0293,0.004 -0.0585,0.008 -0.0876,0.012 z m -68.005831,-3.05409 c -0.975061,-3.86041 -1.946597,-7.72155 -2.923527,-11.58154 -0.05349,-0.871 -0.124606,-2.02058 -0.23247,-3.76481 -0.134798,-2.17991 -0.161876,-4.36929 -0.407656,-6.53947 -0.392883,-3.46909 -0.943143,-6.53392 -2.231447,-9.73777 -0.258033,-0.6417 -0.684669,-1.20191 -1.027131,-1.80281 -0.764796,-0.43926 -1.473952,-1.1992 -2.217459,-1.76084 -7.683453,-28.86377 -5.164409,-16.8216 -10.233679,-39.216509 0.182229,-3.369618 0.389342,-6.739278 0.220148,-10.103789 -0.08002,-1.591205 -0.281207,-3.178759 -0.573515,-4.748652 0.202284,-1.243119 0.110873,-0.764708 0.284424,-3.727848 0.06998,-1.194793 0.147571,-2.38902 0.21482,-3.583969 0.08,-1.421444 0.103895,-2.84668 0.226806,-4.265062 C 37.57907,45.59092 37.15119,56.14181 37.41711,44.040303 37.29949,41.129619 37.192752,36.208192 36.757334,33.171492 c -0.135643,-0.946024 -0.422107,-1.864847 -0.67443,-2.786642 -0.182477,-0.666656 -0.421108,-1.13492 -0.557195,-1.710887 0.06776,-5.11e-4 0.135412,-8.52e-4 0.203162,-0.001 0.830292,-0.157943 1.667074,0.110927 2.498886,0.03464 0.474789,-0.04358 0.943804,-0.14002 1.409475,-0.242463 1.078304,-0.237224 0.418531,-0.327558 1.19832,-0.126558 1.838848,0.06743 3.694681,-0.15082 5.485694,-0.554863 0.176639,-0.05166 0.357705,-0.08988 0.529885,-0.15487 0.01555,-0.0059 0.04125,-0.02371 0.05629,-0.03963 0.04033,-0.0015 0.08064,-0.0038 0.120897,-0.004 1.10481,-0.184843 1.452042,-0.236142 1.462099,-0.226809 v 3.41e-4 3.41e-4 c -0.01787,0.02021 -0.787779,0.176568 -0.817641,0.209156 l -3.41e-4,6.82e-4 -3.41e-4,3.41e-4 -3.42e-4,3.41e-4 v 3.41e-4 3.42e-4 l 3.42e-4,3.41e-4 v 3.41e-4 h 3.41e-4 l 3.41e-4,3.41e-4 3.41e-4,3.41e-4 h 6.82e-4 c 0.0056,0.0024 0.02293,0.0035 0.05329,0.0017 0.392019,0.0307 0.796604,0.113841 1.191326,0.07194 0.225859,-0.02399 0.186813,-0.05046 0.152538,-0.06161 0.03596,0.0072 0.121016,0.02229 0.299413,0.04796 0.734113,0.0083 1.466098,0.06951 2.199474,0.01865 0.140821,0.0088 0.323804,-0.07471 0.422642,0.02598 0.06919,0.0705 -0.316254,0.0253 -0.333383,0.05995 v 3.41e-4 3.41e-4 l -6.82e-4,3.41e-4 v 3.41e-4 6.82e-4 h -3.41e-4 v 3.41e-4 3.41e-4 c 1.67e-4,0.0036 0.0039,0.0082 0.01132,0.01332 0.20071,0.139419 0.475142,0.117186 0.707735,0.19217 0.106665,0.03438 0.199965,0.104508 0.30774,0.135218 0.473604,0.134956 0.975945,0.161126 1.460766,0.213155 0.599286,0.392802 1.083506,-0.211946 1.63162,-0.205826 0.0049,5.4e-5 0.0084,0.0012 0.01,0.002 l 3.41e-4,3.41e-4 h 3.41e-4 l 3.41e-4,0.001 v 0.002 l 6.82e-4,6.82e-4 v 3.41e-4 3.41e-4 h -6.82e-4 v 3.41e-4 c -0.01004,0.01436 -0.172917,0.06551 -0.155535,0.115903 0.02101,0.06092 0.128091,0.01693 0.192502,0.01865 0.259514,0.0065 0.251172,0.0624 0.213822,-0.07527 0.539973,-0.04695 1.12392,0.192304 1.649604,0.01531 0.521567,0.03128 1.0437,0.05561 1.568007,0.04696 0.270873,0.02629 0.579766,0.07118 0.853611,0.0383 0.05128,-0.0062 0.08978,-0.01185 0.118901,-0.01765 0.08248,0.02011 0.158691,0.03657 0.211154,0.04563 2.479731,0.428191 0.462669,0.116873 2.302054,0.184843 0.551879,0.02904 1.105702,0.07877 1.659596,0.0786 0.781554,0.04633 1.560786,-0.0064 2.340355,-0.06161 0.501989,0.01531 0.971212,-0.05668 1.462097,0.03797 0.380434,0.07155 0.763374,-0.01819 1.143032,-0.01499 0.137245,0.0012 0.274062,0.04371 0.410654,0.03031 1.212357,-0.118977 1.448722,-0.168103 1.4591,-0.189507 v -3.41e-4 -6.82e-4 l 6.82e-4,-6.82e-4 3.41e-4,-6.82e-4 v -0.001 l -3.41e-4,-3.41e-4 v -3.41e-4 -3.41e-4 l -6.82e-4,-6.82e-4 -3.41e-4,-3.41e-4 v -3.41e-4 c -0.0087,-0.0086 -0.05889,-0.0118 -0.06328,-0.01366 h -3.41e-4 v -10e-4 h 3.41e-4 c 0.0088,-0.0023 0.116918,-0.0042 0.534548,-0.01698 0.218419,-0.05165 0.443158,-0.114823 0.671433,-0.17352 0.820702,0.538464 1.99086,0.923563 3.510365,1.024801 0.238936,0.01593 0.477257,0.04763 0.716727,0.04763 0.359202,0 0.716325,-0.06239 1.075423,-0.07094 0.537001,-0.01277 1.07583,0.01281 1.612637,0.02398 1.864975,0.101456 3.721044,0.218261 5.591273,0.153536 0.599571,-0.03838 1.199646,-0.06522 1.800143,-0.07627 0.829556,0.6975 2.152983,1.23051 3.970311,1.403478 0.892153,0.08492 0.962498,0.15398 1.791817,0.02398 0.24412,-0.03827 0.43266,-0.1555 0.646787,-0.197834 0.05904,0.03696 0.117957,0.07355 0.177517,0.109575 0.205567,0.04578 0.413739,0.09046 0.623139,0.12656 0.130349,0.156885 0.255427,0.315898 0.36236,0.481593 0.551925,0.226493 0.740971,0.364133 1.341865,0.383675 0.139194,0.0045 0.522384,0.01219 0.411652,-0.07227 -0.350688,-0.267478 -0.734161,-0.495121 -1.126381,-0.711398 1.924254,0.308753 4.121813,0.458319 4.380963,-1.44278 0.345843,-0.335953 0.586636,-0.712251 0.722722,-1.103402 1.378466,-0.08799 0.697506,-0.0607 2.045266,-0.08426 0.44218,0.06199 0.86837,-0.162926 1.30657,-0.150205 0.7672,0.02226 0.99164,0.04899 1.00914,0.07294 3.4e-4,6.82e-4 8.5e-4,0.0022 10e-4,0.003 v 3.41e-4 6.82e-4 c -1.6e-4,5.12e-4 -5.1e-4,0.0015 -6.8e-4,0.002 v 3.42e-4 l -3.4e-4,3.41e-4 c -0.0189,0.02479 -0.23565,0.04667 -0.25078,0.05595 l -3.4e-4,6.82e-4 h -3.4e-4 l -6.8e-4,3.41e-4 6.8e-4,6.82e-4 c 0.01,0.0076 0.23096,0.004 1.02413,-0.01898 0.80519,-0.02328 1.25423,-0.129305 2.12621,-0.261445 1.13186,-0.317492 2.31507,-0.03184 3.45774,-0.110239 0.9742,-0.06685 1.90686,-0.318397 2.84692,-0.549536 -0.52048,1.70011 1.11836,3.605344 4.91551,4.013273 0.48619,0.05223 0.97734,0.101714 1.46876,0.119233 0.49141,0.01752 0.98298,0.0036 1.47009,-0.07094 0.22446,-0.03435 0.64425,-0.182237 0.64512,-0.226806 0.0103,-0.530032 0.0135,-1.060231 0.0117,-1.590324 0.0211,0.529919 0.0541,1.05925 0.10525,1.587324 0.015,0.154889 0.30296,0.07313 0.45694,0.09559 1.09096,0.159089 2.19915,0.184018 3.29688,0.1199 1.00747,-0.06251 1.69882,-0.403789 2.55484,-0.794995 0.0296,0.0035 0.0611,0.0071 0.0939,0.011 0.18515,-0.0338 0.30243,-0.05503 0.37102,-0.06994 -0.0632,0.03383 -0.12684,0.06731 -0.19017,0.100915 -0.79906,0.252738 -1.13483,0.320732 -0.19517,0.105245 0.0647,-0.03587 0.12974,-0.07053 0.19517,-0.105245 0.32034,-0.101323 0.71523,-0.232444 1.13204,-0.386674 0.12344,-0.04567 0.39616,-0.235297 0.43463,-0.296748 0.43481,-0.170647 0.8907,-0.399399 1.2243,-0.715395 0.31915,-0.0012 0.63866,0.0019 0.95686,-0.01965 1.06165,-0.07201 1.28669,-0.0973 1.3019,-0.116567 v -3.41e-4 -0.001 l 3.5e-4,-6.82e-4 v -3.41e-4 l 3.4e-4,-3.41e-4 v -3.41e-4 -3.41e-4 -3.42e-4 -6.82e-4 -6.82e-4 h -3.4e-4 v -3.41e-4 l -3.5e-4,-3.41e-4 h -0.001 v -3.41e-4 -3.41e-4 -3.41e-4 c -0.0281,-0.02612 -0.35233,-0.04889 0.79166,-0.182512 0.88886,-0.103819 1.80247,-0.130565 2.69639,-0.130223 0.76649,0.05565 1.52761,0.09731 2.28307,-0.003 0.99316,0.764396 0.65256,0.70765 0.60549,-0.11357 0.0652,-0.01608 0.13035,-0.03348 0.1955,-0.05229 0.0866,-0.025 0.18973,-0.04166 0.29841,-0.05662 -0.23538,2.520063 -0.3655,5.057545 -0.38234,7.619224 -0.012,1.830274 0.0355,3.655243 0.16386,5.471374 -0.16243,1.027756 -0.37294,2.05028 -0.4323,3.088054 -0.14491,2.533195 0.16936,3.412631 0.45362,5.734484 0.12992,1.06118 0.21333,2.127413 0.33438,3.189638 -0.16901,0.426714 0.3142,0.70043 0.34071,1.075424 0.0129,0.183167 -0.0416,0.365026 -0.0696,0.546536 -0.0558,0.365162 -0.1282,0.727545 -0.18151,1.093077 -0.29193,2.001668 -0.27578,2.157914 -0.49125,4.390619 -0.3427,3.359135 -0.33153,6.731319 -0.25845,10.10146 0.0315,1.45363 0.0101,2.774168 0.24679,4.197451 0.0482,0.29 0.15997,0.565771 0.24013,0.848615 0.38916,1.214993 -0.16973,2.48752 0.0576,3.700871 -0.15623,0.232769 -0.23058,0.523617 -0.33871,0.785004 -0.43222,1.044844 -0.7316,2.111259 -0.94953,3.217278 -0.17827,1.25348 -0.52564,2.472496 -0.61615,3.740172 -0.0814,1.140613 0.0666,2.281949 0.18385,3.413446 -1.7e-4,0.03592 -0.003,0.376082 -0.005,0.743038 -0.14619,0.210687 -0.28076,0.429994 -0.42797,0.639793 -0.10893,0.228611 -0.21779,0.457137 -0.32672,0.685753 0.017,-0.01308 0.0545,-0.05199 0.0633,-0.05495 l 6.8e-4,-3.42e-4 h 3.4e-4 6.8e-4 3.4e-4 v 3.42e-4 h 3.4e-4 v 3.41e-4 3.41e-4 3.41e-4 c -1.4e-4,0.001 -5.1e-4,0.0028 -0.001,0.0047 -0.28984,0.620139 -0.60139,0.987322 -0.68709,1.645941 -6.8e-4,0.0056 -6.8e-4,0.0093 0,0.01132 v 3.41e-4 l 3.4e-4,3.41e-4 v 3.41e-4 h 3.4e-4 v 3.41e-4 h 3.4e-4 l 3.5e-4,3.41e-4 h 3.4e-4 3.4e-4 3.4e-4 3.4e-4 3.4e-4 c 0.0269,-0.0094 0.17955,-0.303897 0.23347,-0.146542 0.13924,-0.157776 0.21964,-0.249589 0.23647,-0.251787 1.7e-4,5e-6 6.8e-4,1.7e-5 0.001,0 h 3.4e-4 6.9e-4 l 3.4e-4,3.41e-4 3.4e-4,3.41e-4 3.4e-4,6.82e-4 3.4e-4,0.001 v 3.41e-4 c 0.008,0.03705 -0.29971,0.528687 -0.97451,1.733534 0.034,-0.123737 0.0536,-0.208439 0.0493,-0.221479 v -3.41e-4 h -3.4e-4 v -3.41e-4 -6.82e-4 -6.83e-4 h -3.4e-4 v -3.41e-4 h -3.4e-4 -3.4e-4 -3.5e-4 -6.8e-4 -3.4e-4 l -3.4e-4,3.41e-4 -3.4e-4,6.83e-4 c -0.006,0.0045 -0.0196,0.03117 -0.0423,0.08493 -0.0437,0.103535 -0.15682,0.380763 -0.15454,0.400327 v 10e-4 3.41e-4 h 3.4e-4 v 3.41e-4 h 3.4e-4 3.4e-4 l 3.4e-4,-3.41e-4 c 0.002,-0.0021 0.007,-0.0094 0.015,-0.02232 0.0464,-0.08346 0.0915,-0.163974 0.13489,-0.241462 -0.0178,0.06473 -0.0395,0.14016 -0.0636,0.221813 -0.30681,0.370501 -0.591,0.761205 -0.68409,0.954194 -0.0468,0.09693 -0.57021,1.439408 -0.51756,1.716548 -0.0801,0.203112 -0.171,0.4024 -0.24013,0.609484 -0.0356,0.106519 -0.0254,0.22716 -0.0733,0.328722 -0.095,0.20139 -0.23594,0.377852 -0.35037,0.568848 -0.54647,0.91209 -1.05044,1.84338 -1.27725,2.89522 -0.047,0.30758 -0.0393,0.62616 -0.12756,0.92455 -0.29239,0.98867 -0.75259,1.92935 -0.88092,2.96183 0.071,-0.0456 0.10289,-0.0689 0.11157,-0.0696 h 3.4e-4 3.4e-4 3.4e-4 3.5e-4 l 3.4e-4,3.4e-4 h 3.4e-4 v 3.4e-4 l 3.4e-4,3.4e-4 v 3.4e-4 c 0.002,0.0139 -0.0675,0.1101 -0.0959,0.29142 -0.61063,0.99203 -1.15163,1.99741 -1.40081,3.15133 -0.19172,1.29112 -0.35212,2.64431 -0.69641,3.91103 -0.41107,1.51238 -0.46942,1.19107 -1.21264,2.87423 -0.23774,0.5384 -0.44877,1.08816 -0.66511,1.63562 -0.69652,1.32357 -1.21263,2.73906 -1.63228,4.17048 0.0214,0.12762 -0.18381,0.59786 -0.15354,0.63646 l 3.4e-4,3.4e-4 c 1.6e-4,1.4e-4 8.5e-4,8.6e-4 0.001,0.001 v 3.4e-4 h 3.4e-4 3.5e-4 3.4e-4 v 3.4e-4 h 3.4e-4 3.4e-4 6.8e-4 3.4e-4 l 3.4e-4,3.4e-4 c 0.006,-1e-5 0.0176,-0.007 0.0333,-0.0233 0.17784,-0.18677 0.14593,-0.50391 0.29209,-0.71639 0.0309,-0.0449 0.0752,-0.10305 0.12656,-0.16686 -0.0646,0.27079 -0.12415,0.54228 -0.18018,0.81498 -0.65648,0.97085 -0.37144,-0.44696 -0.59883,1.86509 0.0238,0.1138 0.0401,0.22963 0.0616,0.34404 4e-5,8.5e-4 -4e-5,0.002 0,0.002 -0.06,0.58848 -0.11873,1.18134 -0.13123,1.77417 -0.0645,0.21751 -0.126,0.43538 -0.17152,0.65744 -0.0495,0.2413 -0.27495,0.60735 -0.0653,0.73638 0.48383,0.29751 0.97683,0.58385 1.47842,0.85527 -0.12028,0.58834 -0.20259,1.17472 -0.23214,1.80048 -0.0108,0.0327 -0.0217,0.0652 -0.0326,0.0979 -0.0594,0.1171 -0.11458,0.23636 -0.16586,0.35703 -0.0455,0.10716 -0.11658,0.41081 -0.11091,0.43097 v 3.4e-4 h 3.5e-4 v 3.4e-4 h 3.4e-4 3.4e-4 10e-4 v -3.4e-4 h 3.4e-4 l 10e-4,-0.001 c 0.002,-0.003 0.006,-0.0117 0.01,-0.0243 0.0919,-0.25299 0.17863,-0.50764 0.26378,-0.76302 0.0102,-0.0202 0.0208,-0.0402 0.0313,-0.0603 -1.3e-4,0.008 1.7e-4,0.0126 6.8e-4,0.0147 v 3.4e-4 6.9e-4 h 3.4e-4 v 3.4e-4 h 3.4e-4 v -3.4e-4 l 6.8e-4,-6.9e-4 c 0.002,-0.003 0.004,-0.0149 0.007,-0.0333 0.0638,-0.12111 0.13187,-0.23971 0.20416,-0.3557 0.0491,-0.0789 0.20493,-0.26707 0.23247,-0.26478 l 3.4e-4,3.5e-4 h 3.4e-4 3.4e-4 v 6.8e-4 h 3.4e-4 l 0.001,3.4e-4 6.9e-4,6.8e-4 3.4e-4,3.4e-4 v 3.4e-4 6.8e-4 l 3.4e-4,3.5e-4 3.4e-4,3.4e-4 v 3.4e-4 3.4e-4 l 3.4e-4,3.4e-4 v 3.4e-4 c 6.8e-4,0.003 -8.5e-4,0.0115 -0.003,0.021 -0.97514,2.76879 -0.84882,3.21021 -1.03646,2.11555 0.0195,1.29959 -0.29023,1.09245 -0.51523,2.17116 0.0159,0.41219 0.0128,0.003 -0.33971,0.96419 -0.0951,0.25904 -0.15047,0.53213 -0.25379,0.788 -0.57165,1.41575 -0.23027,0.39811 -0.64512,1.76451 -0.47126,1.43787 -0.90114,2.89411 -1.11805,4.39428 -0.43623,1.20467 -0.63772,2.41825 -0.61948,3.70187 0.006,0.39354 0.051,0.78612 0.0563,1.17967 0.005,0.3361 -0.0178,0.67181 -0.027,1.00781 0.007,0.36364 3.4e-4,0.72797 0.021,1.09108 0.043,0.75694 0.2228,1.54861 0.17152,2.31171 -0.0116,0.17228 -0.0603,0.33985 -0.0863,0.51057 -0.0388,0.25643 -0.0718,0.51382 -0.10757,0.77068 -0.0715,0.56925 -0.21089,1.63072 -0.27011,2.29839 -0.14979,-0.92752 -0.37108,-2.02765 -0.68009,-3.41411 -0.77133,-3.46079 -2.2122,-6.73883 -3.1933,-10.14609 -0.71061,-2.46787 -1.23137,-4.98674 -1.87974,-7.47168 -1.12026,-4.29353 -1.2204,-4.52049 -2.31371,-8.09515 -0.3095,-1.01193 -0.6716,-1.88105 -1.0661,-2.6048 0.0194,-0.42939 0.0481,-0.85856 0.0679,-1.28791 0.0148,-1.4178 0.0396,-2.24941 -0.008,-3.65924 -0.0178,-0.52583 -0.0842,-1.04987 -0.0863,-1.576 -0.005,-1.41458 0.1715,-2.54505 0.1895,-3.97631 0.008,-0.66546 -0.0425,-1.33047 -0.0639,-1.99564 -0.0566,-0.49016 -0.0963,-0.98248 -0.16952,-1.47043 -0.0453,-0.30165 -0.092,-0.60559 -0.18551,-0.89591 -0.0357,-0.11083 -0.0801,-0.28545 -0.1965,-0.28908 -0.007,-1.7e-4 -0.0141,-5.1e-4 -0.0213,-6.8e-4 -0.0569,-0.75388 -1.30683,-0.74743 -2.76733,-0.56952 0.0266,-0.41584 0.0543,-0.83146 0.0856,-1.24694 0.054,-0.71794 0.1566,-1.43304 0.17152,-2.15285 0.025,-1.20374 -0.11659,-2.01688 -0.26578,-3.17265 -0.0181,-0.10616 0.0458,-0.27852 -0.0543,-0.3184 -0.088,-0.0351 -0.0766,0.20061 -0.16653,0.23047 -1.67843,0.55744 -3.38996,1.00915 -5.08503,1.51372 -0.16933,0.0504 -0.32125,0.0927 -0.45662,0.12756 -0.002,-0.008 -0.003,-0.0156 -0.005,-0.0236 -0.0505,-0.23959 -0.10423,-0.47076 -0.16087,-0.69375 2.31419,-1.73948 8.91993,-5.465263 4.67272,-4.318017 -4.18203,1.129642 -4.9854,0.42594 -5.49136,2.017297 -1.84214,-3.729821 -4.876128,-2.716205 -6.188095,2.99447 -0.101678,0.44258 -0.217444,0.88253 -0.333718,1.32254 -1.078751,0.0923 -2.156286,0.19363 -3.225939,0.35737 -0.142748,0.0219 -0.198974,0.21174 -0.275767,0.33405 -0.159875,0.25462 -0.29926,0.52239 -0.431635,0.79233 -0.409409,0.83485 -0.752917,1.70064 -1.066433,2.57749 -0.313708,0.047 -0.626491,0.10354 -0.938872,0.16586 -0.0182,-0.36069 -0.03877,-0.72151 -0.06128,-1.08176 -0.13637,-2.18202 -0.438516,-4.36656 -0.978173,-6.48518 -0.582943,-2.28857 -2.277746,-3.677803 -3.786131,-5.336487 -1.27572,0.735322 -2.607344,1.383133 -3.866398,2.144521 -1.197288,-0.247735 -2.525494,0.461085 -3.719856,0.844619 -0.904086,0.290321 -2.388486,2.290397 -2.754335,2.821617 -0.07165,0.10405 -0.142119,0.20887 -0.211489,0.3144 -0.953579,-0.0484 -1.907062,-0.0939 -2.861248,-0.12123 -0.166169,-0.28808 -0.349861,-0.55131 -0.573182,-0.75803 0.06279,-0.17337 0.134634,-0.3515 0.216818,-0.52789 0.09681,-0.2078 0.579135,-0.61308 0.588836,-0.6268 v -3.4e-4 h -3.41e-4 c -0.0025,10e-4 -0.01572,0.0113 -0.0423,0.032 -0.367099,0.28494 -0.739764,0.57059 -1.080753,0.88692 -0.101099,-0.0584 -0.209374,-0.10651 -0.32639,-0.14222 -0.545536,-0.16648 -1.008688,-0.2693 -1.403813,-0.31806 -1.821949,-2.070239 -5.09227,-0.635485 -5.745475,4.23808 -0.202364,1.50981 -0.254982,3.0205 -0.05928,4.51718 -0.05258,0.17641 -0.09865,0.36368 -0.140548,0.59217 -0.110991,0.21142 -0.314515,0.61302 -0.355033,0.81864 -0.02634,0.13366 -0.03574,0.26993 -0.05362,0.40499 -0.696773,1.45343 0.152156,-0.32847 -0.642124,1.38183 0.02901,-0.0628 0.09613,-0.20966 0.09725,-0.22214 v -3.4e-4 -3.4e-4 h -3.41e-4 -3.41e-4 l -3.41e-4,3.4e-4 -3.41e-4,3.4e-4 h -3.41e-4 c -0.0012,0.002 -0.0028,0.005 -0.005,0.009 -0.527303,0.8766 -0.892482,1.65531 -1.050778,2.6804 0.07625,0.27976 0.02,0.0432 -0.304075,0.73072 -0.156087,0.33113 -0.340829,0.64906 -0.479595,0.98782 -0.416851,1.01761 -0.662995,2.10543 -0.858606,3.1833 -0.07885,1.065 0.02978,-0.009 -0.303078,1.60365 -0.06822,0.33054 -0.109962,0.66616 -0.164861,0.99916 0.02643,-0.0449 0.07052,-0.1692 0.08893,-0.17752 l 3.41e-4,-3.4e-4 h 3.41e-4 3.41e-4 3.42e-4 c 1.7e-4,0 5.11e-4,-1e-5 6.82e-4,0 h 3.41e-4 3.41e-4 3.41e-4 l 3.41e-4,3.4e-4 3.41e-4,3.5e-4 3.41e-4,3.4e-4 3.41e-4,3.4e-4 c 0.0014,0.002 0.0034,0.006 0.004,0.0123 0.04145,0.41103 -0.908438,0.70695 -0.336381,1.19266 -0.180536,0.5411 -0.202685,0.92519 -0.231138,1.43445 -0.288301,0.66043 -0.612629,1.30117 -0.753363,2.01696 -0.01594,0.0811 0.0674,0.16022 0.05429,0.2418 -0.126565,0.78734 -0.184531,1.01663 -0.208823,1.03512 -1.71e-4,1.2e-4 -5.12e-4,1.7e-4 -6.82e-4,3.4e-4 h -3.41e-4 -3.42e-4 -3.41e-4 -3.41e-4 -3.41e-4 -3.41e-4 l -6.82e-4,-3.4e-4 c -0.02909,-0.0186 0.0067,-0.44701 -0.01965,-0.11157 -0.102085,0.29413 -0.204324,0.58811 -0.306409,0.88225 0.03709,-0.01 0.115449,-0.0664 0.111239,-0.0283 -0.01946,0.17605 -0.109281,0.33672 -0.16386,0.50523 -0.02195,0.0678 -0.02974,0.0959 -0.02931,0.10092 h 6.82e-4 v 3.4e-4 3.4e-4 h 3.41e-4 c -0.06318,0.15697 -0.188573,0.47352 -0.421644,1.07176 -0.01932,0.0496 0.02717,-0.0744 0.05329,-0.14488 -0.04416,0.11647 -0.100709,0.22956 -0.125891,0.35137 -0.06363,0.30781 -0.113683,0.61797 -0.162531,0.92855 0.01137,-0.0171 0.02336,-0.0348 0.03564,-0.053 -0.01277,0.0245 -0.02567,0.0496 -0.03897,0.0749 0.0012,-0.007 0.002,-0.014 0.003,-0.021 -0.02492,0.0376 -0.04696,0.0714 -0.06295,0.0966 -0.110854,0.17455 -0.181435,0.37169 -0.272103,0.55753 0.125187,-0.23846 0.235338,-0.44836 0.331719,-0.6328 -0.006,0.0382 -0.012,0.0761 -0.01798,0.11424 -0.04465,0.14186 -0.08694,0.48781 -0.08393,0.50524 v 3.4e-4 h 3.41e-4 l 3.41e-4,-3.4e-4 c 10e-4,-0.002 0.0036,-0.0126 0.007,-0.0323 0.02682,-0.15747 0.05181,-0.31542 0.0766,-0.47327 0.0017,-0.005 0.0033,-0.0103 0.005,-0.015 0.02228,-0.0627 0.0597,-0.15073 0.105578,-0.25146 0.06568,-0.0918 0.128915,-0.16954 0.14854,-0.15986 h 3.41e-4 v 6.9e-4 h 3.41e-4 c 0.0048,0.004 0.007,0.0156 0.004,0.035 -0.152813,0.98549 -0.896287,5.10947 -0.84262,1.82813 0.0035,-0.21701 0.142529,-0.49906 0.144211,-0.51191 v -3.4e-4 h -3.41e-4 c -0.0047,0.005 -0.03475,0.058 -0.108243,0.18118 -0.134851,0.33398 -0.285859,0.6617 -0.404324,1.00182 -0.01895,0.0544 0.0085,0.11679 -0.0047,0.17286 -0.09126,0.38768 -0.220735,0.76568 -0.307739,1.15435 -6.82e-4,0.003 -10e-4,0.005 -10e-4,0.006 v 6.8e-4 6.8e-4 3.4e-4 h 3.41e-4 v 3.4e-4 h 3.41e-4 l 3.41e-4,-3.4e-4 h 3.41e-4 c 0.01028,-0.009 0.06963,-0.14411 0.0796,-0.15353 h 3.41e-4 l 3.41e-4,-3.4e-4 h 3.41e-4 3.41e-4 v 3.4e-4 c 1.28e-4,0.001 1.54e-4,0.004 -6.82e-4,0.007 -0.03202,0.13611 -0.09396,0.26362 -0.14088,0.39534 -0.07211,0.34261 -0.144378,0.68516 -0.216484,1.02779 -0.09354,0.14841 0.01876,-0.0447 -0.06927,0.34905 -0.06611,0.29567 -0.165168,0.58332 -0.225475,0.88025 -0.0093,0.0457 0.0286,0.0933 0.01832,0.13888 -0.170884,0.75631 -0.129969,0.65555 -0.312402,1.02846 -0.313897,1.144 -0.359697,2.31558 -0.372353,3.49138 l 0.007,0.49692 c -0.009,0.1478 -0.02732,0.29523 -0.02698,0.44329 0.0012,0.57868 0.122558,1.14683 -0.05629,1.71722 -0.160294,1.0542 -0.235007,2.0982 -0.161863,3.16666 0.163098,2.38241 0.08348,0.25328 0.306741,2.11388 0.04479,0.37323 0.05261,0.75005 0.07893,1.12503 0.03536,0.34443 0.119956,0.96394 0.09725,1.34753 -0.06364,1.07538 -0.294842,2.12377 -0.454949,3.18299 -0.15146,1.37799 -0.108689,1.13502 -0.241463,1.86375 z M 127.75406,131.3045 c 0.0223,-0.1343 0.0573,-0.34326 0.0943,-0.43629 0.0478,-0.12064 0.109,-0.2481 0.16919,-0.36403 -0.0888,0.26648 -0.17532,0.53361 -0.26344,0.80032 z m -29.646934,-2.1172 c 0.02095,-0.56486 0.0379,-1.12999 0.04962,-1.6949 0.107269,0.34559 0.220795,0.68909 0.34138,1.02979 -0.135179,0.2004 -0.265835,0.42201 -0.391003,0.66511 z m -50.66949,-3.09172 c -0.05883,-0.15807 -0.113668,-0.31751 -0.158533,-0.47993 -0.005,-0.0181 -0.0067,-0.028 -0.0057,-0.0313 v -3.4e-4 -3.4e-4 h 3.41e-4 v -3.4e-4 h 3.41e-4 v -3.4e-4 h 3.41e-4 3.41e-4 l 3.41e-4,3.4e-4 h 3.41e-4 c 0.02179,0.0128 0.169655,0.33647 0.233802,0.45395 -0.02384,0.0194 -0.04776,0.0389 -0.07161,0.0583 z m 13.003004,-1.18267 c 0.01548,-0.1234 0.03128,-0.21556 0.04496,-0.22681 8.5e-5,-5e-5 5.12e-4,-5.1e-4 6.82e-4,-6.8e-4 h 3.41e-4 l 3.41e-4,-3.4e-4 h 3.41e-4 3.41e-4 c 1.69e-4,-1e-5 8.53e-4,-1e-5 0.001,0 h 3.41e-4 3.41e-4 3.41e-4 3.41e-4 l 3.41e-4,3.4e-4 3.41e-4,3.4e-4 c 1.62e-4,1.4e-4 8.52e-4,8.5e-4 10e-4,0.001 0.0054,0.007 0.01069,0.0293 0.01499,0.0709 -0.02172,0.0518 -0.04362,0.10368 -0.06594,0.1552 z m 13.109583,-22.88965 c -0.257343,-0.007 -0.514918,-0.013 -0.772348,-0.0173 0.04482,-0.17165 0.10047,-0.36535 0.168858,-0.56919 0.272509,0.10619 0.467384,0.31349 0.60349,0.5865 z m -1.621962,-0.0949 c -0.07571,-0.0584 -0.156622,-0.10551 -0.241796,-0.14254 -0.03187,-0.0789 -0.06518,-0.15558 -0.09958,-0.23014 0.290061,-0.11228 0.544588,-0.17385 0.767351,-0.19217 -0.04786,0.0517 -0.09485,0.10447 -0.140548,0.1582 -0.103425,0.12159 -0.198031,0.25898 -0.285425,0.40665 z m 64.736259,-5.008093 -3.4e-4,-3.41e-4 v -3.41e-4 c -0.005,-0.02272 0.13415,-0.529986 0.17918,-0.720724 0.0262,-0.02873 0.057,-0.05862 0.0913,-0.08959 -0.0886,0.288318 -0.18841,0.595813 -0.25112,0.767684 -0.009,0.02557 -0.0149,0.03899 -0.0177,0.0423 l -3.4e-4,3.41e-4 -3.4e-4,3.41e-4 h -3.4e-4 v 3.41e-4 z m 36.1944,-29.4884 c -0.30075,-2.552854 -0.64338,-5.084235 -1.01981,-7.583255 -0.14581,-0.968038 -0.30963,-1.9329 -0.48692,-2.895218 0.015,-0.538266 0.0296,-1.082141 0.0433,-1.631953 0.16631,-6.670128 -0.2074,-13.343016 -0.31106,-20.014411 -0.89622,-7.307059 -0.62812,-10.79159 -2.58215,-16.069412 1.28343,-0.394577 3.48356,-1.167003 4.35665,-2.029617 z M 8.1066386e-5,47.471736 V -0.00213153 H 17.772721 c -0.174175,0.34194872 -0.337902,0.68739316 -0.439629,1.05544883 -1.084383,3.9232056 -1.235601,7.4136455 -1.36085,11.5542317 -0.125162,4.137687 -0.07141,8.278407 0.07061,12.416833 -0.257093,0.219114 -0.522816,0.454418 -0.888249,0.77268 -1.94554,2.815416 -0.630157,0.640068 -2.29839,4.545157 -0.434966,0.722429 -0.805731,1.383256 -0.852612,1.470756 -0.963926,1.798687 -1.986705,3.572716 -2.7939709,5.446729 -1.1633908,2.700834 -2.0598907,4.92991 -2.8106234,6.957782 -0.5460111,0.01465 -1.0920724,0.03815 -1.6379484,0.06528 -0.7015765,-0.03488 -1.4034014,-0.0639 -2.1052199,-0.0756 -0.9551861,-0.07523 -1.5854496,-0.06552 -1.4144706,0.153204 -0.047236,0.05983 -0.086701,0.128503 -0.1179003,0.190172 -0.23306365,0.46068 -0.41096066,0.951603 -0.54020988,1.45144 -0.025263,0.0977 -0.050049,0.19554 -0.0742705,0.29342 C 0.33977387,46.687486 0.16527328,47.078044 8.1066386e-5,47.471736 Z M 1.2413648,44.360365 c 0.067742,-0.08576 0.151665,-0.15332 0.2507879,-0.15487 0.3879153,-0.0061 0.7758986,-0.0048 1.1636827,0.0017 0.3752763,0.02955 0.800916,0.07204 1.2476119,0.120232 -0.7917442,0.04256 -1.5834388,0.08665 -2.3753249,0.115569 -0.00138,0.03815 -0.00796,0.07698 -0.012989,0.11557 C 1.3720084,44.478926 1.282968,44.413557 1.2413648,44.3604 Z m 2.878566,0.560527 c -0.7502608,-0.08891 -1.5049643,-0.190895 -2.23511,-0.188508 -0.021191,-0.0082 -0.042544,-0.0169 -0.063613,-0.02565 0.7460055,-0.03364 1.8517586,-0.16086 2.9398474,-0.283759 0.5094463,0.05754 1.022918,0.11583 1.5013972,0.165193 -0.00814,0.02225 -0.016205,0.0444 -0.024313,0.06661 -0.703822,0.06024 -1.4201481,0.194701 -2.118209,0.266109 z M 6.343717,44.366359 c -0.2417492,-0.01281 -0.4833447,-0.02597 -0.7250535,-0.03897 0.2656914,-0.02866 0.5237454,-0.05516 0.7683502,-0.07827 -0.014494,0.03919 -0.02891,0.07819 -0.043297,0.117234 z M 94.864533,30.784844 c -0.0026,-3.41e-4 -0.0051,-8.52e-4 -0.0077,-0.0014 0.0017,-6.3e-5 0.0033,6.5e-5 0.005,0 8.53e-4,5.12e-4 0.0018,8.53e-4 0.0027,0.0014 z m 2.90188,-0.04629 c -0.160431,-0.0054 -0.348312,-0.115674 -0.556196,-0.300746 0.390634,-0.108506 0.741413,-0.245085 1.052776,-0.404325 -0.09046,0.483245 -0.251711,0.692843 -0.464939,0.704737 -0.01045,5.11e-4 -0.02095,6.82e-4 -0.03164,3.41e-4 z m -3.189636,-0.116235 c -0.03171,-0.01494 -0.06181,-0.03294 -0.09159,-0.05162 0.03108,0.01664 0.06054,0.03494 0.09159,0.05162 z m 34.415233,-0.265777 c -0.0283,-0.0125 -0.10564,-0.0277 -0.18251,-0.06195 0.13226,-0.05829 0.26919,-0.116787 0.41265,-0.175184 0.0513,0.005 0.10215,0.0054 0.1522,-0.002 -0.0259,0.02435 -0.0539,0.04733 -0.0723,0.05895 -0.10107,0.06391 -0.205,0.123054 -0.31007,0.180181 z m 0.38234,-0.23913 c 0.0342,-0.03211 0.0648,-0.06711 0.066,-0.0786 0,-1.67e-4 1e-5,-5.11e-4 0,-6.82e-4 v -3.41e-4 l -3.4e-4,-3.41e-4 v -3.41e-4 -3.41e-4 h -3.4e-4 l -3.4e-4,-3.41e-4 -3.4e-4,-3.41e-4 h -3.5e-4 -3.4e-4 -3.4e-4 c -0.002,-3.41e-4 -0.007,3.41e-4 -0.012,0.0023 -0.0694,0.02687 -0.13732,0.05386 -0.20383,0.08093 -0.041,-0.004 -0.0821,-0.01122 -0.12356,-0.01965 0.31052,-0.07735 0.69701,-0.175913 1.16667,-0.303077 0.0189,-0.0051 0.0303,-0.0055 0.0353,-0.0023 l 3.4e-4,3.41e-4 3.4e-4,3.41e-4 v 3.41e-4 h 3.4e-4 v 3.41e-4 l 3.4e-4,3.41e-4 3.4e-4,3.42e-4 v 3.41e-4 l 3.4e-4,3.41e-4 v 3.41e-4 c 0.001,0.0033 -1.7e-4,0.0083 -0.004,0.01432 -0.31369,0.123088 -0.61637,0.21604 -0.85395,0.289755 -0.0232,0.0072 -0.0467,0.01253 -0.0703,0.01598 z m -0.27576,-0.01765 c -0.1604,0.03995 -0.30056,0.07433 -0.42131,0.103912 -0.0408,-0.04608 -0.0658,-0.106919 -0.0573,-0.18884 0.0416,0.0049 0.0844,0.0094 0.12789,0.01398 0.11575,0.01206 0.2338,0.04718 0.35071,0.07094 z m -0.4786,-0.08493 c -1.52279,-0.179681 -1.75822,-0.609916 -1.36518,-1.16668 0.414,-0.02374 0.82736,-0.06348 1.23729,-0.108243 0.028,0.01451 0.0851,0.03503 0.18917,0.06295 0.11473,0.03077 0.49401,0.114674 0.81831,0.183843 -0.64694,0.516615 -0.85913,0.832189 -0.87959,1.02813 z M 92.749321,30.26162 c -0.07455,-0.01786 -0.14868,-0.03809 -0.221812,-0.06161 -0.140973,-0.04535 -0.453967,-0.295869 -0.457947,-0.326725 v -3.41e-4 -3.41e-4 -3.41e-4 l 3.41e-4,-3.41e-4 v -3.41e-4 -3.41e-4 l 3.42e-4,-3.41e-4 h 3.41e-4 l 3.41e-4,-3.41e-4 h 3.41e-4 l 3.41e-4,-3.41e-4 c 0.0043,-6.82e-4 0.01524,0.0031 0.03297,0.01233 0.221275,0.115082 0.433729,0.245762 0.644788,0.379013 z M 14.571094,27.45466 c 0.0015,-0.01676 0.0061,-0.03201 0.008,-0.03464 h 3.41e-4 v -3.41e-4 h 3.41e-4 v 3.41e-4 c 1.61e-4,0.0027 -0.0018,0.01475 -0.0087,0.03464 z m 27.887752,-0.25112 c -10e-4,-6.82e-4 -0.0023,-0.0014 -0.0033,-0.002 0.06776,-0.01623 0.155827,-0.03721 0.267441,-0.06361 l -3.41e-4,3.41e-4 c -0.08817,0.02258 -0.183102,0.04587 -0.263778,0.06528 z M 169.7129,16.27678 c -0.0167,-1.233435 -0.10894,-2.473079 -0.0812,-3.70287 0.16519,1.210882 0.30043,2.422055 0.10658,3.615276 -0.005,0.032 -0.0136,0.06113 -0.0253,0.08759 z m 3.14602,-1.856098 c -0.48152,-1.51604 -1.31651,-2.970647 -1.82346,-4.4822108 -0.0779,-0.00854 -0.15304,-0.017497 -0.22581,-0.026644 0.11644,-0.1024823 0.1583,-0.2038801 0.0446,-0.313069 -0.83227,-0.802235 -2.17908,-0.8232775 -3.32219,-0.9951573 -2.28421,-0.3434561 -4.6099,-0.3118396 -6.90816,-0.5432079 -1.9486,-0.1961707 -3.44635,-0.3541718 -4.60011,-0.4819255 -0.78898,-0.3110142 -1.68527,-0.5420023 -2.55484,-0.7153946 -0.0866,-0.7682413 -0.12566,-1.538991 -0.25179,-2.304052 -0.66023,-1.7784472 -0.96864,-1.2329475 -3.37248,-0.7014067 -2.31354,-0.5115743 -2.68621,-1.0362003 -3.29954,0.5105681 -0.0462,-0.2015337 -0.0496,-0.464863 -0.15953,-0.3700218 -0.29403,0.2536096 -0.27569,0.7261222 -0.41365,1.0890793 -0.10874,0.3379551 -0.22211,0.6744556 -0.3264,1.0138107 -3.65986,-0.119763 -7.33076,0.014972 -10.98737,0.1808459 -0.69835,-0.7657994 -1.34712,-1.4162966 -1.9377,-1.927037 -0.0593,-0.1963208 -0.12729,-0.3901452 -0.20482,-0.5811747 -0.59662,-1.4699089 -2.6661,-1.8220548 -4.19346,-2.2507654 -2.6327,-0.73897621 -5.34966,-1.11255686 -8.05785,-1.52505073 h 52.59453 z M 32.113595,11.851855 c -0.0093,-3.42e-4 -0.0187,-0.001 -0.02831,-0.0023 -0.05353,-0.283497 -0.118889,-0.565256 -0.1995,-0.844285 0.0194,0.01304 0.03876,0.02611 0.05829,0.03897 0.0657,0.272558 0.13178,0.543283 0.195835,0.807651 -0.0086,3.41e-4 -0.01741,3.41e-4 -0.02631,0 z m -1.09874,-4.1098599 c -0.05939,-0.1212637 -0.117822,-0.239724 -0.175517,-0.3553655 0.111563,5.116e-4 0.226174,0.00171 0.343376,0.003 -0.06907,0.1166613 -0.12501,0.2341581 -0.167859,0.3523677 z M 31.921423,6.5589954 C 31.679842,6.4053546 31.512481,6.3968234 31.404526,6.5020443 31.069965,6.394535 30.761877,6.2747344 30.499958,6.1333559 30.441942,6.2193657 30.38346,6.3049015 30.324773,6.3904714 29.096015,4.1095934 28.250081,3.3453611 27.278016,4.0977438 27.104908,3.099877 26.883282,2.0917481 26.59626,1.0533173 26.49453,0.68526163 26.330806,0.33981719 26.156631,-0.00213153 h 23.49047 C 49.240632,0.14675164 48.816768,0.30750319 48.371846,0.48179421 46.20479,1.3307404 45.331757,1.9766966 43.864324,3.1655281 42.630529,3.3553231 41.398818,3.5566334 40.171779,3.7853415 38.770323,4.0465598 37.400139,4.4541887 36.014295,4.7884929 35.414441,4.9331948 34.867466,5.094637 34.373348,5.2697533 32.986204,3.5967829 32.626543,4.4985262 32.566543,6.103714 32.325131,6.2510846 32.110062,6.4031787 31.921423,6.5589954 Z" /></clipPath><linearGradient
       inkscape:collect="always"
       xlink:href="#linearGradient221"
       id="linearGradient223"
       x1="-5.0800886"
       y1="320.0325"
       x2="1285.1694"
       y2="320.0325"
       gradientUnits="userSpaceOnUse" /></defs><rect
     style="fill:url(#linearGradient223);stroke:#000000;stroke-width:10.0744;stroke-dasharray:2.00263, 4.00525;stroke-opacity:0.0471976;fill-opacity:1"
     id="rect218"
     width="1280.175"
     height="640.06512"
     x="-0.042888429"
     y="-4.9248447e-05" /><path
     fill="url(#linearGradient56)"
     id="path58"
     d="m 86.43,3.11601 v 3.117 c 44.293,0 80.199,35.906 80.199,80.199 h 3.117 c 0,-46.016 -37.301,-83.316 -83.316,-83.316 z m -58.379,83.316 h -3.11 c 0,33.961 27.528,61.488 61.489,61.488 v -3.117 c -32.239,0 -58.375,-26.133 -58.375,-58.371 h 6.226 c 0,-28.801 23.348,-52.148 52.149,-52.148 v -3.118 c 30.523,0 55.261,24.743 55.261,55.266 h 3.118 c 0,-32.242 -26.137,-58.379 -58.379,-58.379 -32.239,0 -58.379,26.137 -58.379,58.379 z m 58.379,-48.941 c 27.031,0 48.941,21.91 48.941,48.941 h -3.031 c 0,-25.355 -20.555,-45.914 -45.91,-45.914 v 3.117 c 23.636,0 42.797,19.16 42.797,42.797 0,23.602 -19.196,42.805 -42.797,42.805 v -3.125 c -21.914,0 -39.68,-17.766 -39.68,-39.68 h -3.125 c 0,23.641 19.164,42.805 42.805,42.805 v 6.152 c -27.039,0 -48.957,-21.918 -48.957,-48.957 h -3.184 c 0,28.797 23.348,52.141 52.141,52.141 v -3.184 c 27.086,0 48.941,-21.875 48.941,-48.957 h 3.203 c 0,-28.801 -23.344,-52.144 -52.144,-52.144 z m 36.562,48.941 h 3.117 c 0,-21.914 -17.765,-39.68 -39.679,-39.68 v 3.118 c 20.195,0 36.562,16.371 36.562,36.562 z M 86.43,52.92801 v 3.156 c 16.761,0 30.347,13.586 30.347,30.348 h 3.157 c 0,-18.504 -15,-33.504 -33.504,-33.504 z m -30.34,33.504 h -3.121 c 0,18.48 14.98,33.461 33.461,33.461 v -3.121 c -16.754,0 -30.34,-13.586 -30.34,-30.34 z m 6.238,0 c 0,13.309 10.793,24.102 24.102,24.102 v 3.004 c 15.031,0 27.144,-12.075 27.144,-27.106 0,-14.992 -12.152,-27.144 -27.144,-27.144 v 3.039 c -13.313,0 -24.106,10.793 -24.106,24.105 z m -46.738,0 c 0,39.125 31.719,70.84 70.84,70.84 39.187,0 70.843,-31.652 70.843,-70.84 0,-39.129 -31.714,-70.848 -70.843,-70.848 v 3.118 c 37.406,0 67.73,30.324 67.73,67.73 h -3.117 c 0,-35.684 -28.926,-64.613 -64.613,-64.613 v 3.117 c 33.965,0 61.496,27.531 61.496,61.496 h 3.117 c 0,35.742 -28.867,64.641 -64.613,64.641 v 3.082 c -37.403,0 -67.723,-30.321 -67.723,-67.723 z m -9.348,0 c 0,44.285 35.903,80.188 80.188,80.188 v -3.118 c -42.567,0 -77.075,-34.504 -77.075,-77.07 z m 157.266,0 c 0,-42.57 -34.508,-77.078 -77.078,-77.078 v 3.113 c 40.847,0 73.961,33.117 73.961,73.965 z m 9.344,0 c 0,47.73 -38.692,86.422 -86.422,86.422 -47.731,0 -86.422,-38.692 -86.422,-86.422 H 0 c 0,-47.734 38.695,-86.434 86.43,-86.434 47.734,0 86.429,38.7 86.429,86.434 h -0.007"
     style="fill:url(#radialGradient31);fill-opacity:1"
     clip-path="url(#clipPath1127)"
     transform="matrix(3.4183088,0,0,-3.540877,2.1934885,615.88143)" /><path
     style="fill:#000000;fill-opacity:1;stroke-width:0.455136"
     d="m 125.14754,518.88379 -2.18562,-2.26398 V 480.82416 445.0285 l -1.99094,-0.9105 c -4.18234,-1.91269 -4.32357,-9.756 -0.21061,-11.69719 l 2.20155,-1.03905 v -26.88843 -26.88842 l -2.67134,-2.04583 c -2.05203,-1.57151 -2.67132,-2.76883 -2.67132,-5.1645 0,-2.33289 0.67307,-3.70536 2.67132,-5.44707 l 2.67134,-2.32836 v -25.88594 c 0,-17.39269 -0.30545,-25.88592 -0.93093,-25.88592 -1.69247,0 -5.30218,-4.49107 -5.30218,-6.59676 0,-1.13783 2.65842,-7.89549 5.90759,-15.01705 18.78019,-41.1624 29.26941,-74.68252 51.48028,-164.51415 l 8.50489,-34.397955 V 71.519348 52.717328 l 2.3462,-1.911688 c 3.11233,-2.53594 6.15376,-2.414516 8.82482,0.352309 2.17882,2.256943 2.18562,2.323147 2.18562,21.229083 v 18.965085 l 10.74149,44.489843 c 20.30409,84.09682 28.76738,111.61167 45.10571,146.64242 l 6.77555,14.52734 h 46.00841 46.00839 l 7.21155,-15.44971 c 14.22392,-30.47273 24.71116,-61.55643 34.94211,-103.56701 1.54018,-6.32432 3.43325,-12.22513 4.20682,-13.11292 3.00983,-3.45418 9.55697,-1.60366 11.1822,3.16058 0.51485,1.50927 -4.77286,23.9563 -10.1338,43.0193 -7.40529,26.33245 -16.67792,52.0647 -26.28604,72.94564 -3.1283,6.79861 -5.68781,12.50579 -5.68781,12.68261 0,0.17684 24.24231,0.32151 53.87179,0.32151 29.62949,0 53.87179,-0.35698 53.87179,-0.79329 0,-0.43631 -2.57344,-6.351 -5.71875,-13.14377 -15.36418,-33.18127 -25.36977,-65.33981 -40.53754,-130.28998 -3.89361,-16.67283 -7.21857,-30.45853 -7.38882,-30.63489 -0.17025,-0.17635 -1.62899,5.37126 -3.24166,12.328 -1.61267,6.95677 -8.92941,36.14839 -9.16876,37.05334 -0.64852,2.45199 -3.92865,5.27244 -6.13174,5.27244 -3.37604,0 -6.63051,-3.42979 -6.63051,-6.98767 0,-1.74036 8.60636,-37.80907 12.03456,-52.33574 l 6.23311,-26.412159 V 72.244973 c 0,-18.75511 0.008,-18.831188 2.18563,-21.087024 2.67105,-2.766825 5.7125,-2.888249 8.82481,-0.352309 l 2.3462,1.911688 v 18.883159 18.883162 l 3.63075,14.947031 c 1.9969,8.22085 6.40934,26.98397 9.80539,41.69577 15.9358,69.03435 26.17254,101.1011 44.20156,138.46204 9.33561,19.34585 9.69454,21.20462 4.66696,24.16774 l -2.63374,1.55223 -0.006,25.65534 -0.006,25.65535 2.67133,2.32836 c 3.6109,3.14733 3.6109,6.9717 0,10.46573 l -2.67133,2.58487 v 26.69183 26.69182 l 2.20154,1.03905 c 4.11296,1.94119 3.97173,9.7845 -0.21061,11.69719 -1.91716,0.87677 -1.99093,24.86093 -1.99093,36.68143 0,11.80309 -0.084,12.36228 -2.18563,14.5392 -2.80455,2.90512 -6.66832,2.95918 -9.23491,0.12922 -1.78575,-1.969 -1.9361,-3.07924 -1.9361,-14.29675 v -35.65767 h -52.53599 -52.53613 v 30.89942 30.89943 h 52.53613 52.53612 v -9.14827 c 0,-5.03156 0.26032,-9.85096 0.57848,-10.70984 0.88465,-2.388 5.5173,-4.07716 8.36333,-3.04945 3.74297,1.35158 4.41483,4.2191 4.41483,18.84221 0,12.96859 -0.0661,13.44133 -2.18563,15.63686 l -2.18564,2.26403 h -72.04625 c -70.2981,0 -72.10029,-0.0439 -74.2732,-1.81454 -2.11554,-1.72368 -2.25064,-2.40438 -2.70023,-13.60495 -0.57547,-14.33685 -1.96821,-18.86426 -7.85576,-25.53718 -5.85639,-6.63759 -11.54337,-9.20256 -20.40362,-9.20256 -8.86025,0 -14.54723,2.56497 -20.40361,9.20256 -5.88756,6.67292 -7.28029,11.20033 -7.85577,25.53718 -0.44959,11.20057 -0.58468,11.88127 -2.70022,13.60495 -2.17292,1.77056 -3.9751,1.81454 -74.27321,1.81454 H 127.33255 Z M 241.3908,476.41285 v -30.89942 h -31.93586 c -30.96034,0 -54.60876,0.42267 -56.88328,-1.43063 -48.43391,-9.21363 39.06368,-12.36672 56.51611,-12.40494 h 32.30303 v -27.20994 -27.20994 h -52.53613 -52.53612 v 27.20994 27.20994 h 11.57576 c 10.38851,0 62.68859,-0.1315 64.28682,1.52403 2.47528,2.56404 -48.63665,7.2525 -51.33493,10.04753 -2.08826,2.16314 -2.68332,2.26401 -13.35664,2.26401 h -11.17101 v 30.89942 30.89943 h 52.53612 52.53613 z m 21.63243,22.82868 c 1.46376,-22.48436 14.69512,-38.25799 35.13783,-41.88923 19.59065,-3.47989 39.1275,8.70473 45.70372,28.5042 0.96647,2.90985 2.00646,8.92779 2.31108,13.37321 l 0.55386,8.08257 h 3.42845 3.42842 v -98.2325 -98.23249 h -48.97435 -48.97435 v 98.23249 98.2325 h 3.42996 3.42997 z m -14.25469,-54.12054 c -3.99893,-1.69676 -4.93615,-6.61955 -1.99707,-10.48995 l 1.84551,-2.43032 55.99526,-0.52286 58.01428,-0.39214 1.84552,2.43032 c 2.3007,3.02973 2.34853,5.94538 0.14381,8.76654 l -1.7017,2.17752 -57.10968,0.57778 c -23.49367,0.23769 -55.96301,0.33835 -57.03593,-0.11689 z m 18.79302,-29.43734 c -2.49044,-2.21899 -2.57402,-2.56828 -2.57402,-10.75454 0,-8.12717 0.0986,-8.5489 2.49836,-10.68713 1.3741,-1.22434 3.25509,-2.22606 4.17995,-2.22606 0.92487,0 2.80585,1.00172 4.17995,2.22606 2.39552,2.13443 2.49837,2.57005 2.49837,10.58164 0,7.1366 -0.2598,8.61996 -1.78088,10.1678 -3.00797,3.06086 -6.07835,3.29698 -9.00173,0.69223 z m 32.87073,-0.0674 c -2.39978,-2.13822 -2.49837,-2.55994 -2.49837,-10.68712 0,-8.12717 0.0986,-8.5489 2.49837,-10.68713 1.3741,-1.22434 3.25509,-2.22606 4.17995,-2.22606 0.92486,0 2.80585,1.00172 4.17995,2.22606 2.39977,2.13823 2.49837,2.55996 2.49837,10.68713 0,8.12718 -0.0986,8.5489 -2.49837,10.68712 -1.3741,1.22434 -3.25509,2.22607 -4.17995,2.22607 -0.92486,0 -2.80585,-1.00173 -4.17995,-2.22607 z m 32.94639,0 c -2.39979,-2.13822 -2.49839,-2.55994 -2.49839,-10.68712 0,-8.12717 0.0986,-8.5489 2.49839,-10.68713 1.3741,-1.22434 3.25507,-2.22606 4.17994,-2.22606 0.92487,0 2.80584,1.00172 4.17995,2.22606 2.39978,2.13823 2.49838,2.55996 2.49838,10.68713 0,8.12718 -0.0986,8.5489 -2.49838,10.68712 -1.37411,1.22434 -3.25508,2.22607 -4.17995,2.22607 -0.92487,0 -2.80584,-1.00173 -4.17994,-2.22607 z m -69.32207,-39.69988 c -2.67106,-2.76682 -2.78827,-5.91732 -0.34012,-9.14124 l 1.84552,-2.43032 h 39.05023 39.05022 l 1.84551,2.43032 c 2.44816,3.22392 2.33093,6.37442 -0.34011,9.14124 l -2.18563,2.264 h -38.36999 -38.37 z m 3.20669,-30.88989 c -2.20217,-2.28115 -3.03629,-6.90278 -2.5368,-14.0558 0.44332,-6.34853 2.5174,-9.05493 6.93935,-9.05493 4.32634,0 6.30411,2.57155 6.85978,8.91921 0.91892,10.49732 -1.436,15.9848 -6.85978,15.9848 -1.46922,0 -3.45038,-0.80698 -4.40255,-1.79328 z m 32.94639,0 c -2.24228,-2.32267 -3.07513,-7.13283 -2.45722,-14.19152 0.55565,-6.34766 2.53343,-8.91921 6.85977,-8.91921 4.32633,0 6.30411,2.57155 6.85977,8.91921 0.91892,10.49732 -1.436,15.9848 -6.85977,15.9848 -1.46923,0 -3.45038,-0.80698 -4.40255,-1.79328 z m 32.94638,0 c -2.24226,-2.32267 -3.07513,-7.13283 -2.45722,-14.19152 0.55565,-6.34766 2.53344,-8.91921 6.85977,-8.91921 4.32633,0 6.30412,2.57155 6.85978,8.91921 0.91892,10.49732 -1.43602,15.9848 -6.85978,15.9848 -1.46923,0 -3.45038,-0.80698 -4.40255,-1.79328 z m 139.74985,59.44146 V 377.258 H 420.3698 367.83368 v 27.20994 27.20994 h 52.53612 52.53612 z M 241.3908,337.13485 v -26.28756 h -52.53613 -52.53612 v 26.28756 26.28757 h 52.53612 52.53613 z m -84.9172,8.69558 c -2.25314,-1.83588 -2.3462,-2.27487 -2.3462,-11.06845 0,-10.53238 1.17805,-12.84625 6.54032,-12.84625 4.77124,0 6.30901,2.57413 6.68689,11.19343 0.36519,8.33013 -0.72554,12.05511 -3.97964,13.59094 -3.09103,1.45886 -4.21786,1.31687 -6.90137,-0.86967 z m 56.82778,-0.35231 c -2.00958,-2.08164 -2.18564,-2.96027 -2.18564,-10.90768 0,-7.84252 0.19102,-8.82954 2.06089,-10.64919 2.73758,-2.66403 6.87818,-2.60685 9.35965,0.12926 1.69918,1.87354 1.93611,3.17672 1.93611,10.64919 0,7.81017 -0.18078,8.70168 -2.18564,10.77842 -2.78554,2.88542 -6.19983,2.88542 -8.98537,0 z m 259.60454,-8.34327 V 310.84729 H 420.3698 367.83368 v 26.28756 26.28757 h 52.53612 52.53612 z m -85.9682,8.34327 c -2.00958,-2.08164 -2.18563,-2.96027 -2.18563,-10.90768 0,-7.84252 0.19102,-8.82954 2.06089,-10.64919 2.73757,-2.66403 6.87818,-2.60685 9.35965,0.12926 1.69916,1.87354 1.9361,3.17672 1.9361,10.64919 0,7.81017 -0.18078,8.70168 -2.18563,10.77842 -2.78555,2.88542 -6.19983,2.88542 -8.98538,0 z m 58.65047,1.16754 c -2.99855,-1.50165 -4.07424,-5.41774 -3.71831,-13.5365 0.37787,-8.6193 1.91564,-11.19343 6.68688,-11.19343 5.36227,0 6.54031,2.31387 6.54031,12.84625 0,8.79358 -0.0931,9.23257 -2.34619,11.06845 -2.57648,2.09932 -4.22413,2.28686 -7.16269,0.81523 z M 243.17168,296.52751 c 0,-0.26632 -1.38371,-3.33043 -3.07492,-6.80913 -15.27982,-31.42962 -29.37258,-77.37015 -47.33773,-154.31467 -1.86071,-7.96942 -3.5197,-14.34835 -3.68666,-14.17542 -0.16694,0.17293 -3.10954,11.67418 -6.53908,25.5583 -15.22135,61.62193 -26.5856,98.39875 -41.29004,133.62246 -3.28257,7.86321 -6.17707,14.81557 -6.43222,15.44971 -0.36817,0.91502 10.76477,1.15296 53.94838,1.15296 29.92674,0 54.41227,-0.2179 54.41227,-0.48421 z m -58.76922,-16.11846 c -3.14793,-3.2608 -1.89321,-9.44615 2.24692,-11.07666 2.95292,-1.16294 7.06456,0.48149 8.31566,3.32581 1.41595,3.21911 1.28081,4.38251 -0.83233,7.16527 -2.31247,3.04523 -7.07882,3.33207 -9.73025,0.58558 z m 86.24898,8.38495 c -1.99261,-1.66937 -2.11733,-2.41425 -2.39374,-14.29675 l -0.2916,-12.53562 h -2.18506 c -1.20179,0 -2.42139,0.63794 -2.71025,1.41767 -0.81015,2.18693 -5.33555,4.23397 -7.89122,3.56955 -4.109,-1.06828 -4.88434,-3.49253 -4.88434,-15.2716 0,-10.56476 0.0503,-10.83725 2.34618,-12.70795 1.29041,-1.05142 3.31212,-1.91169 4.4927,-1.91169 3.25628,0 6.51776,3.90224 6.51776,7.79823 0,2.87332 0.27018,3.27021 2.2261,3.27021 h 2.22611 v -16.21243 -16.21244 l 2.60283,-2.69616 c 3.06472,-3.17461 5.21383,-3.3868 8.35766,-0.82518 1.69941,1.38468 2.36708,2.88303 2.5688,5.76482 0.26471,3.78141 0.36257,3.89384 3.38912,3.89384 h 3.11655 l 0.44522,-20.03089 c 0.49326,-22.19241 0.68438,-22.89801 6.2464,-23.06181 3.85649,-0.11359 7.11024,3.59038 7.11024,8.09403 0,2.91494 0.22026,3.17686 2.67134,3.17686 2.45108,0 2.67132,-0.26192 2.67132,-3.17686 0,-4.50365 3.25376,-8.20762 7.11024,-8.09403 5.56204,0.1638 5.75314,0.8694 6.2464,23.06181 l 0.44523,20.03089 h 3.11654 c 3.02657,0 3.12443,-0.11243 3.38913,-3.89384 0.20172,-2.88179 0.86939,-4.38014 2.56879,-5.76482 3.14385,-2.56162 5.29294,-2.34943 8.35767,0.82518 l 2.60284,2.69616 v 16.21244 16.21243 h 2.2261 c 1.95593,0 2.22611,-0.39689 2.22611,-3.27021 0,-3.89599 3.26148,-7.79823 6.51775,-7.79823 1.18058,0 3.20229,0.86027 4.49269,1.91169 2.29588,1.8707 2.3462,2.14319 2.3462,12.70795 0,11.77907 -0.77536,14.20332 -4.88434,15.2716 -2.55567,0.66442 -7.08107,-1.38262 -7.89123,-3.56955 -0.28885,-0.77973 -1.50846,-1.41767 -2.71025,-1.41767 h -2.18505 l -0.29161,12.53562 c -0.27641,11.8825 -0.40112,12.62738 -2.39375,14.29675 -2.84749,2.38557 -6.51064,2.23131 -8.87317,-0.37366 -1.88982,-2.08376 -1.93611,-2.73415 -1.93611,-27.20994 v -25.07516 h -3.56177 -3.56177 v 25.20441 c 0,25.15329 -0.004,25.20849 -2.06088,27.20995 -2.73381,2.66037 -6.39253,2.55656 -9.11012,-0.25849 l -2.18564,-2.26399 v -41.08743 -41.08743 h -2.64494 -2.64492 l -0.24901,41.58877 -0.249,41.58875 -2.10214,1.76269 c -2.84678,2.38704 -6.51013,2.23341 -8.87318,-0.37213 -1.88981,-2.08376 -1.93611,-2.73415 -1.93611,-27.20994 v -25.07516 h -3.56177 -3.56177 v 25.20441 c 0,25.15329 -0.004,25.20849 -2.06089,27.20995 -2.54287,2.47458 -5.97202,2.57037 -8.74839,0.2444 z m 144.44033,-8.97053 c -2.11085,-2.77974 -2.24794,-3.94697 -0.83956,-7.14884 2.9805,-6.77604 12.35069,-4.10315 12.35069,3.52311 0,5.80774 -7.95214,8.31248 -11.51113,3.62573 z"
     id="path32"
     sodipodi:nodetypes="ccccsscccssscssssscccssscsscccssssssssssssssssscssscccsssscccsscccsssssscccccccssssscsssssssssccccssscccccccssssccccccsssscccccccccccssscccsscsssssssssssssssssssssssssssssscccsscccsssssssssssssssssssccccccccccccccccccssssssssssssscccccccccssssssssssssssssssssssssssssscsssssssscccsssscssssssscsssscccsssssssscsssscccscscccccccssscccscsssss" /><text
     xml:space="preserve"
     style="font-weight:300;font-stretch:semi-condensed;font-size:192px;line-height:1.25;font-family:Bahnschrift;-inkscape-font-specification:'Bahnschrift Light Semi-Condensed'"
     x="554.8363"
     y="518.85291"
     id="text218"><tspan
       sodipodi:role="line"
       id="tspan218"
       x="554.8363"
       y="518.85291"
       style="font-size:192px">Tidalueb</tspan></text></svg>
