<?xml version="1.0" encoding="UTF-8" standalone="no"?>
<svg
   width="1024"
   height="1024"
   version="1.1"
   id="svg1"
   sodipodi:docname="logo.svg"
   inkscape:version="1.4.2 (ebf0e940, 2025-05-08)"
   inkscape:export-filename="logo.png"
   inkscape:export-xdpi="96"
   inkscape:export-ydpi="96"
   xml:space="preserve"
   xmlns:inkscape="http://www.inkscape.org/namespaces/inkscape"
   xmlns:sodipodi="http://sodipodi.sourceforge.net/DTD/sodipodi-0.dtd"
   xmlns:xlink="http://www.w3.org/1999/xlink"
   xmlns="http://www.w3.org/2000/svg"
   xmlns:svg="http://www.w3.org/2000/svg"><sodipodi:namedview
     id="namedview1"
     pagecolor="#ffffff"
     bordercolor="#999999"
     borderopacity="1"
     inkscape:showpageshadow="2"
     inkscape:pageopacity="0"
     inkscape:pagecheckerboard="0"
     inkscape:deskcolor="#d1d1d1"
     inkscape:zoom="0.40370211"
     inkscape:cx="497.89187"
     inkscape:cy="772.84708"
     inkscape:window-width="1512"
     inkscape:window-height="921"
     inkscape:window-x="0"
     inkscape:window-y="61"
     inkscape:window-maximized="0"
     inkscape:current-layer="svg1" /><defs
     id="defs1"><linearGradient
       x1="-9.9999997e-06"
       y1="0.5"
       x2="1.00001"
       y2="0.5"
       spreadMethod="pad"
       id="linearGradient3"><stop
         stop-color="#1a2243"
         offset="0"
         id="stop1"
         style="stop-color:#0f7c0d;stop-opacity:1;" /><stop
         stop-color="#1a2243"
         offset="0.5"
         id="stop2"
         style="stop-color:#632a26;stop-opacity:1;" /><stop
         stop-color="#46c1b9"
         offset="1"
         id="stop3"
         style="stop-color:#483f4a;stop-opacity:1;" /></linearGradient><linearGradient
       x1="0.14647"
       y1="0.14645"
       x2="0.85355002"
       y2="0.85354"
       spreadMethod="pad"
       id="linearGradient56-3"><stop
         stop-color="#1a2243"
         offset="0"
         id="stop20"
         style="stop-color:#2c2a29;stop-opacity:1;" /><stop
         stop-color="#46c1b9"
         offset="0.55390835"
         id="stop21"
         style="stop-color:#a56d68;stop-opacity:1;" /><stop
         stop-color="#c5115b"
         offset="1"
         id="stop22"
         style="stop-color:#745106;stop-opacity:1;" /></linearGradient><linearGradient
       x1="0.14647"
       y1="0.14645"
       x2="0.85355002"
       y2="0.85354"
       spreadMethod="pad"
       id="linearGradient56-2"><stop
         stop-color="#1a2243"
         offset="0"
         id="stop17"
         style="stop-color:#2c2a29;stop-opacity:1;" /><stop
         stop-color="#46c1b9"
         offset="0.55390835"
         id="stop18"
         style="stop-color:#a56d68;stop-opacity:1;" /><stop
         stop-color="#c5115b"
         offset="1"
         id="stop19"
         style="stop-color:#745106;stop-opacity:1;" /></linearGradient><linearGradient
       x1="0.14647"
       y1="0.14645"
       x2="0.85355002"
       y2="0.85354"
       spreadMethod="pad"
       id="linearGradient56-1"><stop
         stop-color="#1a2243"
         offset="0"
         id="stop14"
         style="stop-color:#2c2a29;stop-opacity:1;" /><stop
         stop-color="#46c1b9"
         offset="0.55390835"
         id="stop15"
         style="stop-color:#a56d68;stop-opacity:1;" /><stop
         stop-color="#c5115b"
         offset="1"
         id="stop16"
         style="stop-color:#745106;stop-opacity:1;" /></linearGradient><linearGradient
       x1="0.14647"
       y1="0.14645"
       x2="0.85355002"
       y2="0.85354"
       spreadMethod="pad"
       id="linearGradient56"><stop
         stop-color="#1a2243"
         offset="0"
         id="stop11"
         style="stop-color:#2c2a29;stop-opacity:1;" /><stop
         stop-color="#46c1b9"
         offset="0.55390835"
         id="stop12"
         style="stop-color:#a56d68;stop-opacity:1;" /><stop
         stop-color="#c5115b"
         offset="1"
         id="stop13"
         style="stop-color:#745106;stop-opacity:1;" /></linearGradient><linearGradient
       x1="0.14647"
       y1="0.14645"
       x2="0.85355002"
       y2="0.85354"
       spreadMethod="pad"
       id="linearGradient56-4"><stop
         stop-color="#1a2243"
         offset="0"
         id="stop50"
         style="stop-color:#2c2a29;stop-opacity:1;" /><stop
         stop-color="#46c1b9"
         offset="0.55390835"
         id="stop52"
         style="stop-color:#a56d68;stop-opacity:1;" /><stop
         stop-color="#c5115b"
         offset="1"
         id="stop54"
         style="stop-color:#745106;stop-opacity:1;" /></linearGradient><linearGradient
       x1="-9.9999997e-06"
       y1="0.5"
       x2="1.00001"
       y2="0.5"
       spreadMethod="pad"
       id="linearGradient100"><stop
         stop-color="#1a2243"
         offset="0"
         id="stop96"
         style="stop-color:#370d7c;stop-opacity:1;" /><stop
         stop-color="#1a2243"
         offset="0.5"
         id="stop23"
         style="stop-color:#265763;stop-opacity:1;" /><stop
         stop-color="#46c1b9"
         offset="1"
         id="stop98"
         style="stop-color:#483f4a;stop-opacity:1;" /></linearGradient><linearGradient
       x1="4.9999999e-05"
       y1="0.50018001"
       x2="1.0001301"
       y2="0.50018001"
       spreadMethod="pad"
       id="linearGradient164"><stop
         stop-color="#46c1b9"
         offset="0"
         id="stop160"
         style="stop-color:#070707;stop-opacity:1;" /><stop
         stop-color="#c5115b"
         offset="1"
         id="stop162"
         style="stop-color:#723248;stop-opacity:1;" /></linearGradient><clipPath
       clipPathUnits="userSpaceOnUse"
       id="clipPath1127"><path
         id="path1128"
         style="fill:#ff0000;fill-opacity:1;fill-rule:nonzero;stroke:none;stroke-width:0.170522"
         d="m 131.91087,172.85538 -10e-4,-3.3e-4 -9.1526,-3.4e-4 c 0.50254,-0.71166 0.73657,-1.64673 1.0228,-2.53818 1.38113,0.11236 2.76758,0.14859 4.15116,0.0936 0.79563,-0.0316 1.59033,-0.0934 2.38232,-0.18818 0.44025,1.24386 0.99526,2.12159 1.59731,2.63311 z m -16.53735,-6.7e-4 c 0.4779,-0.56619 0.55643,-1.58766 0.50491,-2.63543 0.002,-0.009 0.004,-0.0186 0.006,-0.028 0.0547,0.13673 0.11528,0.27082 0.18717,0.39933 0.31932,0.57084 0.98567,0.72144 1.78316,0.64146 0.008,0.017 0.0168,0.0349 0.0256,0.0536 0.0969,0.16207 0.1845,0.33019 0.2761,0.49591 -0.29227,0.60516 -0.38221,0.94044 -0.32007,1.07309 z m 2.78299,-1.07309 c 0.0373,-0.0771 0.0776,-0.15842 0.12156,-0.24446 0.0666,-0.13044 0.12813,-0.26539 0.18617,-0.40332 0.1372,-0.0294 0.27664,-0.0633 0.41699,-0.10158 0.1521,0.10907 0.31791,0.19664 0.49757,0.25911 0.25473,0.0886 0.49681,0.0988 0.72839,0.0476 -0.5337,0.47736 -1.02631,0.90139 -1.4168,1.19032 -0.0742,-0.0737 -0.14088,-0.14782 -0.19883,-0.22181 -0.12829,-0.16377 -0.23415,-0.34331 -0.33505,-0.52589 z m 0.53388,0.7477 c 0.11167,0.11092 0.24007,0.22037 0.38101,0.32539 h -0.89025 c 0.13785,-0.0661 0.31025,-0.17815 0.50924,-0.32539 z M 8.1066386e-5,172.85372 V 132.57877 C 1.0726377,132.73444 2.2581702,132.58636 3.3948773,132.29335 c 0.45875,0.48658 0.8654109,0.75185 1.2469454,0.76801 0.4324063,0.0183 0.8327425,-0.28335 1.241284,-0.9452 0.4184642,0.0233 0.8269612,0.008 1.2153057,-0.057 0.5537383,2.47107 1.3582258,4.87762 2.5648311,7.15861 0.3725905,0.70436 2.1224265,3.15214 3.1206945,3.49838 1.16525,0.40416 2.447904,0.30375 3.671896,0.45561 0.381515,-0.53274 0.737313,-1.08552 1.110727,-1.62462 0.04058,0.0947 0.082,0.18754 0.121564,0.27743 -0.02898,0.0909 -0.05449,0.18295 -0.0756,0.27643 -0.15382,0.68115 -0.0021,0.50713 0.221145,0.0623 0.07872,0.18109 0.162153,0.36023 0.249123,0.53755 0.127493,0.99162 0.265471,1.98158 0.441961,2.96549 0.208717,1.16359 0.573061,2.29386 0.859607,3.44076 0.825576,3.30439 2.132943,4.95647 3.440424,4.95647 0.01487,0 0.02977,1.7e-4 0.04463,-6.8e-4 0.840193,5.94622 1.73809,11.88735 2.460587,17.84391 0.110457,0.30932 0.220427,0.62505 0.330054,0.94687 z m 55.711225933614,0 c -0.103725,-1.59966 0.01756,-3.09048 0.454615,-4.43659 0.0043,0.0174 0.0094,0.0347 0.01533,0.0516 -0.05488,1.4691 -0.01741,2.93985 0.171521,4.38496 z m 65.053663,-1.82979 c 0.31781,-0.23256 0.61647,-0.5643 0.90257,-0.93754 0.28374,0.0385 0.56777,0.0744 0.85228,0.10691 -0.0142,0.0487 -0.0291,0.0965 -0.045,0.14354 -0.21502,0.6388 -0.91773,0.7147 -1.70988,0.68709 z m -0.29276,-0.014 c -0.47402,-0.027 -0.96229,-0.0702 -1.38416,-0.037 0.80625,-0.23956 1.63455,-0.59701 2.31504,-0.92322 0.0357,0.005 0.0715,0.0103 0.10725,0.0153 -0.34684,0.31529 -0.69779,0.63674 -1.03813,0.94487 z m -80.267124,-6.9398 c 0.5761,-1.05149 1.333128,-2.02961 1.841776,-3.10937 0.12936,0.0849 0.259016,0.16926 0.389002,0.25312 -0.0038,0.0129 -0.0079,0.0258 -0.01233,0.0386 -0.389146,1.1293 -1.47902,1.87916 -2.218457,2.81761 z m -3.392132,-0.39167 c -0.0034,-0.001 -0.02469,-0.0161 -0.05362,-0.0413 0.03459,0.0242 0.05065,0.0369 0.05362,0.0403 l 3.41e-4,3.4e-4 v 3.3e-4 h 3.41e-4 v 3.2e-4 h -3.41e-4 z m 42.416135,-0.47126 c 0.05084,-0.10322 0.101373,-0.20628 0.151203,-0.30941 8.53e-4,0.0146 0.0015,0.0294 0.0023,0.044 0.0037,0.0644 0.0076,0.12877 0.01132,0.19317 -0.05527,0.0232 -0.110348,0.0473 -0.164859,0.0723 z m 44.252581,-2.14419 c 0.0175,-0.1318 0.034,-0.2606 0.0493,-0.38701 0.0123,0.12503 0.0251,0.25005 0.0383,0.37502 -0.0293,0.004 -0.0585,0.008 -0.0876,0.012 z m -68.005831,-3.05409 c -0.975061,-3.86041 -1.946597,-7.72155 -2.923527,-11.58154 -0.05349,-0.871 -0.124606,-2.02058 -0.23247,-3.76481 -0.134798,-2.17991 -0.161876,-4.36929 -0.407656,-6.53947 -0.392883,-3.46909 -0.943143,-6.53392 -2.231447,-9.73777 -0.258033,-0.6417 -0.684669,-1.20191 -1.027131,-1.80281 -0.764796,-0.43926 -1.473952,-1.1992 -2.217459,-1.76084 -7.683453,-28.86377 -5.164409,-16.8216 -10.233679,-39.216509 0.182229,-3.369618 0.389342,-6.739278 0.220148,-10.103789 -0.08002,-1.591205 -0.281207,-3.178759 -0.573515,-4.748652 0.202284,-1.243119 0.110873,-0.764708 0.284424,-3.727848 0.06998,-1.194793 0.147571,-2.38902 0.21482,-3.583969 0.08,-1.421444 0.103895,-2.84668 0.226806,-4.265062 C 37.57907,45.59092 37.15119,56.14181 37.41711,44.040303 37.29949,41.129619 37.192752,36.208192 36.757334,33.171492 c -0.135643,-0.946024 -0.422107,-1.864847 -0.67443,-2.786642 -0.182477,-0.666656 -0.421108,-1.13492 -0.557195,-1.710887 0.06776,-5.11e-4 0.135412,-8.52e-4 0.203162,-0.001 0.830292,-0.157943 1.667074,0.110927 2.498886,0.03464 0.474789,-0.04358 0.943804,-0.14002 1.409475,-0.242463 1.078304,-0.237224 0.418531,-0.327558 1.19832,-0.126558 1.838848,0.06743 3.694681,-0.15082 5.485694,-0.554863 0.176639,-0.05166 0.357705,-0.08988 0.529885,-0.15487 0.01555,-0.0059 0.04125,-0.02371 0.05629,-0.03963 0.04033,-0.0015 0.08064,-0.0038 0.120897,-0.004 1.10481,-0.184843 1.452042,-0.236142 1.462099,-0.226809 v 3.41e-4 3.41e-4 c -0.01787,0.02021 -0.787779,0.176568 -0.817641,0.209156 l -3.41e-4,6.82e-4 -3.41e-4,3.41e-4 -3.42e-4,3.41e-4 v 3.41e-4 3.42e-4 l 3.42e-4,3.41e-4 v 3.41e-4 h 3.41e-4 l 3.41e-4,3.41e-4 3.41e-4,3.41e-4 h 6.82e-4 c 0.0056,0.0024 0.02293,0.0035 0.05329,0.0017 0.392019,0.0307 0.796604,0.113841 1.191326,0.07194 0.225859,-0.02399 0.186813,-0.05046 0.152538,-0.06161 0.03596,0.0072 0.121016,0.02229 0.299413,0.04796 0.734113,0.0083 1.466098,0.06951 2.199474,0.01865 0.140821,0.0088 0.323804,-0.07471 0.422642,0.02598 0.06919,0.0705 -0.316254,0.0253 -0.333383,0.05995 v 3.41e-4 3.41e-4 l -6.82e-4,3.41e-4 v 3.41e-4 6.82e-4 h -3.41e-4 v 3.41e-4 3.41e-4 c 1.67e-4,0.0036 0.0039,0.0082 0.01132,0.01332 0.20071,0.139419 0.475142,0.117186 0.707735,0.19217 0.106665,0.03438 0.199965,0.104508 0.30774,0.135218 0.473604,0.134956 0.975945,0.161126 1.460766,0.213155 0.599286,0.392802 1.083506,-0.211946 1.63162,-0.205826 0.0049,5.4e-5 0.0084,0.0012 0.01,0.002 l 3.41e-4,3.41e-4 h 3.41e-4 l 3.41e-4,0.001 v 0.002 l 6.82e-4,6.82e-4 v 3.41e-4 3.41e-4 h -6.82e-4 v 3.41e-4 c -0.01004,0.01436 -0.172917,0.06551 -0.155535,0.115903 0.02101,0.06092 0.128091,0.01693 0.192502,0.01865 0.259514,0.0065 0.251172,0.0624 0.213822,-0.07527 0.539973,-0.04695 1.12392,0.192304 1.649604,0.01531 0.521567,0.03128 1.0437,0.05561 1.568007,0.04696 0.270873,0.02629 0.579766,0.07118 0.853611,0.0383 0.05128,-0.0062 0.08978,-0.01185 0.118901,-0.01765 0.08248,0.02011 0.158691,0.03657 0.211154,0.04563 2.479731,0.428191 0.462669,0.116873 2.302054,0.184843 0.551879,0.02904 1.105702,0.07877 1.659596,0.0786 0.781554,0.04633 1.560786,-0.0064 2.340355,-0.06161 0.501989,0.01531 0.971212,-0.05668 1.462097,0.03797 0.380434,0.07155 0.763374,-0.01819 1.143032,-0.01499 0.137245,0.0012 0.274062,0.04371 0.410654,0.03031 1.212357,-0.118977 1.448722,-0.168103 1.4591,-0.189507 v -3.41e-4 -6.82e-4 l 6.82e-4,-6.82e-4 3.41e-4,-6.82e-4 v -0.001 l -3.41e-4,-3.41e-4 v -3.41e-4 -3.41e-4 l -6.82e-4,-6.82e-4 -3.41e-4,-3.41e-4 v -3.41e-4 c -0.0087,-0.0086 -0.05889,-0.0118 -0.06328,-0.01366 h -3.41e-4 v -10e-4 h 3.41e-4 c 0.0088,-0.0023 0.116918,-0.0042 0.534548,-0.01698 0.218419,-0.05165 0.443158,-0.114823 0.671433,-0.17352 0.820702,0.538464 1.99086,0.923563 3.510365,1.024801 0.238936,0.01593 0.477257,0.04763 0.716727,0.04763 0.359202,0 0.716325,-0.06239 1.075423,-0.07094 0.537001,-0.01277 1.07583,0.01281 1.612637,0.02398 1.864975,0.101456 3.721044,0.218261 5.591273,0.153536 0.599571,-0.03838 1.199646,-0.06522 1.800143,-0.07627 0.829556,0.6975 2.152983,1.23051 3.970311,1.403478 0.892153,0.08492 0.962498,0.15398 1.791817,0.02398 0.24412,-0.03827 0.43266,-0.1555 0.646787,-0.197834 0.05904,0.03696 0.117957,0.07355 0.177517,0.109575 0.205567,0.04578 0.413739,0.09046 0.623139,0.12656 0.130349,0.156885 0.255427,0.315898 0.36236,0.481593 0.551925,0.226493 0.740971,0.364133 1.341865,0.383675 0.139194,0.0045 0.522384,0.01219 0.411652,-0.07227 -0.350688,-0.267478 -0.734161,-0.495121 -1.126381,-0.711398 1.924254,0.308753 4.121813,0.458319 4.380963,-1.44278 0.345843,-0.335953 0.586636,-0.712251 0.722722,-1.103402 1.378466,-0.08799 0.697506,-0.0607 2.045266,-0.08426 0.44218,0.06199 0.86837,-0.162926 1.30657,-0.150205 0.7672,0.02226 0.99164,0.04899 1.00914,0.07294 3.4e-4,6.82e-4 8.5e-4,0.0022 10e-4,0.003 v 3.41e-4 6.82e-4 c -1.6e-4,5.12e-4 -5.1e-4,0.0015 -6.8e-4,0.002 v 3.42e-4 l -3.4e-4,3.41e-4 c -0.0189,0.02479 -0.23565,0.04667 -0.25078,0.05595 l -3.4e-4,6.82e-4 h -3.4e-4 l -6.8e-4,3.41e-4 6.8e-4,6.82e-4 c 0.01,0.0076 0.23096,0.004 1.02413,-0.01898 0.80519,-0.02328 1.25423,-0.129305 2.12621,-0.261445 1.13186,-0.317492 2.31507,-0.03184 3.45774,-0.110239 0.9742,-0.06685 1.90686,-0.318397 2.84692,-0.549536 -0.52048,1.70011 1.11836,3.605344 4.91551,4.013273 0.48619,0.05223 0.97734,0.101714 1.46876,0.119233 0.49141,0.01752 0.98298,0.0036 1.47009,-0.07094 0.22446,-0.03435 0.64425,-0.182237 0.64512,-0.226806 0.0103,-0.530032 0.0135,-1.060231 0.0117,-1.590324 0.0211,0.529919 0.0541,1.05925 0.10525,1.587324 0.015,0.154889 0.30296,0.07313 0.45694,0.09559 1.09096,0.159089 2.19915,0.184018 3.29688,0.1199 1.00747,-0.06251 1.69882,-0.403789 2.55484,-0.794995 0.0296,0.0035 0.0611,0.0071 0.0939,0.011 0.18515,-0.0338 0.30243,-0.05503 0.37102,-0.06994 -0.0632,0.03383 -0.12684,0.06731 -0.19017,0.100915 -0.79906,0.252738 -1.13483,0.320732 -0.19517,0.105245 0.0647,-0.03587 0.12974,-0.07053 0.19517,-0.105245 0.32034,-0.101323 0.71523,-0.232444 1.13204,-0.386674 0.12344,-0.04567 0.39616,-0.235297 0.43463,-0.296748 0.43481,-0.170647 0.8907,-0.399399 1.2243,-0.715395 0.31915,-0.0012 0.63866,0.0019 0.95686,-0.01965 1.06165,-0.07201 1.28669,-0.0973 1.3019,-0.116567 v -3.41e-4 -0.001 l 3.5e-4,-6.82e-4 v -3.41e-4 l 3.4e-4,-3.41e-4 v -3.41e-4 -3.41e-4 -3.42e-4 -6.82e-4 -6.82e-4 h -3.4e-4 v -3.41e-4 l -3.5e-4,-3.41e-4 h -0.001 v -3.41e-4 -3.41e-4 -3.41e-4 c -0.0281,-0.02612 -0.35233,-0.04889 0.79166,-0.182512 0.88886,-0.103819 1.80247,-0.130565 2.69639,-0.130223 0.76649,0.05565 1.52761,0.09731 2.28307,-0.003 0.99316,0.764396 0.65256,0.70765 0.60549,-0.11357 0.0652,-0.01608 0.13035,-0.03348 0.1955,-0.05229 0.0866,-0.025 0.18973,-0.04166 0.29841,-0.05662 -0.23538,2.520063 -0.3655,5.057545 -0.38234,7.619224 -0.012,1.830274 0.0355,3.655243 0.16386,5.471374 -0.16243,1.027756 -0.37294,2.05028 -0.4323,3.088054 -0.14491,2.533195 0.16936,3.412631 0.45362,5.734484 0.12992,1.06118 0.21333,2.127413 0.33438,3.189638 -0.16901,0.426714 0.3142,0.70043 0.34071,1.075424 0.0129,0.183167 -0.0416,0.365026 -0.0696,0.546536 -0.0558,0.365162 -0.1282,0.727545 -0.18151,1.093077 -0.29193,2.001668 -0.27578,2.157914 -0.49125,4.390619 -0.3427,3.359135 -0.33153,6.731319 -0.25845,10.10146 0.0315,1.45363 0.0101,2.774168 0.24679,4.197451 0.0482,0.29 0.15997,0.565771 0.24013,0.848615 0.38916,1.214993 -0.16973,2.48752 0.0576,3.700871 -0.15623,0.232769 -0.23058,0.523617 -0.33871,0.785004 -0.43222,1.044844 -0.7316,2.111259 -0.94953,3.217278 -0.17827,1.25348 -0.52564,2.472496 -0.61615,3.740172 -0.0814,1.140613 0.0666,2.281949 0.18385,3.413446 -1.7e-4,0.03592 -0.003,0.376082 -0.005,0.743038 -0.14619,0.210687 -0.28076,0.429994 -0.42797,0.639793 -0.10893,0.228611 -0.21779,0.457137 -0.32672,0.685753 0.017,-0.01308 0.0545,-0.05199 0.0633,-0.05495 l 6.8e-4,-3.42e-4 h 3.4e-4 6.8e-4 3.4e-4 v 3.42e-4 h 3.4e-4 v 3.41e-4 3.41e-4 3.41e-4 c -1.4e-4,0.001 -5.1e-4,0.0028 -0.001,0.0047 -0.28984,0.620139 -0.60139,0.987322 -0.68709,1.645941 -6.8e-4,0.0056 -6.8e-4,0.0093 0,0.01132 v 3.41e-4 l 3.4e-4,3.41e-4 v 3.41e-4 h 3.4e-4 v 3.41e-4 h 3.4e-4 l 3.5e-4,3.41e-4 h 3.4e-4 3.4e-4 3.4e-4 3.4e-4 3.4e-4 c 0.0269,-0.0094 0.17955,-0.303897 0.23347,-0.146542 0.13924,-0.157776 0.21964,-0.249589 0.23647,-0.251787 1.7e-4,5e-6 6.8e-4,1.7e-5 0.001,0 h 3.4e-4 6.9e-4 l 3.4e-4,3.41e-4 3.4e-4,3.41e-4 3.4e-4,6.82e-4 3.4e-4,0.001 v 3.41e-4 c 0.008,0.03705 -0.29971,0.528687 -0.97451,1.733534 0.034,-0.123737 0.0536,-0.208439 0.0493,-0.221479 v -3.41e-4 h -3.4e-4 v -3.41e-4 -6.82e-4 -6.83e-4 h -3.4e-4 v -3.41e-4 h -3.4e-4 -3.4e-4 -3.5e-4 -6.8e-4 -3.4e-4 l -3.4e-4,3.41e-4 -3.4e-4,6.83e-4 c -0.006,0.0045 -0.0196,0.03117 -0.0423,0.08493 -0.0437,0.103535 -0.15682,0.380763 -0.15454,0.400327 v 10e-4 3.41e-4 h 3.4e-4 v 3.41e-4 h 3.4e-4 3.4e-4 l 3.4e-4,-3.41e-4 c 0.002,-0.0021 0.007,-0.0094 0.015,-0.02232 0.0464,-0.08346 0.0915,-0.163974 0.13489,-0.241462 -0.0178,0.06473 -0.0395,0.14016 -0.0636,0.221813 -0.30681,0.370501 -0.591,0.761205 -0.68409,0.954194 -0.0468,0.09693 -0.57021,1.439408 -0.51756,1.716548 -0.0801,0.203112 -0.171,0.4024 -0.24013,0.609484 -0.0356,0.106519 -0.0254,0.22716 -0.0733,0.328722 -0.095,0.20139 -0.23594,0.377852 -0.35037,0.568848 -0.54647,0.91209 -1.05044,1.84338 -1.27725,2.89522 -0.047,0.30758 -0.0393,0.62616 -0.12756,0.92455 -0.29239,0.98867 -0.75259,1.92935 -0.88092,2.96183 0.071,-0.0456 0.10289,-0.0689 0.11157,-0.0696 h 3.4e-4 3.4e-4 3.4e-4 3.5e-4 l 3.4e-4,3.4e-4 h 3.4e-4 v 3.4e-4 l 3.4e-4,3.4e-4 v 3.4e-4 c 0.002,0.0139 -0.0675,0.1101 -0.0959,0.29142 -0.61063,0.99203 -1.15163,1.99741 -1.40081,3.15133 -0.19172,1.29112 -0.35212,2.64431 -0.69641,3.91103 -0.41107,1.51238 -0.46942,1.19107 -1.21264,2.87423 -0.23774,0.5384 -0.44877,1.08816 -0.66511,1.63562 -0.69652,1.32357 -1.21263,2.73906 -1.63228,4.17048 0.0214,0.12762 -0.18381,0.59786 -0.15354,0.63646 l 3.4e-4,3.4e-4 c 1.6e-4,1.4e-4 8.5e-4,8.6e-4 0.001,0.001 v 3.4e-4 h 3.4e-4 3.5e-4 3.4e-4 v 3.4e-4 h 3.4e-4 3.4e-4 6.8e-4 3.4e-4 l 3.4e-4,3.4e-4 c 0.006,-1e-5 0.0176,-0.007 0.0333,-0.0233 0.17784,-0.18677 0.14593,-0.50391 0.29209,-0.71639 0.0309,-0.0449 0.0752,-0.10305 0.12656,-0.16686 -0.0646,0.27079 -0.12415,0.54228 -0.18018,0.81498 -0.65648,0.97085 -0.37144,-0.44696 -0.59883,1.86509 0.0238,0.1138 0.0401,0.22963 0.0616,0.34404 4e-5,8.5e-4 -4e-5,0.002 0,0.002 -0.06,0.58848 -0.11873,1.18134 -0.13123,1.77417 -0.0645,0.21751 -0.126,0.43538 -0.17152,0.65744 -0.0495,0.2413 -0.27495,0.60735 -0.0653,0.73638 0.48383,0.29751 0.97683,0.58385 1.47842,0.85527 -0.12028,0.58834 -0.20259,1.17472 -0.23214,1.80048 -0.0108,0.0327 -0.0217,0.0652 -0.0326,0.0979 -0.0594,0.1171 -0.11458,0.23636 -0.16586,0.35703 -0.0455,0.10716 -0.11658,0.41081 -0.11091,0.43097 v 3.4e-4 h 3.5e-4 v 3.4e-4 h 3.4e-4 3.4e-4 10e-4 v -3.4e-4 h 3.4e-4 l 10e-4,-0.001 c 0.002,-0.003 0.006,-0.0117 0.01,-0.0243 0.0919,-0.25299 0.17863,-0.50764 0.26378,-0.76302 0.0102,-0.0202 0.0208,-0.0402 0.0313,-0.0603 -1.3e-4,0.008 1.7e-4,0.0126 6.8e-4,0.0147 v 3.4e-4 6.9e-4 h 3.4e-4 v 3.4e-4 h 3.4e-4 v -3.4e-4 l 6.8e-4,-6.9e-4 c 0.002,-0.003 0.004,-0.0149 0.007,-0.0333 0.0638,-0.12111 0.13187,-0.23971 0.20416,-0.3557 0.0491,-0.0789 0.20493,-0.26707 0.23247,-0.26478 l 3.4e-4,3.5e-4 h 3.4e-4 3.4e-4 v 6.8e-4 h 3.4e-4 l 0.001,3.4e-4 6.9e-4,6.8e-4 3.4e-4,3.4e-4 v 3.4e-4 6.8e-4 l 3.4e-4,3.5e-4 3.4e-4,3.4e-4 v 3.4e-4 3.4e-4 l 3.4e-4,3.4e-4 v 3.4e-4 c 6.8e-4,0.003 -8.5e-4,0.0115 -0.003,0.021 -0.97514,2.76879 -0.84882,3.21021 -1.03646,2.11555 0.0195,1.29959 -0.29023,1.09245 -0.51523,2.17116 0.0159,0.41219 0.0128,0.003 -0.33971,0.96419 -0.0951,0.25904 -0.15047,0.53213 -0.25379,0.788 -0.57165,1.41575 -0.23027,0.39811 -0.64512,1.76451 -0.47126,1.43787 -0.90114,2.89411 -1.11805,4.39428 -0.43623,1.20467 -0.63772,2.41825 -0.61948,3.70187 0.006,0.39354 0.051,0.78612 0.0563,1.17967 0.005,0.3361 -0.0178,0.67181 -0.027,1.00781 0.007,0.36364 3.4e-4,0.72797 0.021,1.09108 0.043,0.75694 0.2228,1.54861 0.17152,2.31171 -0.0116,0.17228 -0.0603,0.33985 -0.0863,0.51057 -0.0388,0.25643 -0.0718,0.51382 -0.10757,0.77068 -0.0715,0.56925 -0.21089,1.63072 -0.27011,2.29839 -0.14979,-0.92752 -0.37108,-2.02765 -0.68009,-3.41411 -0.77133,-3.46079 -2.2122,-6.73883 -3.1933,-10.14609 -0.71061,-2.46787 -1.23137,-4.98674 -1.87974,-7.47168 -1.12026,-4.29353 -1.2204,-4.52049 -2.31371,-8.09515 -0.3095,-1.01193 -0.6716,-1.88105 -1.0661,-2.6048 0.0194,-0.42939 0.0481,-0.85856 0.0679,-1.28791 0.0148,-1.4178 0.0396,-2.24941 -0.008,-3.65924 -0.0178,-0.52583 -0.0842,-1.04987 -0.0863,-1.576 -0.005,-1.41458 0.1715,-2.54505 0.1895,-3.97631 0.008,-0.66546 -0.0425,-1.33047 -0.0639,-1.99564 -0.0566,-0.49016 -0.0963,-0.98248 -0.16952,-1.47043 -0.0453,-0.30165 -0.092,-0.60559 -0.18551,-0.89591 -0.0357,-0.11083 -0.0801,-0.28545 -0.1965,-0.28908 -0.007,-1.7e-4 -0.0141,-5.1e-4 -0.0213,-6.8e-4 -0.0569,-0.75388 -1.30683,-0.74743 -2.76733,-0.56952 0.0266,-0.41584 0.0543,-0.83146 0.0856,-1.24694 0.054,-0.71794 0.1566,-1.43304 0.17152,-2.15285 0.025,-1.20374 -0.11659,-2.01688 -0.26578,-3.17265 -0.0181,-0.10616 0.0458,-0.27852 -0.0543,-0.3184 -0.088,-0.0351 -0.0766,0.20061 -0.16653,0.23047 -1.67843,0.55744 -3.38996,1.00915 -5.08503,1.51372 -0.16933,0.0504 -0.32125,0.0927 -0.45662,0.12756 -0.002,-0.008 -0.003,-0.0156 -0.005,-0.0236 -0.0505,-0.23959 -0.10423,-0.47076 -0.16087,-0.69375 2.31419,-1.73948 8.91993,-5.465263 4.67272,-4.318017 -4.18203,1.129642 -4.9854,0.42594 -5.49136,2.017297 -1.84214,-3.729821 -4.876128,-2.716205 -6.188095,2.99447 -0.101678,0.44258 -0.217444,0.88253 -0.333718,1.32254 -1.078751,0.0923 -2.156286,0.19363 -3.225939,0.35737 -0.142748,0.0219 -0.198974,0.21174 -0.275767,0.33405 -0.159875,0.25462 -0.29926,0.52239 -0.431635,0.79233 -0.409409,0.83485 -0.752917,1.70064 -1.066433,2.57749 -0.313708,0.047 -0.626491,0.10354 -0.938872,0.16586 -0.0182,-0.36069 -0.03877,-0.72151 -0.06128,-1.08176 -0.13637,-2.18202 -0.438516,-4.36656 -0.978173,-6.48518 -0.582943,-2.28857 -2.277746,-3.677803 -3.786131,-5.336487 -1.27572,0.735322 -2.607344,1.383133 -3.866398,2.144521 -1.197288,-0.247735 -2.525494,0.461085 -3.719856,0.844619 -0.904086,0.290321 -2.388486,2.290397 -2.754335,2.821617 -0.07165,0.10405 -0.142119,0.20887 -0.211489,0.3144 -0.953579,-0.0484 -1.907062,-0.0939 -2.861248,-0.12123 -0.166169,-0.28808 -0.349861,-0.55131 -0.573182,-0.75803 0.06279,-0.17337 0.134634,-0.3515 0.216818,-0.52789 0.09681,-0.2078 0.579135,-0.61308 0.588836,-0.6268 v -3.4e-4 h -3.41e-4 c -0.0025,10e-4 -0.01572,0.0113 -0.0423,0.032 -0.367099,0.28494 -0.739764,0.57059 -1.080753,0.88692 -0.101099,-0.0584 -0.209374,-0.10651 -0.32639,-0.14222 -0.545536,-0.16648 -1.008688,-0.2693 -1.403813,-0.31806 -1.821949,-2.070239 -5.09227,-0.635485 -5.745475,4.23808 -0.202364,1.50981 -0.254982,3.0205 -0.05928,4.51718 -0.05258,0.17641 -0.09865,0.36368 -0.140548,0.59217 -0.110991,0.21142 -0.314515,0.61302 -0.355033,0.81864 -0.02634,0.13366 -0.03574,0.26993 -0.05362,0.40499 -0.696773,1.45343 0.152156,-0.32847 -0.642124,1.38183 0.02901,-0.0628 0.09613,-0.20966 0.09725,-0.22214 v -3.4e-4 -3.4e-4 h -3.41e-4 -3.41e-4 l -3.41e-4,3.4e-4 -3.41e-4,3.4e-4 h -3.41e-4 c -0.0012,0.002 -0.0028,0.005 -0.005,0.009 -0.527303,0.8766 -0.892482,1.65531 -1.050778,2.6804 0.07625,0.27976 0.02,0.0432 -0.304075,0.73072 -0.156087,0.33113 -0.340829,0.64906 -0.479595,0.98782 -0.416851,1.01761 -0.662995,2.10543 -0.858606,3.1833 -0.07885,1.065 0.02978,-0.009 -0.303078,1.60365 -0.06822,0.33054 -0.109962,0.66616 -0.164861,0.99916 0.02643,-0.0449 0.07052,-0.1692 0.08893,-0.17752 l 3.41e-4,-3.4e-4 h 3.41e-4 3.41e-4 3.42e-4 c 1.7e-4,0 5.11e-4,-1e-5 6.82e-4,0 h 3.41e-4 3.41e-4 3.41e-4 l 3.41e-4,3.4e-4 3.41e-4,3.5e-4 3.41e-4,3.4e-4 3.41e-4,3.4e-4 c 0.0014,0.002 0.0034,0.006 0.004,0.0123 0.04145,0.41103 -0.908438,0.70695 -0.336381,1.19266 -0.180536,0.5411 -0.202685,0.92519 -0.231138,1.43445 -0.288301,0.66043 -0.612629,1.30117 -0.753363,2.01696 -0.01594,0.0811 0.0674,0.16022 0.05429,0.2418 -0.126565,0.78734 -0.184531,1.01663 -0.208823,1.03512 -1.71e-4,1.2e-4 -5.12e-4,1.7e-4 -6.82e-4,3.4e-4 h -3.41e-4 -3.42e-4 -3.41e-4 -3.41e-4 -3.41e-4 -3.41e-4 l -6.82e-4,-3.4e-4 c -0.02909,-0.0186 0.0067,-0.44701 -0.01965,-0.11157 -0.102085,0.29413 -0.204324,0.58811 -0.306409,0.88225 0.03709,-0.01 0.115449,-0.0664 0.111239,-0.0283 -0.01946,0.17605 -0.109281,0.33672 -0.16386,0.50523 -0.02195,0.0678 -0.02974,0.0959 -0.02931,0.10092 h 6.82e-4 v 3.4e-4 3.4e-4 h 3.41e-4 c -0.06318,0.15697 -0.188573,0.47352 -0.421644,1.07176 -0.01932,0.0496 0.02717,-0.0744 0.05329,-0.14488 -0.04416,0.11647 -0.100709,0.22956 -0.125891,0.35137 -0.06363,0.30781 -0.113683,0.61797 -0.162531,0.92855 0.01137,-0.0171 0.02336,-0.0348 0.03564,-0.053 -0.01277,0.0245 -0.02567,0.0496 -0.03897,0.0749 0.0012,-0.007 0.002,-0.014 0.003,-0.021 -0.02492,0.0376 -0.04696,0.0714 -0.06295,0.0966 -0.110854,0.17455 -0.181435,0.37169 -0.272103,0.55753 0.125187,-0.23846 0.235338,-0.44836 0.331719,-0.6328 -0.006,0.0382 -0.012,0.0761 -0.01798,0.11424 -0.04465,0.14186 -0.08694,0.48781 -0.08393,0.50524 v 3.4e-4 h 3.41e-4 l 3.41e-4,-3.4e-4 c 10e-4,-0.002 0.0036,-0.0126 0.007,-0.0323 0.02682,-0.15747 0.05181,-0.31542 0.0766,-0.47327 0.0017,-0.005 0.0033,-0.0103 0.005,-0.015 0.02228,-0.0627 0.0597,-0.15073 0.105578,-0.25146 0.06568,-0.0918 0.128915,-0.16954 0.14854,-0.15986 h 3.41e-4 v 6.9e-4 h 3.41e-4 c 0.0048,0.004 0.007,0.0156 0.004,0.035 -0.152813,0.98549 -0.896287,5.10947 -0.84262,1.82813 0.0035,-0.21701 0.142529,-0.49906 0.144211,-0.51191 v -3.4e-4 h -3.41e-4 c -0.0047,0.005 -0.03475,0.058 -0.108243,0.18118 -0.134851,0.33398 -0.285859,0.6617 -0.404324,1.00182 -0.01895,0.0544 0.0085,0.11679 -0.0047,0.17286 -0.09126,0.38768 -0.220735,0.76568 -0.307739,1.15435 -6.82e-4,0.003 -10e-4,0.005 -10e-4,0.006 v 6.8e-4 6.8e-4 3.4e-4 h 3.41e-4 v 3.4e-4 h 3.41e-4 l 3.41e-4,-3.4e-4 h 3.41e-4 c 0.01028,-0.009 0.06963,-0.14411 0.0796,-0.15353 h 3.41e-4 l 3.41e-4,-3.4e-4 h 3.41e-4 3.41e-4 v 3.4e-4 c 1.28e-4,0.001 1.54e-4,0.004 -6.82e-4,0.007 -0.03202,0.13611 -0.09396,0.26362 -0.14088,0.39534 -0.07211,0.34261 -0.144378,0.68516 -0.216484,1.02779 -0.09354,0.14841 0.01876,-0.0447 -0.06927,0.34905 -0.06611,0.29567 -0.165168,0.58332 -0.225475,0.88025 -0.0093,0.0457 0.0286,0.0933 0.01832,0.13888 -0.170884,0.75631 -0.129969,0.65555 -0.312402,1.02846 -0.313897,1.144 -0.359697,2.31558 -0.372353,3.49138 l 0.007,0.49692 c -0.009,0.1478 -0.02732,0.29523 -0.02698,0.44329 0.0012,0.57868 0.122558,1.14683 -0.05629,1.71722 -0.160294,1.0542 -0.235007,2.0982 -0.161863,3.16666 0.163098,2.38241 0.08348,0.25328 0.306741,2.11388 0.04479,0.37323 0.05261,0.75005 0.07893,1.12503 0.03536,0.34443 0.119956,0.96394 0.09725,1.34753 -0.06364,1.07538 -0.294842,2.12377 -0.454949,3.18299 -0.15146,1.37799 -0.108689,1.13502 -0.241463,1.86375 z M 127.75406,131.3045 c 0.0223,-0.1343 0.0573,-0.34326 0.0943,-0.43629 0.0478,-0.12064 0.109,-0.2481 0.16919,-0.36403 -0.0888,0.26648 -0.17532,0.53361 -0.26344,0.80032 z m -29.646934,-2.1172 c 0.02095,-0.56486 0.0379,-1.12999 0.04962,-1.6949 0.107269,0.34559 0.220795,0.68909 0.34138,1.02979 -0.135179,0.2004 -0.265835,0.42201 -0.391003,0.66511 z m -50.66949,-3.09172 c -0.05883,-0.15807 -0.113668,-0.31751 -0.158533,-0.47993 -0.005,-0.0181 -0.0067,-0.028 -0.0057,-0.0313 v -3.4e-4 -3.4e-4 h 3.41e-4 v -3.4e-4 h 3.41e-4 v -3.4e-4 h 3.41e-4 3.41e-4 l 3.41e-4,3.4e-4 h 3.41e-4 c 0.02179,0.0128 0.169655,0.33647 0.233802,0.45395 -0.02384,0.0194 -0.04776,0.0389 -0.07161,0.0583 z m 13.003004,-1.18267 c 0.01548,-0.1234 0.03128,-0.21556 0.04496,-0.22681 8.5e-5,-5e-5 5.12e-4,-5.1e-4 6.82e-4,-6.8e-4 h 3.41e-4 l 3.41e-4,-3.4e-4 h 3.41e-4 3.41e-4 c 1.69e-4,-1e-5 8.53e-4,-1e-5 0.001,0 h 3.41e-4 3.41e-4 3.41e-4 3.41e-4 l 3.41e-4,3.4e-4 3.41e-4,3.4e-4 c 1.62e-4,1.4e-4 8.52e-4,8.5e-4 10e-4,0.001 0.0054,0.007 0.01069,0.0293 0.01499,0.0709 -0.02172,0.0518 -0.04362,0.10368 -0.06594,0.1552 z m 13.109583,-22.88965 c -0.257343,-0.007 -0.514918,-0.013 -0.772348,-0.0173 0.04482,-0.17165 0.10047,-0.36535 0.168858,-0.56919 0.272509,0.10619 0.467384,0.31349 0.60349,0.5865 z m -1.621962,-0.0949 c -0.07571,-0.0584 -0.156622,-0.10551 -0.241796,-0.14254 -0.03187,-0.0789 -0.06518,-0.15558 -0.09958,-0.23014 0.290061,-0.11228 0.544588,-0.17385 0.767351,-0.19217 -0.04786,0.0517 -0.09485,0.10447 -0.140548,0.1582 -0.103425,0.12159 -0.198031,0.25898 -0.285425,0.40665 z m 64.736259,-5.008093 -3.4e-4,-3.41e-4 v -3.41e-4 c -0.005,-0.02272 0.13415,-0.529986 0.17918,-0.720724 0.0262,-0.02873 0.057,-0.05862 0.0913,-0.08959 -0.0886,0.288318 -0.18841,0.595813 -0.25112,0.767684 -0.009,0.02557 -0.0149,0.03899 -0.0177,0.0423 l -3.4e-4,3.41e-4 -3.4e-4,3.41e-4 h -3.4e-4 v 3.41e-4 z m 36.1944,-29.4884 c -0.30075,-2.552854 -0.64338,-5.084235 -1.01981,-7.583255 -0.14581,-0.968038 -0.30963,-1.9329 -0.48692,-2.895218 0.015,-0.538266 0.0296,-1.082141 0.0433,-1.631953 0.16631,-6.670128 -0.2074,-13.343016 -0.31106,-20.014411 -0.89622,-7.307059 -0.62812,-10.79159 -2.58215,-16.069412 1.28343,-0.394577 3.48356,-1.167003 4.35665,-2.029617 z M 8.1066386e-5,47.471736 V -0.00213153 H 17.772721 c -0.174175,0.34194872 -0.337902,0.68739316 -0.439629,1.05544883 -1.084383,3.9232056 -1.235601,7.4136455 -1.36085,11.5542317 -0.125162,4.137687 -0.07141,8.278407 0.07061,12.416833 -0.257093,0.219114 -0.522816,0.454418 -0.888249,0.77268 -1.94554,2.815416 -0.630157,0.640068 -2.29839,4.545157 -0.434966,0.722429 -0.805731,1.383256 -0.852612,1.470756 -0.963926,1.798687 -1.986705,3.572716 -2.7939709,5.446729 -1.1633908,2.700834 -2.0598907,4.92991 -2.8106234,6.957782 -0.5460111,0.01465 -1.0920724,0.03815 -1.6379484,0.06528 -0.7015765,-0.03488 -1.4034014,-0.0639 -2.1052199,-0.0756 -0.9551861,-0.07523 -1.5854496,-0.06552 -1.4144706,0.153204 -0.047236,0.05983 -0.086701,0.128503 -0.1179003,0.190172 -0.23306365,0.46068 -0.41096066,0.951603 -0.54020988,1.45144 -0.025263,0.0977 -0.050049,0.19554 -0.0742705,0.29342 C 0.33977387,46.687486 0.16527328,47.078044 8.1066386e-5,47.471736 Z M 1.2413648,44.360365 c 0.067742,-0.08576 0.151665,-0.15332 0.2507879,-0.15487 0.3879153,-0.0061 0.7758986,-0.0048 1.1636827,0.0017 0.3752763,0.02955 0.800916,0.07204 1.2476119,0.120232 -0.7917442,0.04256 -1.5834388,0.08665 -2.3753249,0.115569 -0.00138,0.03815 -0.00796,0.07698 -0.012989,0.11557 C 1.3720084,44.478926 1.282968,44.413557 1.2413648,44.3604 Z m 2.878566,0.560527 c -0.7502608,-0.08891 -1.5049643,-0.190895 -2.23511,-0.188508 -0.021191,-0.0082 -0.042544,-0.0169 -0.063613,-0.02565 0.7460055,-0.03364 1.8517586,-0.16086 2.9398474,-0.283759 0.5094463,0.05754 1.022918,0.11583 1.5013972,0.165193 -0.00814,0.02225 -0.016205,0.0444 -0.024313,0.06661 -0.703822,0.06024 -1.4201481,0.194701 -2.118209,0.266109 z M 6.343717,44.366359 c -0.2417492,-0.01281 -0.4833447,-0.02597 -0.7250535,-0.03897 0.2656914,-0.02866 0.5237454,-0.05516 0.7683502,-0.07827 -0.014494,0.03919 -0.02891,0.07819 -0.043297,0.117234 z M 94.864533,30.784844 c -0.0026,-3.41e-4 -0.0051,-8.52e-4 -0.0077,-0.0014 0.0017,-6.3e-5 0.0033,6.5e-5 0.005,0 8.53e-4,5.12e-4 0.0018,8.53e-4 0.0027,0.0014 z m 2.90188,-0.04629 c -0.160431,-0.0054 -0.348312,-0.115674 -0.556196,-0.300746 0.390634,-0.108506 0.741413,-0.245085 1.052776,-0.404325 -0.09046,0.483245 -0.251711,0.692843 -0.464939,0.704737 -0.01045,5.11e-4 -0.02095,6.82e-4 -0.03164,3.41e-4 z m -3.189636,-0.116235 c -0.03171,-0.01494 -0.06181,-0.03294 -0.09159,-0.05162 0.03108,0.01664 0.06054,0.03494 0.09159,0.05162 z m 34.415233,-0.265777 c -0.0283,-0.0125 -0.10564,-0.0277 -0.18251,-0.06195 0.13226,-0.05829 0.26919,-0.116787 0.41265,-0.175184 0.0513,0.005 0.10215,0.0054 0.1522,-0.002 -0.0259,0.02435 -0.0539,0.04733 -0.0723,0.05895 -0.10107,0.06391 -0.205,0.123054 -0.31007,0.180181 z m 0.38234,-0.23913 c 0.0342,-0.03211 0.0648,-0.06711 0.066,-0.0786 0,-1.67e-4 1e-5,-5.11e-4 0,-6.82e-4 v -3.41e-4 l -3.4e-4,-3.41e-4 v -3.41e-4 -3.41e-4 h -3.4e-4 l -3.4e-4,-3.41e-4 -3.4e-4,-3.41e-4 h -3.5e-4 -3.4e-4 -3.4e-4 c -0.002,-3.41e-4 -0.007,3.41e-4 -0.012,0.0023 -0.0694,0.02687 -0.13732,0.05386 -0.20383,0.08093 -0.041,-0.004 -0.0821,-0.01122 -0.12356,-0.01965 0.31052,-0.07735 0.69701,-0.175913 1.16667,-0.303077 0.0189,-0.0051 0.0303,-0.0055 0.0353,-0.0023 l 3.4e-4,3.41e-4 3.4e-4,3.41e-4 v 3.41e-4 h 3.4e-4 v 3.41e-4 l 3.4e-4,3.41e-4 3.4e-4,3.42e-4 v 3.41e-4 l 3.4e-4,3.41e-4 v 3.41e-4 c 0.001,0.0033 -1.7e-4,0.0083 -0.004,0.01432 -0.31369,0.123088 -0.61637,0.21604 -0.85395,0.289755 -0.0232,0.0072 -0.0467,0.01253 -0.0703,0.01598 z m -0.27576,-0.01765 c -0.1604,0.03995 -0.30056,0.07433 -0.42131,0.103912 -0.0408,-0.04608 -0.0658,-0.106919 -0.0573,-0.18884 0.0416,0.0049 0.0844,0.0094 0.12789,0.01398 0.11575,0.01206 0.2338,0.04718 0.35071,0.07094 z m -0.4786,-0.08493 c -1.52279,-0.179681 -1.75822,-0.609916 -1.36518,-1.16668 0.414,-0.02374 0.82736,-0.06348 1.23729,-0.108243 0.028,0.01451 0.0851,0.03503 0.18917,0.06295 0.11473,0.03077 0.49401,0.114674 0.81831,0.183843 -0.64694,0.516615 -0.85913,0.832189 -0.87959,1.02813 z M 92.749321,30.26162 c -0.07455,-0.01786 -0.14868,-0.03809 -0.221812,-0.06161 -0.140973,-0.04535 -0.453967,-0.295869 -0.457947,-0.326725 v -3.41e-4 -3.41e-4 -3.41e-4 l 3.41e-4,-3.41e-4 v -3.41e-4 -3.41e-4 l 3.42e-4,-3.41e-4 h 3.41e-4 l 3.41e-4,-3.41e-4 h 3.41e-4 l 3.41e-4,-3.41e-4 c 0.0043,-6.82e-4 0.01524,0.0031 0.03297,0.01233 0.221275,0.115082 0.433729,0.245762 0.644788,0.379013 z M 14.571094,27.45466 c 0.0015,-0.01676 0.0061,-0.03201 0.008,-0.03464 h 3.41e-4 v -3.41e-4 h 3.41e-4 v 3.41e-4 c 1.61e-4,0.0027 -0.0018,0.01475 -0.0087,0.03464 z m 27.887752,-0.25112 c -10e-4,-6.82e-4 -0.0023,-0.0014 -0.0033,-0.002 0.06776,-0.01623 0.155827,-0.03721 0.267441,-0.06361 l -3.41e-4,3.41e-4 c -0.08817,0.02258 -0.183102,0.04587 -0.263778,0.06528 z M 169.7129,16.27678 c -0.0167,-1.233435 -0.10894,-2.473079 -0.0812,-3.70287 0.16519,1.210882 0.30043,2.422055 0.10658,3.615276 -0.005,0.032 -0.0136,0.06113 -0.0253,0.08759 z m 3.14602,-1.856098 c -0.48152,-1.51604 -1.31651,-2.970647 -1.82346,-4.4822108 -0.0779,-0.00854 -0.15304,-0.017497 -0.22581,-0.026644 0.11644,-0.1024823 0.1583,-0.2038801 0.0446,-0.313069 -0.83227,-0.802235 -2.17908,-0.8232775 -3.32219,-0.9951573 -2.28421,-0.3434561 -4.6099,-0.3118396 -6.90816,-0.5432079 -1.9486,-0.1961707 -3.44635,-0.3541718 -4.60011,-0.4819255 -0.78898,-0.3110142 -1.68527,-0.5420023 -2.55484,-0.7153946 -0.0866,-0.7682413 -0.12566,-1.538991 -0.25179,-2.304052 -0.66023,-1.7784472 -0.96864,-1.2329475 -3.37248,-0.7014067 -2.31354,-0.5115743 -2.68621,-1.0362003 -3.29954,0.5105681 -0.0462,-0.2015337 -0.0496,-0.464863 -0.15953,-0.3700218 -0.29403,0.2536096 -0.27569,0.7261222 -0.41365,1.0890793 -0.10874,0.3379551 -0.22211,0.6744556 -0.3264,1.0138107 -3.65986,-0.119763 -7.33076,0.014972 -10.98737,0.1808459 -0.69835,-0.7657994 -1.34712,-1.4162966 -1.9377,-1.927037 -0.0593,-0.1963208 -0.12729,-0.3901452 -0.20482,-0.5811747 -0.59662,-1.4699089 -2.6661,-1.8220548 -4.19346,-2.2507654 -2.6327,-0.73897621 -5.34966,-1.11255686 -8.05785,-1.52505073 h 52.59453 z M 32.113595,11.851855 c -0.0093,-3.42e-4 -0.0187,-0.001 -0.02831,-0.0023 -0.05353,-0.283497 -0.118889,-0.565256 -0.1995,-0.844285 0.0194,0.01304 0.03876,0.02611 0.05829,0.03897 0.0657,0.272558 0.13178,0.543283 0.195835,0.807651 -0.0086,3.41e-4 -0.01741,3.41e-4 -0.02631,0 z m -1.09874,-4.1098599 c -0.05939,-0.1212637 -0.117822,-0.239724 -0.175517,-0.3553655 0.111563,5.116e-4 0.226174,0.00171 0.343376,0.003 -0.06907,0.1166613 -0.12501,0.2341581 -0.167859,0.3523677 z M 31.921423,6.5589954 C 31.679842,6.4053546 31.512481,6.3968234 31.404526,6.5020443 31.069965,6.394535 30.761877,6.2747344 30.499958,6.1333559 30.441942,6.2193657 30.38346,6.3049015 30.324773,6.3904714 29.096015,4.1095934 28.250081,3.3453611 27.278016,4.0977438 27.104908,3.099877 26.883282,2.0917481 26.59626,1.0533173 26.49453,0.68526163 26.330806,0.33981719 26.156631,-0.00213153 h 23.49047 C 49.240632,0.14675164 48.816768,0.30750319 48.371846,0.48179421 46.20479,1.3307404 45.331757,1.9766966 43.864324,3.1655281 42.630529,3.3553231 41.398818,3.5566334 40.171779,3.7853415 38.770323,4.0465598 37.400139,4.4541887 36.014295,4.7884929 35.414441,4.9331948 34.867466,5.094637 34.373348,5.2697533 32.986204,3.5967829 32.626543,4.4985262 32.566543,6.103714 32.325131,6.2510846 32.110062,6.4031787 31.921423,6.5589954 Z" /></clipPath><linearGradient
       id="linearGradient56-5"
       spreadMethod="pad"
       gradientTransform="matrix(723.10939,-723.10939,723.10939,723.10939,149.78921,873.83263)"
       gradientUnits="userSpaceOnUse"
       y2="0"
       x2="1"
       y1="0"
       x1="0"><stop
         id="stop52-2"
         offset="0.00133331"
         style="stop-color:#cb00cb;stop-opacity:1;" /><stop
         id="stop1168"
         offset="0.50066668"
         style="stop-color:#feb829;stop-opacity:1;" /><stop
         id="stop1149"
         offset="1"
         style="stop-color:#0079ff;stop-opacity:1;" /></linearGradient><linearGradient
       id="linearGradient100-5"
       spreadMethod="pad"
       gradientTransform="matrix(158.221,0,0,-158.221,206.702,88.9141)"
       gradientUnits="userSpaceOnUse"
       y2="0"
       x2="1"
       y1="0"
       x1="0"><stop
         id="stop96-9"
         offset="0"
         style="stop-opacity:1;stop-color:#1a2243" /><stop
         id="stop98-4"
         offset="1"
         style="stop-opacity:1;stop-color:#46c1b9" /></linearGradient><linearGradient
       id="linearGradient164-3"
       spreadMethod="pad"
       gradientTransform="matrix(208.619,0,0,-208.619,373.409,82.0118)"
       gradientUnits="userSpaceOnUse"
       y2="0"
       x2="1"
       y1="0"
       x1="0"><stop
         id="stop160-9"
         offset="0"
         style="stop-opacity:1;stop-color:#46c1b9" /><stop
         id="stop162-0"
         offset="1"
         style="stop-opacity:1;stop-color:#c5115b" /></linearGradient><linearGradient
       inkscape:collect="always"
       xlink:href="#linearGradient56-5"
       id="linearGradient1168"
       x1="16.671875"
       y1="552.62305"
       x2="1011.5043"
       y2="552.62305"
       gradientUnits="userSpaceOnUse" /></defs><path
     id="path58-5"
     style="fill:url(#linearGradient1168);stroke:none;stroke-width:7.08099"
     d="m 812.96875,79 c 0.21224,2.272753 0.34317,4.550239 0.28516,6.828125 -0.19561,7.680404 -0.72919,15.372985 -1.84375,22.974605 -2.69386,18.37287 -7.76047,34.77126 -12.62891,52.6543 -2.63786,8.12527 -4.97076,16.35532 -7.91406,24.375 -0.51744,1.40987 -1.49977,3.9736 -2.75196,7.01953 40.56538,26.74209 76.99907,59.22029 108.15625,96.28906 -0.0159,-0.28041 -0.0323,-0.56138 -0.0488,-0.84179 -4.24836,-7.0351 -8.44863,-14.10866 -12.26563,-21.38672 -11.50749,-21.9419 -13.54709,-28.6991 -22.88867,-51.86523 -6.05953,-17.01401 -13.44418,-35.82661 -16.97852,-53.61915 -1.99968,-10.06683 -3.02271,-20.31899 -3.85351,-30.54882 -0.95925,-11.81138 -1.17636,-23.67273 0.16601,-35.390629 C 831.41453,89.761409 822.26748,84.262387 812.96875,79 Z M 186.91602,97.117188 c -1.28373,1.673282 -2.59273,3.336322 -3.87305,4.949222 3.23678,1.54701 6.48764,3.06885 9.71875,4.62695 3.20281,1.42097 6.40461,2.84074 9.60742,4.26172 0.17323,2.82428 -1.88762,7.52328 -3.00586,9.99609 -3.93893,8.7104 -8.98685,16.85125 -13.40234,25.31445 -0.19445,0.40281 -0.38191,0.79022 -0.5625,1.16407 8.08955,-5.69854 16.33362,-11.19174 24.72656,-16.47071 -1.23813,-4.79452 -2.72753,-9.51777 -4.64062,-14.0996 -1.84867,-4.71266 -3.4851,-9.50956 -4.87305,-14.3711 -1.61168,-0.83983 -3.22446,-1.68012 -4.83594,-2.51953 -0.47186,0.42019 -0.96694,0.87207 -1.48437,1.36328 -6.70575,6.36584 -7.81901,2.38764 -7.375,-4.214842 z m 6.04492,55.572262 c -2.37269,0.0434 -5.22394,1.13775 -9.07617,4.28125 -3.55688,9.49272 -23.52902,51.06443 -27.79883,60.26563 -10.89166,20.30666 -6.76033,13.59637 -18.16602,31.41406 -0.26258,0.4102 -0.52232,0.82153 -0.78125,1.23438 -1.0356,9.12656 -2.23261,18.22991 -4.04297,27.22656 -0.5506,2.73626 -1.14337,5.46373 -1.77148,8.18359 28.16794,-32.79627 60.50078,-61.9101 96.17773,-86.52344 -0.8727,-4.82798 0.67133,-8.56609 4.06836,-10.41796 -1.38665,-2.27144 -2.68764,-4.59359 -3.86133,-6.97461 -2.27297,-4.61111 -3.81862,-9.59048 -5.40625,-14.46094 -0.88058,-4.81214 -1.65895,-3.50075 -4.84961,-8.875 -0.89984,-1.51577 -1.52128,-2.90557 -2.01367,-4.29492 -12.55594,8.14236 -15.36043,-1.18889 -22.47851,-1.0586 z m 46.52929,64.625 c -50.28588,34.79105 -93.60019,78.94607 -127.41992,129.94336 -1.60367,3.95172 -3.31327,7.85649 -5.16015,11.69727 -2.86705,5.9623 -7.498291,10.90103 -11.248051,16.35156 -0.223394,0.18408 -0.789077,0.64559 -1.558593,1.27539 -39.245467,69.53227 -61.640625,149.83869 -61.640625,235.375 H 21.847656 c 1.154605,3.47123 1.867481,7.07839 2.869141,10.59766 3.99929,14.05126 4.948485,15.99037 8.220703,32.65039 1.864911,9.49492 3.280189,19.07298 4.919922,28.60937 1.934836,14.11135 4.738108,28.1306 5.804687,42.33399 1.630793,21.71691 0.622804,51.87376 -1.65625,74.14258 -5.082431,49.66082 -0.991795,0.40743 -6.236328,32.74609 -0.52832,3.25772 -0.39617,6.58845 -0.59375,9.88281 -0.01648,9.55628 0.938232,19.27598 -0.578125,28.78125 -0.198741,1.2458 -0.62295,2.45399 -1.111328,3.61719 -0.148016,0.35253 -0.383292,0.8504 -0.765625,0.85352 -1.366317,0.0119 -2.733507,0.009 -4.099609,-0.006 -0.03078,1.57075 -0.193788,3.14215 -0.257813,4.71289 0.0031,0.1417 0.005,0.28235 0.0059,0.42382 0.02707,-0.0182 0.05492,-0.0365 0.08203,-0.0547 0.190997,-0.12798 0.297764,-0.18161 0.332031,-0.17774 h 0.002 l 0.002,0.002 h 0.002 l 0.002,0.002 0.002,0.002 v 0.002 l 0.002,0.002 v 0.002 0.002 c -0.0028,0.0507 -0.16293,0.22828 -0.425781,0.47852 -0.01454,4.06474 -0.918974,8.03678 -1.404297,12.05469 -0.141657,1.17275 -0.162017,2.35965 -0.296875,3.5332 -0.234817,2.04342 -0.392525,3.36442 -0.5,4.20117 0.305712,8.73766 1.045819,17.45683 1.552734,26.18555 0.177093,5.6689 0.50535,11.33425 0.53125,17.00586 0.09051,19.81991 -0.05059,9.8777 -1.818359,25.92969 -0.301029,2.73345 -0.395855,5.48729 -0.615235,8.22851 -0.210592,2.63142 -0.01121,3.89341 -0.11914,4.03125 l -0.002,0.002 -0.002,0.002 -0.002,0.002 -0.002,0.002 h -0.002 -0.002 l -0.002,0.002 h -0.002 c -8.82e-4,7e-5 -0.005,1e-5 -0.0059,0 -0.07473,-0.007 -0.237307,-0.275 -0.564453,-0.77539 -0.213222,-0.22559 -0.353875,-0.79924 -0.638672,-0.67578 -0.272749,0.11824 0.166897,0.57288 0.191407,0.86914 0.0021,0.0252 0.0049,0.0553 0.0098,0.0898 8.785402,11.54604 17.972483,22.77054 27.539063,33.65234 3.206097,0.071 4.734846,0.5462 8.802734,0.7793 4.395439,0.252 6.303256,-0.016 10.894531,-0.2929 8.048356,-0.9556 16.014444,-0.1464 23.78125,2.1015 1.550375,0.4488 3.046168,1.0652 4.548831,1.6582 4.00207,-0.1571 8.37274,-0.259 12.47656,-0.3339 1.093,-9.9746 -0.48515,-10.2507 4.27539,-9.67 -0.39171,-0.2787 -1.12114,-0.4748 -0.80859,-0.6211 1.08946,-0.5097 3.8669,-0.3437 6.17578,-0.066 6.92745,-0.5995 25.93458,-1.7246 26.17969,-1.7246 7.44541,0.072 34.12874,2.9361 41.3496,3.6641 8.68361,0.8035 17.30038,2.0636 25.85547,3.664 5.71652,-2.7937 11.52753,-4.8527 18.50586,-6.5898 5.73454,-1.4275 11.66535,-1.8997 17.49805,-2.8496 13.45494,0.229 13.92951,-0.8057 25.42969,2.5566 0.46401,0.1357 4.63752,1.6732 6.92383,2.9746 0.36028,-0.088 0.73272,-0.1571 1.07617,-0.2714 3.48605,-1.1608 7.01927,-1.9903 10.60351,-2.7832 3.88093,-0.7444 7.76721,-1.289 11.70703,-1.5489 2.87142,0.3932 5.71436,-0.1453 8.58008,-0.3125 4.23259,0.1216 7.61792,0.7727 10.63086,5.1778 1.16009,1.6961 0.38057,4.0956 0.40821,6.1504 0.005,0.3584 -0.11254,0.7298 -0.31055,1.0293 -0.20969,0.3164 -0.42863,0.6269 -0.65235,0.9335 1.92999,-1.5637 5.02104,-2.9389 9.27149,-3.9003 9.56913,-2.1601 19.36965,-2.0702 29.11328,-2.1602 17.68204,-0.1637 1.3198,-0.1231 19.00195,-0.123 7.65054,0.8591 15.31499,1.3481 23.01368,1.2324 1.90007,-0.029 3.80663,0.029 5.69726,-0.1621 1.06813,-0.1081 2.13197,-0.2528 3.19336,-0.4141 C 233.72865,970.49325 98.626953,807.00882 98.626953,611.95703 H 76.605469 c 0,-147.08989 72.925291,-277.13501 184.593751,-355.95703 -0.017,-0.0329 -0.0343,-0.0654 -0.0508,-0.0977 -1.01263,-1.98321 -1.77988,-4.08188 -2.66992,-6.12304 -2.36357,-4.82276 -4.67238,-9.66369 -6.9004,-14.55078 -0.0727,-0.15942 -2.79065,-6.24751 -3.20898,-6.93164 -0.79528,-1.30064 -1.7759,-2.47775 -2.66406,-3.7168 -0.3752,-0.69602 -0.67607,-1.44029 -1.12696,-2.08985 -0.57946,-0.83487 -1.48746,-1.39253 -2.12304,-2.18554 -0.3071,-0.38316 -0.46351,-0.88506 -0.81446,-1.22852 -0.66229,-0.64825 -1.41684,-1.19309 -2.15039,-1.76172 z M 28.369141,881.5625 c 3.09e-4,-0.0864 5.09e-4,-0.17328 0,-0.25977 -0.766307,0.51587 -1.515503,1.05607 -2.259766,1.60352 0.0022,0.16678 0.0042,0.33318 0.0059,0.5 0.892882,-0.63859 1.758195,-1.37183 2.253907,-1.84375 z M 769.39453,233.27344 c -0.0531,0.43137 -0.0913,0.85292 -0.0527,1.22461 -0.26591,1.31284 -0.49257,2.63626 -0.71289,3.96093 0.39775,3.34724 0.84408,6.69187 0.83398,10.05664 -0.059,19.66648 -4.11422,40.97261 -13.94531,58.22852 -1.16331,2.04189 -2.59521,3.91946 -3.89258,5.87891 -0.44529,1.33403 -0.82029,2.69351 -1.33594,4.00195 -0.0903,0.22925 -3.74191,7.81752 -3.92968,7.79102 -1.86885,-0.26372 -3.75141,-0.55701 -5.63086,-0.9004 0.17877,0.83326 0.34925,1.86725 0.57421,3.17774 -0.24113,7.60573 -1.20672,15.19952 -2.74609,22.68164 73.54385,63.52022 119.99414,157.5178 119.99414,262.58203 h 22.67969 c 0,203.94094 -165.29617,369.23438 -369.22656,369.23438 v -22.68164 c 191.40427,0 346.54687,-155.14527 346.54687,-346.55274 h -21.46289 c 0,179.53963 -145.54734,325.11914 -325.08398,325.11914 v -22.07226 c 167.3645,0 303.04101,-135.67245 303.04101,-303.04688 0,-85.49694 -35.57123,-162.84146 -92.69336,-218 -3.7515,7.96594 -5.89898,11.74463 -11.19531,21.75195 -0.9756,1.72407 -1.93464,3.45759 -2.9043,5.18555 -0.43897,1.23757 -1.00237,2.53142 -1.70117,3.86719 -1.48671,2.84186 -1.79519,5.98719 -2.32617,9.08789 -0.41762,2.43877 -0.93915,4.85841 -1.47461,7.27344 -0.54099,4.91639 -1.24213,9.92093 -3.41797,14.42968 -0.6578,1.3631 -1.4559,2.65532 -2.18359,3.98243 -2.03198,2.70568 -4.04151,5.45923 -6.32422,7.96484 -0.36221,0.39757 -0.77276,0.75174 -1.1582,1.12695 -0.91034,4.69015 -1.8742,9.36547 -3.25977,13.93164 -1.36067,4.4841 -3.29511,8.86408 -5.89063,12.76563 -0.83366,1.25321 -2.56053,2.54392 -3.99804,2.09766 -0.46597,-0.14468 -0.932,-0.29028 -1.39844,-0.4375 -0.0956,0.1926 -0.19711,0.39791 -0.30469,0.61914 -0.0536,0.0841 -1.13241,1.80705 -1.80468,2.80468 0.14484,0.28419 -0.11357,0.58336 -0.37696,0.6836 3.19958,0.92712 4.25412,1.29341 -0.28906,0.1582 -1.36345,-0.34069 -2.72904,-0.6712 -4.0957,-1 19.35466,31.52361 4.32422,71.03701 4.32422,112.79883 0,17.38439 19.05507,38.34096 4.27734,45.88086 -8.51503,4.34454 0.54478,10.86993 -0.49805,14.05273 -3.23501,9.87351 11.09362,18.27119 6.375,27.36719 -31.99651,61.6791 -96.43639,103.81641 -170.72265,103.81641 l 0.70703,-482.16504 c -2.04533,0 -14.29221,2.76465 -16.48252,21.12994 -4.25846,35.7062 -0.1584,99.25177 -3.24798,99.69135 0.0501,-1.5913 0.0762,-83.24178 0.0762,-84.95313 l -48.86513,40.06887 -27.62469,46.3503 c 0,-20.74708 -39.63832,13.23404 -59.81236,42.30238 -14.50876,20.90534 -13.58037,40.65285 -5.75055,29.19642 -0.87507,-1.51293 18.2963,-2.90449 17.45117,-4.30078 -4.22942,-0.8721 -7.00773,-3.08013 -10.23242,-6.35547 -0.44632,-0.45333 -12.92655,-15.68526 -13.27405,-16.2181 -0.96498,-1.47977 10.22925,11.74907 9.35803,10.21224 -0.53601,-1.39822 -0.90379,-2.87348 -1.60742,-4.19531 -0.66025,-1.24031 -1.76693,-2.20245 -2.45117,-3.42969 -3.10127,-5.56243 -4.8012,-8.89641 -6.27539,-13.41016 -29.29384,36.71955 -46.80469,83.25154 -46.80469,133.86719 h -22.09961 c 0,-61.37392 23.33285,-117.29772 61.61328,-159.38281 -0.772,-1.35265 -1.89151,-3.50011 -2.90234,-5.51563 -2.36858,-2.73358 -4.47719,-5.69149 -6.87891,-9.03711 -2.98577,-4.51117 -6.47537,-9.31369 -9.45312,-14.36718 -0.52333,-0.7698 -1.11069,-1.67223 -1.83789,-2.82618 -0.69613,-1.1046 -1.63215,-2.139 -1.92188,-3.4121 -0.12507,-0.54956 -0.20552,-1.10788 -0.25781,-1.67188 -0.25346,-0.61272 -0.49249,-1.22885 -0.7168,-1.84766 -50.48445,50.79738 -81.67969,120.78716 -81.67969,198.06055 h -22.1289 c 0,-87.12513 36.75672,-165.6616 95.60937,-220.95117 -0.0365,-0.13373 -0.0701,-0.26134 -0.0996,-0.38086 -0.0133,-0.054 -0.026,-0.10804 -0.0391,-0.16211 -0.5646,-0.59202 -1.12868,-1.1833 -1.69336,-1.77539 -0.21813,-0.68985 -2.32251,-3.02158 -2.55664,-3.36914 -1.71161,-2.54085 -2.77992,-5.49215 -4.07227,-8.24609 -2.81447,-7.28773 0.32193,0.81805 -3.27539,-8.41407 -0.62342,-1.59995 -1.19119,-3.22262 -1.86328,-4.80273 -0.70073,-1.64746 -1.56108,-3.2242 -2.2539,-4.875 -1.60259,-3.81856 -2.18529,-5.73844 -3.35352,-9.30274 -73.47669,63.5659 -119.96289,157.49173 -119.96289,262.2793 h -22.54687 c 0,-115.57827 53.11302,-218.75168 136.25585,-286.45117 -0.79969,-2.07729 -1.43859,-4.2367 -1.88476,-6.40625 -0.45745,-2.22436 -0.6488,-4.50562 -1.23633,-6.69922 -0.52919,-1.97579 -1.40088,-3.84394 -2.10156,-5.76562 l -1.47266,-6.50977 c -0.18379,-1.18093 -0.58113,-2.3462 -0.55273,-3.54102 0.001,-0.0613 0.022,-0.11837 0.0547,-0.16992 -1.41576,-2.39268 -2.03229,-4.64742 -0.39258,-5.75586 0.7369,-0.49814 1.47898,-0.98927 2.22265,-1.46875 -0.58073,-1.94686 -1.1704,-4.07657 -1.79297,-6.49218 -0.41029,-1.59199 -0.84537,-3.82074 -1.2832,-6.30079 C 166.4601,351.44364 98.654297,473.78046 98.654297,611.95703 h 44.085933 c 0,203.94094 165.32623,369.26367 369.26368,369.26367 v 22.0781 c 216.13082,0 391.29882,-175.20735 391.29882,-391.34177 h 22.07813 c 0,197.77829 -138.8884,363.11657 -324.45117,403.79687 1.61913,0.2716 3.2237,0.6558 4.80664,1.1426 0.7811,0.359 1.61017,0.6652 2.43945,0.9785 -0.0594,-0.5145 0.4207,-0.38 1.11133,0.027 0.32083,-0.055 0.6429,-0.1046 0.9668,-0.1484 2.52946,-0.3428 5.09702,-0.3195 7.64843,-0.3945 7.17343,-0.2116 6.34029,-0.065 13.51758,0.6113 0.97087,0.2509 1.95242,0.4637 2.92969,0.6934 2.30916,-0.012 4.53938,0.014 6.60937,0.08 6.92977,0.2214 14.08342,0.8059 20.94922,2.1836 166.64376,-61.09599 285.54297,-221.14073 285.54297,-408.97067 h 21.55664 c -0.92217,170.47724 -94.54978,321.38394 -233.52148,399.32817 1.9797,-0.2262 3.96063,-0.4431 5.94336,-0.6407 1.95877,-0.1952 3.9169,-0.4051 5.875,-0.6211 14.42209,-2.4339 26.71013,-4.4728 40.69922,-5.7968 123.14788,-86.81076 203.58984,-230.14681 203.58984,-392.26957 l -19.54102,-2.20117 c 2.90998,-26.8877 10.2313,-64.46381 5.54102,-88.36524 C 975.66162,511.5455 956.73811,503.4021 954.1875,493.79492 925.618,386.18429 858.93204,294.23894 769.39453,233.27344 Z M 609.28711,1017.9023 c -0.23364,0.04 -0.46712,0.083 -0.69922,0.1289 0.13601,0.052 0.27284,0.1048 0.4082,0.1583 0.12186,0.025 0.24255,0.053 0.36329,0.084 0.17817,0.046 0.35054,0.1057 0.51757,0.1778 0.0311,-0.036 0.0666,-0.067 0.10352,-0.092 -0.24444,-0.1731 -0.47943,-0.3285 -0.69336,-0.4571 z m -0.69922,0.1289 c -0.13253,-0.053 -0.2799,-0.1066 -0.41211,-0.1562 0.006,0.052 0.016,0.1088 0.0332,0.1738 0.0537,0.01 0.1085,0.017 0.16211,0.025 0.0675,-0.015 0.1488,-0.029 0.2168,-0.043 z M 385.54883,472.38281 c 0.007,-9.2e-4 0.008,0.0166 0.0176,0.0312 0.0546,0.0858 0.10848,0.1728 0.16015,0.25782 -0.0765,-0.1493 -16.73192,1.99427 -16.70954,1.99118 z m -31.08008,21.75586 c 0.0565,0.0873 0.0546,0.18538 0.0762,0.25977 0.0266,0.0941 0.12142,0.33215 0.13477,0.35742 h 0.002 c -4.8e-4,-0.003 -0.002,-0.0109 -0.006,-0.0215 -0.0704,-0.19939 -6.59267,-10.46443 -6.47772,-10.28677 z M 18.435547,522.00586 c -0.58822,0.94809 -1.176154,1.89717 -1.763672,2.8457 0.06048,0.25412 0.129243,0.4997 0.210937,0.73438 0.157653,0.82422 0.346344,1.64164 0.496094,2.46679 0.340068,-2.01945 0.692515,-4.03569 1.056641,-6.04687 z m 3.101562,89.95117 c 0.03101,0.1351 0.06166,0.27244 0.09375,0.41211 0.01322,-0.0941 0.0197,-0.258 0.02734,-0.41211 z m 705.351561,0 h 22.35352 c 0,131.02748 -106.21304,237.24414 -237.23828,237.24414 v -22.34765 c 118.68329,0 214.88476,-96.20422 214.88476,-214.89649 z m 44.00781,0 h 22.07032 c 0,155.17376 -125.79168,280.97656 -280.96289,280.97656 v -22.08007 c 142.99906,0 258.89257,-115.92325 258.89257,-258.89649 z m 236.71292,77.85938 c 0,0.0188 0.01,0.0376 0.014,0.0566 4e-4,-0.0187 0.01,-0.036 0.01,-0.0547 z m 0.014,0.0586 c -19.64687,126.02515 -86.19879,236.51509 -181.24214,313.04879 10.34471,0.4592 20.8064,1.573 31.10937,2.6543 60.50864,-53.15915 108.65816,-120.05111 139.58008,-195.80465 0.25562,-5.73735 0.46038,-11.4424 1.03711,-27.32617 0.27414,-7.55 0.2149,-15.11907 0.78711,-22.65235 0.92236,-12.14297 3.48777,-23.98547 4.64647,-36.07422 0.8749,-9.12777 4.0699,-15.06421 7.9629,-17.81054 -0.039,-0.37066 -0.077,-0.74194 -0.1074,-1.11328 -0.084,-1.01658 -0.2031,-2.0327 -0.2031,-3.05274 0,-10e-4 -10e-5,-0.003 0,-0.004 v -0.002 -0.002 -0.002 -0.002 -0.002 -0.002 -0.002 -0.002 -0.002 c 0.037,-0.0217 0.1376,-0.005 0.1718,-0.0215 v -0.002 -0.002 -0.002 -0.002 -0.002 -0.002 -0.002 -0.002 -0.002 -0.0117 -0.002 -0.0117 -0.0117 c -0.8963,-2.98794 -2.5021,-5.75016 -3.1054,-8.83789 -0.3548,-1.62929 -0.4894,-2.3306 -0.6368,-2.93359 z m -13.1855,177.54688 c -27.95201,52.68037 -64.28013,100.23528 -107.20898,140.89061 5.32451,0.427 10.63371,0.8361 15.64453,1.2305 4.43668,0.2956 8.84623,0.8424 13.25586,1.3886 29.19076,-29.56534 55.16152,-62.31928 77.34179,-97.69136 -0.0355,-17.40702 0.37154,-31.02847 0.9668,-45.81835 z m -0.0117,84.21289 c -15.61107,22.13154 -32.71147,43.14818 -51.14648,62.89062 0.92087,0.2529 1.83903,0.5221 2.7207,0.8027 3.71597,-0.01 7.43609,0.059 11.14844,-0.014 4.80799,0.2283 9.65126,0.4297 14.48437,0.7617 8.32567,-9.4633 16.3628,-19.18641 24.09961,-29.15431 -0.0688,-1.00856 -0.13636,-2.06182 -0.20508,-3.16602 -0.65896,-10.58897 -0.77013,-21.20401 -1.09179,-31.80859 -0.003,-0.0988 -0.007,-0.21317 -0.01,-0.3125 z m -716.61914,65.31052 c -0.50907,0.363 -1.01804,0.7261 -1.5293,1.0859 -0.0362,0.1686 -0.20258,0.5705 -0.18164,0.6368 h 0.002 0.002 0.002 0.002 0.002 0.002 0.002 0.002 0.002 0.002 0.002 0.0117 0.002 0.0117 0.0117 0.002 0.0117 0.004 0.002 0.006 0.002 c 1.3e-4,-9e-4 -1.6e-4,4e-4 0,-0.01 h 0.002 0.002 0.002 c 0.57233,-0.5479 1.12331,-1.1186 1.66406,-1.6992 z m 675.36524,3.2012 v 0 c 0.4423,2.0257 1.14973,4.078 1.55078,6.0996 h 0.34961 c 0.23084,-0.994 0.39448,-1.9449 0.48828,-2.7129 0.17051,-1.3962 -1.14357,-2.4155 -2.38867,-3.3906 z"
     sodipodi:nodetypes="csscscccscssccccccsccccccccsccscscccscccsscsccccsscssscssccccccccccccccscssccsssccccccccsccssccscsccccccccscscccccssccccccsccccccsscsscssscccsscccsscsscccccccccccscccsscscscsssccccscssssccsccccsccsscsscccccccsscccccsccscsssccccssccccscsccccccccccccccccccccscccccscscccccssccccccsccsssccccsscccccccccccccccccccccccscccsssccsscccccccccccccccccccccccccsccccccccccccsscccccccccccccccccccccccccccccccccsccscc" /><path
     id="path32"
     style="fill:#000000;fill-opacity:1;stroke-width:1.10701"
     d="m 197.26172,2.0214844 c -4.21152,0.2103203 -8.07504,2.1876237 -11.48559,4.5372314 l -4.0359,2.6131592 V 89.943359 C 171.27152,123.54982 160.87361,157.17922 150.34366,190.76578 137.78077,230.72531 124.9798,270.61786 111.33441,310.22051 94.63183,358.54513 76.622098,406.51945 54.498725,452.6597 42.911884,476.92769 30.171981,500.63108 16.76285,523.93712 c -4.070266,7.19297 -8.0719194,14.57179 -11.6593829,22.07373 -1.1302712,2.48875 -2.4016994,4.95142 -3.0976077,7.60438 0.2868847,1.95823 1.6041497,3.57229 2.77674,5.09822 2.2752247,2.6917 4.9125374,5.20665 8.1123216,6.75694 0.978167,0.60565 2.311903,0.18298 3.138282,1.07063 1.201137,1.26741 1.268464,3.14538 1.556418,4.78044 0.810288,7.0488 0.930208,14.15375 1.127698,21.23983 0.430736,20.32621 0.240778,40.6584 0.284634,60.98754 v 27.6875 c -3.31475,2.34574 -6.726804,4.55821 -9.9736447,6.9972 -2.1525949,1.66693 -4.1364198,3.90487 -4.4502784,6.71849 -0.2985005,2.62333 -0.2908147,5.59326 1.4219701,7.77064 2.2038397,2.66363 5.431512,4.12279 8.279285,5.96621 1.574165,0.95927 3.149913,1.91595 4.722668,2.87754 v 119.13671 c -2.787695,1.09044 -5.637596,2.03135 -8.385702,3.21683 -3.6635354,1.7692 -5.8164731,5.83034 -5.8168997,9.82169 -0.1221752,4.36665 2.2227499,8.8519 6.2240877,10.78664 2.569391,1.12707 5.263641,1.9501 7.883892,2.95295 0.228559,0.40691 0.02861,1.11401 0.09462,1.63479 v 154.12028 c 3.547145,2.9209 7.094003,5.8422 10.640625,8.7637 92.508724,-0.01 185.017464,0.024 277.526164,-0.027 26.86143,-0.044 53.72391,-0.042 80.58379,-0.3646 8.31315,-0.1202 16.58351,-0.241 24.86267,-0.6524 1.79189,-0.094 3.47408,-0.1991 5.2989,-0.3604 2.72621,-0.3021 5.57596,-0.4339 8.08785,-1.6407 2.03496,-1.1911 4.27272,-2.5652 5.03964,-4.9417 1.15861,-3.4068 1.29761,-7.0479 1.62167,-10.6028 0.87847,-11.85207 0.89709,-23.8119 2.96998,-35.56528 1.25068,-7.25432 3.54012,-14.44081 7.65796,-20.60105 4.20691,-6.33576 9.81039,-11.58711 15.58884,-16.46809 7.36744,-6.14456 15.82873,-11.07323 25.03958,-13.85427 10.91025,-3.34909 22.44688,-3.96526 33.78963,-3.61 10.71513,0.3556 21.53132,2.14088 31.34193,6.61656 9.94076,4.47463 18.53644,11.45146 26.1031,19.21094 4.6112,4.777 8.52804,10.30821 10.91979,16.53253 3.28127,8.45593 4.2717,17.56528 4.9982,26.54095 0.69427,8.90851 0.77327,17.81741 1.79225,26.70261 0.39292,2.5559 0.66381,5.3802 2.46751,7.3892 1.35485,1.2913 2.94286,2.3859 4.68007,3.092 3.27983,1.0425 6.76051,1.1574 10.16684,1.4324 2.27823,0.1455 4.79832,0.2597 7.17592,0.3424 16.70965,0.5493 33.54281,0.5722 50.30465,0.6832 50.09683,0.1948 100.19418,0.1225 150.29127,0.1453 h 177.4086 c 2.46065,-2.0867 5.05002,-4.0282 7.41332,-6.2258 2.1495,-2.0146 2.5049,-5.1011 2.7839,-7.8738 0.06,-0.6551 0.1326,-1.622 0.1741,-2.4029 0.2059,-3.9954 0.2329,-8.20829 0.2544,-12.3014 0.015,-7.01724 0.056,-14.03632 -0.1433,-21.05157 -0.096,-2.9542 -0.2305,-6.07734 -0.5123,-9.08584 -0.044,-1.1953 -0.4576,-2.39803 -0.085,-3.57222 0.7522,-4.86062 0.6448,-9.80011 0.7347,-14.70405 0.06,-21.02949 -0.048,-42.07453 1.0733,-63.08125 0.4265,-6.74629 0.8234,-13.52898 2.1543,-20.16992 0.5067,-2.05436 0.9374,-4.34899 2.5375,-5.86127 0.9236,-0.7829 2.2065,-0.93988 3.1751,-1.67199 4.4928,-2.77579 6.2973,-8.77082 4.7449,-13.70827 -0.9393,-3.26175 -3.5364,-5.96655 -6.7753,-7.00052 -2.2964,-0.86216 -4.5938,-1.72146 -6.8892,-2.58608 V 712.55839 c 3.2282,-2.53524 6.5608,-4.94123 9.7148,-7.56836 2.45,-2.21742 4.8324,-5.06076 4.9508,-8.5208 0.073,-3.33893 -2.22,-6.14122 -4.6567,-8.16765 -2.6573,-2.1095 -5.545,-3.90934 -8.3031,-5.88271 -0.5688,-0.39393 -1.1374,-0.78819 -1.7058,-1.18274 0.01,-37.86654 0.022,-75.73307 0.031,-113.59961 3.714,-1.79114 7.5157,-3.40796 11.1611,-5.33656 2.0282,-1.12463 4.3176,-2.61613 4.7104,-5.09614 0.3871,-2.89777 -0.7269,-5.71988 -1.7476,-8.3765 -2.8437,-6.74311 -6.5743,-13.0621 -10.2318,-19.38559 -6.6532,-11.32281 -13.62041,-22.45853 -20.15632,-33.85038 -14.98318,-25.86954 -28.58863,-52.5405 -40.57755,-79.92939 -18.14139,-41.34882 -32.89005,-84.08392 -46.52003,-127.09918 -8.95555,-28.3231 -17.36475,-56.81616 -25.63929,-85.34561 -8.06192,-27.57142 -16.14881,-55.13651 -24.50666,-82.62 -3.08683,-10.10204 -6.17177,-20.20467 -9.25978,-30.306354 V 9.171675 C 840.3539,7.3772037 837.61441,5.2803342 834.518,3.8081607 830.55367,1.8954485 825.81828,1.3470294 821.65445,2.9536752 c -3.05547,1.1366828 -5.71636,3.1586282 -7.98332,5.4673884 -1.79204,2.1072604 -1.97899,5.0132334 -2.28359,7.6429684 -0.25951,2.835419 -0.35116,5.692696 -0.41043,8.471278 -0.22972,11.999039 -0.1148,24.001427 -0.14743,36.00199 V 91.548628 C 800.29363,127.09396 789.7149,162.62553 779.1647,198.15863 c -5.53361,18.80822 -11.15661,37.59203 -16.34736,56.49867 -0.633,2.43355 -1.36853,4.91588 -1.81579,7.43234 0.12999,1.00697 -0.57341,1.86958 -0.82347,2.81496 -3.8662,10.03118 -6.71446,20.40701 -10.01103,30.62954 -13.46972,42.55759 -28.70617,84.60897 -47.05768,125.32136 -12.96819,28.83602 -27.52574,56.95382 -43.52792,84.22279 -6.81247,11.60884 -13.62929,23.21565 -20.44318,34.82385 H 385.84726 c -7.88555,-13.49195 -15.85382,-26.93585 -23.68494,-40.45929 -12.98811,-22.52331 -24.9533,-45.64537 -35.53523,-69.39896 -15.85441,-35.48866 -28.97978,-72.1166 -41.36397,-108.93436 -14.73485,-44.03255 -28.38725,-88.41682 -41.90637,-132.83422 -9.72757,-32.0346 -19.45675,-64.06872 -29.18332,-96.103635 -0.0192,-20.29085 0.0441,-40.581959 -0.0457,-60.872629 -0.0353,-3.462946 -0.0799,-6.941177 -0.20728,-10.338896 -0.19902,-3.463542 -0.23711,-7.011551 -1.31542,-10.341209 -0.80583,-2.3823467 -3.00725,-3.8236122 -4.88689,-5.310944 -3.01065,-2.1951601 -6.7025,-3.5127457 -10.45686,-3.2867126 z m 0.94531,152.8281256 c 1.20363,0.55634 1.4775,2.03916 1.9809,3.1492 2.80917,7.77014 5.16478,15.69497 7.56475,23.59862 6.09837,20.66108 12.23205,41.31281 18.5919,61.89547 11.97857,38.83461 24.55031,77.49652 38.35073,115.72585 12.71719,35.12304 26.46867,69.99584 42.47223,103.81012 9.75021,20.58559 20.41141,40.75583 32.35888,60.15588 2.41657,4.08006 4.92799,8.11737 7.03803,12.36798 0.33635,0.72781 0.42633,1.53578 0.64258,2.30274 -0.89393,0.47875 -1.73986,1.1491 -2.81042,1.08854 -7.24344,0.34086 -14.49909,0.34577 -21.74906,0.45712 -34.11497,0.35579 -68.23217,0.42857 -102.34872,0.48405 -38.61977,0.0233 -77.24009,0.0464 -115.85924,-0.20366 -14.415097,-0.12372 -28.834789,-0.20387 -43.241548,-0.73423 -3.776091,-0.20353 -7.586613,-0.25565 -11.311004,-0.96442 -1.189961,-0.21253 -2.475949,-0.96066 -2.59753,-2.27511 -0.08719,-1.0705 0.73808,-1.967 1.1405,-2.91748 6.7645,-13.00044 13.659087,-26.01747 20.392258,-38.98169 10.500494,-20.35634 20.364319,-40.98915 29.592081,-61.9452 14.377253,-32.59902 27.256273,-65.9155 39.249713,-99.4874 7.7591,-21.75393 15.20821,-43.75213 22.37502,-65.71277 7.27486,-22.22687 14.25093,-44.52377 21.19601,-66.84279 4.33787,-13.76853 8.63042,-27.55228 13.23367,-41.23507 0.49192,-1.22283 0.75852,-2.6575 1.65027,-3.63426 0.6491,-0.11895 1.32809,-0.66986 1.93421,-0.17343 l 0.0906,0.0424 z m 630.15235,1.94141 c 0.59103,0.0854 0.90166,0.49536 1.11718,1.01562 1.16285,2.92474 1.99393,5.97594 2.96077,8.97126 8.75046,28.27456 16.90128,56.72996 25.4194,85.07597 10.84365,35.9622 22.12692,71.80622 34.77697,107.17893 12.51793,34.9982 26.5243,69.51105 43.19064,102.77144 7.72816,15.46619 15.99207,30.61571 24.70336,45.56197 4.86408,8.42742 9.74757,16.85119 14.20703,25.50172 0.5448,1.19606 1.34845,2.42228 1.29549,3.76086 -0.3065,0.73695 -0.82762,1.40869 -1.65522,1.55871 -2.72039,0.44956 -5.49885,0.40855 -8.24856,0.54339 -16.50399,0.50603 -33.01746,0.63847 -49.52786,0.81036 -53.87062,0.4769 -107.74413,0.3833 -161.61611,0.26766 -23.06255,-0.0765 -46.12598,-0.12035 -69.187,-0.41371 -2.06722,-0.0833 -4.16,0.0215 -6.20984,-0.24948 -0.69308,-0.24957 -1.38654,-0.4981 -2.07977,-0.74728 0.56919,-1.71465 1.35732,-3.3337 2.25773,-4.89709 8.36851,-15.17981 17.39406,-29.99071 25.52916,-45.30053 6.90635,-12.8689 13.42312,-25.85942 19.67818,-39.05494 14.22861,-30.06924 26.97786,-60.91254 38.29188,-92.25605 7.0634,-19.65505 13.67425,-39.65625 19.80383,-59.69917 2.72863,-9.02583 5.39201,-18.00835 7.73219,-27.13011 0.50858,-1.94194 0.96157,-4.06297 1.47529,-6.06531 7.68955,-24.34624 15.35495,-48.688 22.81783,-73.1009 3.09836,-10.22543 5.95034,-20.53628 9.57597,-30.59264 0.52015,-1.19811 0.83335,-2.67043 1.98563,-3.4229 0.53524,-0.15224 1.07342,-0.52191 1.59587,-0.1301 l 0.0933,0.0359 z m -343.86329,126.6582 c -2.57374,0.15019 -5.3435,0.0975 -7.63086,1.45703 -2.22196,1.48971 -2.93678,4.26684 -3.53906,6.7168 -1.29546,6.33133 -1.51913,12.81557 -1.85789,19.25123 -0.53869,12.86316 -0.80554,25.72064 -1.19021,38.60306 -0.25555,9.1306 -0.51024,18.26122 -0.76635,27.3918 -4.81866,-0.0396 -9.64073,0.0879 -14.45703,-0.082 -2.06918,-0.0954 -4.40643,-0.64352 -5.57569,-2.52154 -1.37225,-2.24166 -1.33205,-4.97572 -1.63688,-7.50544 -0.2526,-3.28455 -1.01827,-6.81136 -3.53239,-9.14089 -2.16012,-1.98851 -4.75819,-3.48076 -7.46598,-4.5919 -2.81006,-1.15188 -6.05237,-1.23592 -8.85937,-0.0273 -4.34763,1.79977 -7.70395,5.21473 -11.34431,8.08202 -0.57469,0.47331 -1.14937,0.94662 -1.72405,1.41993 v 71.37891 c -3.41791,-0.0422 -6.84152,0.0902 -10.25572,-0.0778 -1.97161,-0.0818 -4.12558,-0.89579 -5.00717,-2.79066 -1.44618,-2.97345 -0.35529,-6.41299 -1.38925,-9.48464 -1.57659,-4.92997 -5.65877,-8.87896 -10.44218,-10.72861 -2.55349,-0.9973 -5.40839,-1.20677 -8.05323,-0.4438 -3.97805,1.02256 -7.8065,2.82795 -10.92081,5.52945 -1.8115,1.74894 -34.4878,37.85595 -34.73756,40.20878 -0.40906,6.25953 -0.28619,12.53883 -0.2989,18.80799 0.0234,4.793 0.0947,9.48007 0.55788,14.25948 0.41084,3.61864 0.88079,7.42128 2.89136,10.55045 1.80334,2.7533 5.14528,3.80377 8.20721,4.43707 3.75719,0.67076 42.32949,-35.03219 45.89939,-36.21483 1.42779,-1.01462 1.1701,-0.382 3.19597,-2.61191 0.65876,-0.91137 3.38492,-2.42565 4.35691,-3.07961 2.6191,-2.00203 6.04728,-2.48789 9.26016,-2.35547 h 6.30039 c 0.40775,13.10119 0.72634,26.22421 1.192,39.29985 0.0939,2.51648 0.23799,5.19452 0.40956,7.60249 0.28699,2.86241 0.4054,5.85041 1.6457,8.49544 1.02615,1.93393 3.04782,3.01742 4.85913,4.09907 5.06366,2.82328 11.49736,3.16257 16.72219,0.56717 1.94913,-0.9758 3.78524,-2.24611 5.28721,-3.82943 1.47226,-1.85306 1.65427,-4.33475 1.96591,-6.5952 0.27226,-2.48846 0.3857,-4.962 0.48445,-7.40271 0.37817,-12.50268 0.26639,-25.12296 0.30044,-37.67457 0.006,-20.19127 9.3e-4,-40.38255 0.003,-60.57383 h 23.43164 c 0.0184,27.14816 -0.0435,54.29649 0.0476,81.44452 0.0709,6.76799 0.0809,13.48501 0.48409,20.22103 0.25393,3.09949 0.36771,6.30434 1.56209,9.21726 0.92466,1.92902 2.71391,3.26467 4.43613,4.44402 5.44654,3.47265 12.72255,3.2384 18.28332,0.14885 2.21598,-1.26478 4.26982,-2.79164 6.41336,-4.17295 0.45604,-60.4388 0.9102,-120.87761 1.36719,-181.3164 h 18.41406 v 179.27344 c 2.3418,1.85444 4.53718,3.90346 6.99707,5.60267 4.71146,3.16595 10.9904,3.92532 16.25471,1.72612 2.4026,-0.98839 4.62564,-2.47271 6.42865,-4.3421 1.50688,-1.9149 1.67422,-4.46891 1.98714,-6.79616 0.59403,-6.1408 0.59089,-12.23358 0.6859,-18.3944 0.13632,-18.96487 0.0577,-37.93053 0.0801,-56.89574 V 403.8751 h 23.43164 c 0.0184,27.14816 -0.0435,54.29649 0.0476,81.44452 0.0575,6.14547 0.0882,12.33676 0.38153,18.41891 0.23386,3.51989 0.31389,7.12676 1.44821,10.49997 0.79356,2.17055 2.72988,3.63156 4.55966,4.90504 5.27654,3.41451 12.31994,3.33042 17.82722,0.49753 1.77583,-0.96973 3.62482,-2.00331 4.90083,-3.61334 1.45439,-2.17178 1.6216,-4.88287 1.93866,-7.40422 0.16567,-1.61978 0.2494,-3.11698 0.355,-4.77653 0.49507,-9.774 0.65925,-19.53495 0.97984,-29.32698 0.14386,-4.87772 0.28403,-9.75555 0.43062,-14.63318 3.10866,0.0432 6.22335,-0.09 9.32812,0.0723 2.66163,0.31972 5.51515,1.17993 7.26779,3.3309 0.58411,0.91158 1.69661,0.92646 2.6052,1.57813 2.99459,2.40414 5.36915,2.71289 9.07708,3.55232 3.01458,0.65501 6.68727,1.32017 9.90914,1.90552 3.68505,0.47533 44.13634,27.42126 45.51837,24.8675 1.91987,-3.51176 2.30274,-7.59257 2.66724,-11.50917 0.47545,-6.10656 0.4226,-12.18963 0.42801,-18.34206 -0.0546,-4.97235 0.0702,-9.96647 -0.48814,-14.9156 -0.23789,-2.04494 -0.7962,-4.26744 -2.55219,-5.54639 -3.63171,-2.83744 -46.65437,-34.25044 -51.21765,-34.93484 -4.55016,-0.42009 -8.99119,1.80299 -12.16903,4.93963 -2.84778,2.78714 -4.87529,6.65685 -4.67202,10.72167 -0.065,2.29909 -0.0543,4.95415 -1.81325,6.68831 -1.83656,1.70481 -4.5189,1.55517 -6.85195,1.58594 h -7.47227 v -71.37891 c -3.01462,-2.41114 -5.88266,-5.01307 -9.02572,-7.25869 -2.90814,-2.051 -6.47927,-3.64284 -10.11017,-2.98379 -3.40385,0.60273 -6.46581,2.41212 -9.21068,4.44101 -2.15484,1.60623 -3.58128,4.04268 -4.09046,6.66705 -0.77352,3.31592 -0.38402,6.86727 -1.67253,10.0648 -0.75154,1.905 -2.71684,3.01406 -4.6859,3.21439 -3.33547,0.38323 -6.70493,0.15914 -10.05493,0.22242 h -5.74531 c -0.55034,-19.15052 -1.04199,-38.33992 -1.63436,-57.46321 -0.28837,-7.81301 -0.48608,-15.64738 -1.44129,-23.41415 -0.47325,-3.21083 -0.90265,-6.5756 -2.61576,-9.40194 -1.17607,-1.96501 -3.52024,-2.68009 -5.66923,-2.89409 -3.55482,-0.31589 -7.24081,-0.61344 -10.69334,0.50924 -5.70212,1.70392 -10.56008,6.59311 -11.47249,12.57892 -0.4601,2.79092 0.26775,5.84635 -1.1415,8.43484 -1.05805,1.92615 -3.4064,2.49251 -5.44417,2.56359 -2.60489,0.0863 -5.25008,0.20922 -7.82529,-0.26713 -1.88977,-0.32907 -3.52409,-1.77647 -3.93757,-3.67146 -0.74464,-2.93193 0.001,-6.049 -1.00756,-8.93874 -1.83356,-6.14761 -7.70995,-10.57594 -13.98397,-11.34372 -1.36879,-0.19102 -2.75224,-0.16427 -4.12957,-0.11207 z m 341.38477,195.26953 c -4.67061,0.16456 -9.38947,2.38749 -11.95665,6.38839 -1.21607,2.05091 -2.4708,4.19378 -2.84218,6.58427 -0.28165,2.43383 1.46429,4.43682 2.94379,6.15175 1.81344,2.21511 4.14527,4.03769 6.87215,4.97307 5.27203,1.86356 11.32657,1.36539 16.26575,-1.23452 3.059,-1.60727 5.794,-4.4772 6.06362,-8.0701 0.3384,-4.17434 -1.6572,-8.35112 -4.94468,-10.89952 -3.45849,-2.77088 -7.99896,-4.08604 -12.4018,-3.89334 z m -630.29297,0.35352 c -4.74961,0.11584 -9.55356,2.48245 -12.02252,6.63282 -2.21154,3.52155 -2.4479,8.30569 -0.16889,11.85546 2.4841,3.92017 7.14247,5.89813 11.62293,6.32855 5.01631,0.47473 10.44007,-0.72433 14.22382,-4.2033 1.70691,-1.79228 3.5778,-3.60258 4.46864,-5.96472 0.75437,-2.32124 -0.50816,-4.6401 -1.51737,-6.67075 -1.40487,-3.15916 -4.45155,-5.18457 -7.56755,-6.41752 -2.86461,-1.12417 -5.962,-1.67374 -9.03906,-1.56054 z M 53.435547,565.9082 H 342.04883 V 683.93164 H 51.435547 V 565.9082 Z m 325.476563,0 H 648.0918 v 265.32422 c -47.22597,0.26004 -94.45213,0.49153 -141.67796,0.77382 -43.16724,0.32106 -86.3345,0.64037 -129.50173,0.96251 V 565.9082 Z m 306.04297,0 H 973.56836 V 683.93164 H 682.95508 V 565.9082 Z m -566.41406,28.01953 c -3.25279,0.13379 -6.7821,0.33988 -9.5019,2.33533 -2.66614,2.05182 -3.55054,5.51821 -4.13291,8.66774 -1.12349,7.06482 -0.86484,14.24748 -0.86594,21.37464 0.0185,1.54769 0.0524,3.09502 0.10817,4.64183 0.035,0.65981 0.0798,1.63368 0.15052,2.41432 0.0978,1.15796 0.25913,2.63284 0.63942,3.88514 0.53367,2.1869 2.48556,3.51714 4.26795,4.65707 2.87856,1.82015 5.95256,3.8952 9.49951,3.8354 3.06106,-0.0985 5.96861,-1.24057 8.78661,-2.34186 3.17477,-1.31444 5.66657,-4.01928 6.8412,-7.23453 1.84929,-4.87656 1.96681,-10.18634 1.93125,-15.33932 -0.0931,-4.16194 -0.33019,-8.49852 -0.96676,-12.69615 -0.61542,-3.68441 -1.44776,-7.57695 -3.92984,-10.49823 -2.29359,-2.67417 -5.96795,-3.46094 -9.33119,-3.6545 -1.16434,-0.0652 -2.33042,-0.0709 -3.49609,-0.0469 z m 303.07617,0 c -3.97493,0.10649 -8.24423,1.04545 -11.08203,4.03321 -3.05928,3.25204 -4.11528,7.79528 -4.66225,12.09703 -0.2743,2.33355 -0.42112,4.72381 -0.50531,6.98879 -0.15372,5.83509 0.0781,11.85427 2.24568,17.34777 1.30597,3.25418 3.60143,6.30988 6.9375,7.65625 3.72813,1.65972 7.9397,2.33198 11.96896,1.53599 3.79875,-0.62194 7.32861,-2.82033 9.40204,-6.08657 1.82416,-2.75938 2.78299,-5.991 3.34189,-9.22481 0.0604,-0.38086 0.1765,-1.17349 0.24124,-1.71418 0.65375,-5.42497 0.355,-10.91888 -0.29983,-16.32879 -0.0676,-0.41842 -0.16688,-1.21061 -0.27262,-1.76921 -0.72205,-4.08055 -1.9738,-8.39904 -5.16435,-11.25552 -3.29486,-2.90834 -7.93859,-3.37568 -12.15092,-3.27996 z m 482.38867,0.002 c -3.49906,0.11399 -7.34931,0.66005 -9.94336,3.24219 -2.64854,2.72127 -3.57058,6.58012 -4.23633,10.20117 -0.88894,5.63492 -1.16707,11.35952 -1.06254,17.0591 0.17508,4.66719 0.59422,9.51758 2.79362,13.7245 1.42642,2.81022 4.05958,4.86418 7.03069,5.83579 3.42234,1.32722 7.26785,2.25344 10.8769,1.10326 3.12885,-0.98457 5.9251,-2.80511 8.53027,-4.75733 1.8196,-1.3434 2.36977,-3.66422 2.59185,-5.79301 0.0894,-0.75937 0.13509,-1.3151 0.18642,-2.11643 0.0877,-1.27353 0.10823,-2.37161 0.15081,-3.68059 0.0606,-6.75513 0.2401,-13.53012 -0.36324,-20.26737 -0.39488,-3.55529 -0.85762,-7.29588 -2.84767,-10.36196 -1.59189,-2.46479 -4.54334,-3.5383 -7.33318,-3.88557 -2.10838,-0.30439 -4.24738,-0.34452 -6.37424,-0.30375 z m -393.49219,0.0449 c -0.18341,0.0101 0.0827,-0.009 0,0 z m 4.03321,0.002 c -0.0177,0.006 -0.17493,-0.0166 0,0 z m -239.22657,0.041 c -5.0816,0.12423 -10.14425,2.3085 -13.51881,6.14308 -1.73753,2.21849 -1.88466,5.17039 -2.10402,7.86789 -0.32735,6.05725 -0.23942,12.12903 -0.17894,18.19231 0.12791,3.41811 0.0629,6.92455 1.10255,10.22055 0.89563,2.67616 3.2794,4.41494 5.42969,6.05664 3.81724,2.73682 8.81394,3.96261 13.40572,2.72974 3.84586,-0.96775 7.20468,-3.36306 9.85795,-6.25318 2.04098,-2.43308 2.17747,-5.7689 2.39321,-8.78956 0.26977,-5.89583 0.21526,-11.80324 0.11516,-17.70293 -0.15617,-3.46799 -0.125,-7.0518 -1.3443,-10.35126 -1.02313,-2.4788 -3.18595,-4.28303 -5.39567,-5.68801 -2.92478,-1.7439 -6.373,-2.51806 -9.76254,-2.42527 z m 473.64063,0 c -5.07436,0.12239 -10.12457,2.30258 -13.50339,6.12144 -1.7733,2.25063 -1.90345,5.25484 -2.12764,7.99324 -0.31787,5.98899 -0.23226,11.99192 -0.1728,17.98667 0.12464,3.45192 0.0575,6.99291 1.10266,10.32248 0.89878,2.6737 3.27809,4.41649 5.42968,6.05664 3.8194,2.7381 8.81993,3.96375 13.41353,2.72777 3.84512,-0.96795 7.20134,-3.36611 9.85405,-6.25512 1.99859,-2.3757 2.16321,-5.63303 2.37766,-8.59001 0.28713,-5.92719 0.22464,-11.86696 0.13057,-17.79863 -0.15147,-3.47481 -0.12289,-7.0609 -1.31778,-10.37352 -0.98039,-2.46748 -3.11057,-4.26723 -5.28281,-5.67871 -2.95287,-1.80512 -6.45995,-2.60626 -9.90373,-2.51225 z m -240.31446,0.14453 c -0.13666,0.0167 0.15544,-0.0244 0,0 z m 7.74805,0.004 c -0.0394,-7.9e-4 -0.17926,-0.0305 0,0 z m -8.62695,0.13867 c -0.0928,0.0123 0.20353,-0.0394 0,0 z m 9.48633,0.002 c -0.0479,-0.003 -0.16558,-0.0388 0,0 z m -10.28125,0.16016 c -0.17113,0.0368 0.16222,-0.0398 0,0 z m 11.10742,0.01 c -0.0418,-0.004 -0.20819,-0.0528 0,0 z m -12.64258,0.42383 c -0.137,0.0429 0.20753,-0.0736 0,0 z m 14.16211,0.01 c -0.0533,-0.0122 -0.20148,-0.0761 0,0 z m -16.74609,1.1914 c -0.19522,0.11771 0.16359,-0.10371 0,0 z m 19.35351,0.0332 c -0.10114,-0.0572 -0.16692,-0.1068 0,0 z m -19.91992,0.34179 c -0.21151,0.14434 0.15559,-0.11375 0,0 z m 20.49219,0.041 c -0.13891,-0.0894 -0.13847,-0.10285 0,0 z m -21.05078,0.38086 c -0.15295,0.11983 0.17812,-0.14726 0,0 z m 21.58789,0.0312 c -0.0925,-0.0683 -0.15524,-0.13159 0,0 z m -22.10157,0.4082 c -0.167,0.14962 0.17104,-0.16008 0,0 z m 22.61914,0.0391 c -0.10498,-0.0897 -0.14434,-0.13754 0,0 z m -23.11523,0.44532 c -0.1338,0.13185 0.16605,-0.17762 0,0 z m 23.60156,0.0332 c -0.0875,-0.0794 -0.13532,-0.1514 0,0 z m -24.05273,0.46289 c -0.16665,0.18725 0.11055,-0.13481 0,0 z m 24.51953,0.0547 c -0.0936,-0.0964 -0.11484,-0.14132 0,0 z m -24.97656,0.51172 c -0.12297,0.15592 0.118,-0.16036 0,0 z m 25.41797,0.043 c -0.0578,-0.0657 -0.12065,-0.16674 0,0 z m -25.84375,0.55079 c -0.11609,0.16463 0.11158,-0.17264 0,0 z m 26.26757,0.0449 c -0.0601,-0.0754 -0.10932,-0.17333 0,0 z m -26.66796,0.58789 c -0.0993,0.15897 0.0871,-0.1523 0,0 z m 27.06445,0.0449 c -0.0307,-0.0372 -0.10906,-0.19528 0,0 z m 3.63672,17.32031 c -0.005,-0.0245 -3.7e-4,-0.11083 0,0 z m -29.75,21.16211 c 0.11372,0.1449 -0.12028,-0.1446 0,0 z m 1.3457,1.42969 c 0.12605,0.12047 -0.12432,-0.10847 0,0 z m 0.47266,0.41406 c 0.19456,0.16141 -0.18498,-0.14739 0,0 z m 0.43359,0.32813 c 0.13748,0.10163 -0.20936,-0.14473 0,0 z m 0.46484,0.31054 c 0.17655,0.11507 -0.17494,-0.10551 0,0 z m 1.78907,0.9375 c 0.1277,0.0606 -0.13615,-0.0578 0,0 z m 1.41406,0.56836 c 0.0787,0.0326 -0.13937,-0.0484 0,0 z m 11.31836,0.79883 c 0.0128,-0.0111 0.13815,-0.0253 0,0 z m -5.35156,0.47852 c 0.21376,0.0145 -0.14693,-0.003 0,0 z m -109.4043,46.65234 c -2.28231,2.40996 -4.42016,5.46264 -4.2347,8.93566 0.22501,3.45574 2.72801,6.19706 5.29741,8.2678 l 5.07401,4.1774 h 207.89453 c 2.36069,-2.01709 4.88289,-3.85352 7.11328,-6.01758 2.12908,-2.12413 3.7532,-5.13371 3.15665,-8.22039 -0.64136,-3.58145 -3.27296,-6.30527 -5.72191,-8.80603 -0.94309,-0.98729 -1.88618,-1.97457 -2.82927,-2.96186 H 406.83594 Z M 53.435547,709.9375 H 342.04883 v 122.02344 c -30.90505,0.009 -61.81021,-0.0189 -92.7152,0.0143 -12.5782,0.0708 -25.15387,0.39901 -37.7277,0.68932 -39.73073,-0.66811 -79.46864,-0.70657 -119.203976,-0.70639 -13.655468,0.006 -27.310938,0.002 -40.966407,0.003 V 709.93773 h 2 z m 631.519533,0 H 973.56836 V 831.96094 H 682.95508 V 709.9375 Z m -262.66602,36.02539 c -3.07835,0.50161 -5.9092,1.96803 -8.5625,3.55078 -1.92371,1.3081 -3.97597,2.56011 -5.42999,4.41228 -1.5397,2.25463 -1.5419,5.10991 -1.74188,7.73225 -0.20614,6.22639 -0.16024,12.45955 -0.0707,18.68783 0.14194,2.87271 0.0738,5.86986 1.19931,8.56999 1.08198,2.2785 3.37917,3.57172 5.33104,5.01458 3.55176,2.47593 8.04225,3.84783 12.35691,2.96663 3.97667,-0.78184 7.5745,-2.9732 10.5074,-5.71627 2.15298,-2.1779 2.40327,-5.4074 2.68385,-8.29229 0.39994,-6.23699 0.29535,-12.49356 0.22754,-18.73913 -0.12728,-2.99915 -0.05,-6.10751 -1.11621,-8.96009 -1.03737,-2.42391 -3.45672,-3.77252 -5.49024,-5.26172 -2.73947,-1.73884 -5.69516,-3.28233 -8.89998,-3.92278 -0.3293,-0.052 -0.662,-0.0702 -0.99455,-0.0421 z m 89.89258,0 c 0,-3.01225 -5.71686,1.86973 -8.29365,3.37303 -1.93698,1.26832 -3.94268,2.53465 -5.48531,4.28538 -1.6791,2.1072 -1.74648,4.9428 -1.94821,7.51051 -0.25047,6.05204 -0.17918,12.11326 -0.11779,18.16871 0.12732,3.14618 0.0202,6.40605 1.1223,9.40456 1.03564,2.42645 3.45465,3.77601 5.49024,5.26367 2.74342,1.74611 5.70814,3.29064 8.92142,3.92706 1.85019,0.20646 3.61782,-0.63789 5.30246,-1.29125 3.24198,-1.41766 6.27618,-3.34806 8.89076,-5.73289 2.04341,-1.9382 2.24396,-4.91883 2.45329,-7.55618 0.29794,-6.00086 0.19864,-12.01373 0.16317,-18.01965 -0.11845,-3.26577 0.004,-6.62763 -1.01073,-9.7741 -0.89963,-2.56447 -3.39659,-3.97999 -5.47371,-5.49537 -2.74203,-1.78003 -5.72087,-3.32067 -8.93807,-4.00684 -0.35632,-0.0538 -1.07617,0.30545 -1.07617,-0.0566 z m 89.86914,0 c -3.00951,0.47323 -5.77923,1.89888 -8.38089,3.42721 -1.93829,1.27789 -3.95479,2.54633 -5.47581,4.32715 -1.65991,2.19446 -1.68098,5.08743 -1.88662,7.71402 -0.2277,6.25307 -0.16929,12.51423 -0.0848,18.7699 0.14729,2.93226 0.07,5.99134 1.21806,8.74852 1.09833,2.28475 3.40985,3.58032 5.37959,5.02101 2.74738,1.74229 5.71089,3.29392 8.92725,3.92536 1.84817,0.20408 3.6122,-0.63795 5.29468,-1.2915 3.22588,-1.40994 6.24342,-3.32942 8.85184,-5.69369 2.07764,-1.93317 2.28224,-4.93772 2.49143,-7.59139 0.30128,-5.93518 0.19643,-11.88307 0.1682,-17.82368 -0.11215,-3.30884 0.003,-6.70705 -0.98535,-9.904 -0.87576,-2.58466 -3.37192,-4.01643 -5.45541,-5.53517 -2.79244,-1.80931 -5.82469,-3.39736 -9.11054,-4.05598 -0.31466,-0.0505 -0.63398,-0.0639 -0.95163,-0.0378 z m 46.04102,112.35742 v 137.67383 h -22.53711 c -0.6586,-7.32485 -1.21092,-14.66006 -1.93869,-21.97817 -0.46778,-4.00293 -1.1176,-7.84385 -1.94363,-11.8108 -1.26544,-5.89984 -2.7208,-11.82731 -5.41178,-17.2628 -0.42349,-0.91626 -0.96489,-1.98516 -1.34621,-2.74074 -7.46111,-14.45871 -19.08504,-26.52743 -32.58895,-35.48592 -8.52343,-5.68853 -18.01561,-10.24076 -27.5891,-13.50673 -15.15211,-5.15562 -31.26897,-7.42363 -47.25586,-6.72265 -0.64008,0.0372 -1.79515,0.0986 -2.42188,0.1289 -11.10871,0.74961 -22.12964,2.81182 -32.77529,6.06649 -13.31884,4.0937 -26.05821,10.34224 -37.00596,19.01164 -0.31608,0.26335 -0.93239,0.75647 -1.36339,1.10777 -11.16212,9.131 -20.14414,20.94678 -25.73507,34.254 -2.82669,6.67053 -4.81355,13.68545 -6.0324,20.82378 -0.0656,0.39746 -0.18754,1.18594 -0.2747,1.73307 -0.23863,1.56268 -0.45687,3.35385 -0.61201,4.78841 -0.64401,7.19384 -1.18895,14.39639 -1.79297,21.59375 H 376.91211 V 857.64648 c 31.09934,0.28055 62.20054,0.13685 93.30031,0.0102 44.84239,-0.22441 89.68334,-0.664 134.52493,-1.00374 14.45149,-0.11591 28.90296,-0.23336 43.35445,-0.34828 v 2.01562 z m -535.52149,-1.29297 c 12.43607,0.69026 24.88331,0.80837 37.36278,0.92435 30.86912,0.22335 61.73919,0.0203 92.60871,0.0216 33.169,-0.0144 66.33802,-0.003 99.50703,-0.007 V 995.99363 H 51.435547 V 857.96629 c 15.513476,-0.0231 31.027433,0.054 46.540571,-0.0574 4.821022,-0.10211 9.681632,-0.085 14.445952,-0.89144 l 0.0998,0.006 z m 572.38477,0.93946 h 288.61133 c 0.011,28.5475 -0.0224,57.0951 0.0171,85.64254 0.0248,3.92927 0.0649,7.99726 0.2895,11.83597 0.0829,1.45267 0.33079,2.89591 0.11962,4.34866 -0.54314,8.19886 -0.41158,16.42235 -0.42626,24.66814 v 11.53203 H 682.95504 V 857.9668 h 2 z M 510.93151,593.8304 c -3.97493,0.10649 -8.24423,1.04545 -11.08203,4.03321 -3.05928,3.25204 -4.11528,7.79528 -4.66225,12.09703 -0.2743,2.33355 -0.42112,4.72381 -0.50531,6.98879 -0.15372,5.83509 0.0781,11.85427 2.24568,17.34777 1.30597,3.25418 3.60143,6.30988 6.9375,7.65625 3.72813,1.65972 7.9397,2.33198 11.96896,1.53599 3.79875,-0.62194 7.32861,-2.82033 9.40204,-6.08657 1.82416,-2.75938 2.78299,-5.991 3.34189,-9.22481 0.0604,-0.38086 0.1765,-1.17349 0.24124,-1.71418 0.65375,-5.42497 0.355,-10.91888 -0.29983,-16.32879 -0.0676,-0.41842 -0.16688,-1.21061 -0.27262,-1.76921 -0.72205,-4.08055 -1.9738,-8.39904 -5.16435,-11.25552 -3.29486,-2.90834 -7.93859,-3.37568 -12.15092,-3.27996 z m 92.18269,0.47305 c -3.97493,0.10649 -8.24423,1.04545 -11.08203,4.03321 -3.05928,3.25204 -4.11528,7.79528 -4.66225,12.09703 -0.2743,2.33355 -0.42112,4.72381 -0.50531,6.98879 -0.15372,5.83509 0.0781,11.85427 2.24568,17.34777 1.30597,3.25418 3.60143,6.30988 6.9375,7.65625 3.72813,1.65972 7.9397,2.33198 11.96896,1.53599 3.79875,-0.62194 7.32861,-2.82033 9.40204,-6.08657 1.82416,-2.75938 2.78299,-5.991 3.34189,-9.22481 0.0604,-0.38086 0.1765,-1.17349 0.24124,-1.71418 0.65375,-5.42497 0.355,-10.91888 -0.29983,-16.32879 -0.0676,-0.41842 -0.16688,-1.21061 -0.27262,-1.76921 -0.72205,-4.08055 -1.9738,-8.39904 -5.16435,-11.25552 -3.29486,-2.90834 -7.93859,-3.37568 -12.15092,-3.27996 z"
     sodipodi:nodetypes="ccccccccccccccccccccccccccccccccccccccccccccccccccccccccccccccccccccccccccccccccccccccccccccccccccccsccccccccccccccccccccccccccccccccccccccccccccccccccccccccccccccccccccccccccccccccccccccccccccccccccccccccccccccccccccccccccccccccccccccccccccccccccccccccccccccccccccccccccccccccccccccccccccccccccccccccccccccccccccccsccccccccccccccssccccccccccccccccccccccccccccccccccccccccccccccccccccccccccccccccccccccccccccccccccccccccccccccccccccccccccccccccccccccccccccccccccccccccccccccccccccccccccccccscccccccccccccsssccccccccccccccsssccccccccccccccsscccccccccccccccccccccccccccccccccccccccccccccccccccccccccccccccccccccccccccc" /></svg>
